<mxfile host="Electron" agent="Mozilla/5.0 (X11; Linux x86_64) AppleWebKit/537.36 (KHTML, like Gecko) draw.io/27.0.5 Chrome/134.0.6998.205 Electron/35.3.0 Safari/537.36" version="27.0.5" pages="4">
  <diagram name="CRM-Apps-DB" id="WZ62l_3HLzRunrR7PCf1">
    <mxGraphModel dx="1681" dy="761" grid="1" gridSize="10" guides="1" tooltips="1" connect="1" arrows="1" fold="1" page="1" pageScale="1" pageWidth="850" pageHeight="1100" math="0" shadow="0">
      <root>
        <mxCell id="0" />
        <mxCell id="1" parent="0" />
        <mxCell id="6gK2lExa867Ia_RrmjWl-6" value="" style="sketch=0;points=[[0,0,0],[0.25,0,0],[0.5,0,0],[0.75,0,0],[1,0,0],[0,1,0],[0.25,1,0],[0.5,1,0],[0.75,1,0],[1,1,0],[0,0.25,0],[0,0.5,0],[0,0.75,0],[1,0.25,0],[1,0.5,0],[1,0.75,0]];outlineConnect=0;dashed=0;verticalLabelPosition=bottom;verticalAlign=top;align=center;html=1;fontSize=12;fontStyle=0;aspect=fixed;shape=mxgraph.aws4.resourceIcon;resIcon=mxgraph.aws4.mobile_application;" parent="1" vertex="1">
          <mxGeometry x="70" y="80" width="70" height="70" as="geometry" />
        </mxCell>
        <mxCell id="6gK2lExa867Ia_RrmjWl-7" value="" style="verticalLabelPosition=bottom;html=1;verticalAlign=top;strokeWidth=1;align=center;outlineConnect=0;dashed=0;outlineConnect=0;shape=mxgraph.aws3d.application2;aspect=fixed;" parent="1" vertex="1">
          <mxGeometry x="9" y="90" width="62" height="53" as="geometry" />
        </mxCell>
        <mxCell id="6gK2lExa867Ia_RrmjWl-8" value="Customer Portal" style="text;html=1;align=center;verticalAlign=middle;whiteSpace=wrap;rounded=0;" parent="1" vertex="1">
          <mxGeometry x="51" y="50" width="60" height="30" as="geometry" />
        </mxCell>
        <mxCell id="6gK2lExa867Ia_RrmjWl-9" value="" style="verticalLabelPosition=bottom;html=1;verticalAlign=top;strokeWidth=1;align=center;outlineConnect=0;dashed=0;outlineConnect=0;shape=mxgraph.aws3d.application2;aspect=fixed;" parent="1" vertex="1">
          <mxGeometry x="400" y="80" width="62" height="53" as="geometry" />
        </mxCell>
        <mxCell id="6gK2lExa867Ia_RrmjWl-10" value="Sales Admin" style="text;html=1;align=center;verticalAlign=middle;whiteSpace=wrap;rounded=0;" parent="1" vertex="1">
          <mxGeometry x="410" y="30" width="60" height="30" as="geometry" />
        </mxCell>
        <mxCell id="6gK2lExa867Ia_RrmjWl-11" value="" style="verticalLabelPosition=bottom;html=1;verticalAlign=top;strokeWidth=1;align=center;outlineConnect=0;dashed=0;outlineConnect=0;shape=mxgraph.aws3d.application2;aspect=fixed;" parent="1" vertex="1">
          <mxGeometry x="700" y="78.5" width="62" height="53" as="geometry" />
        </mxCell>
        <mxCell id="6gK2lExa867Ia_RrmjWl-12" value="Vehicle config tool" style="text;html=1;align=center;verticalAlign=middle;whiteSpace=wrap;rounded=0;" parent="1" vertex="1">
          <mxGeometry x="702" y="30" width="60" height="30" as="geometry" />
        </mxCell>
        <mxCell id="6gK2lExa867Ia_RrmjWl-13" value="" style="verticalLabelPosition=bottom;html=1;verticalAlign=top;strokeWidth=1;align=center;outlineConnect=0;dashed=0;outlineConnect=0;shape=mxgraph.aws3d.application2;aspect=fixed;" parent="1" vertex="1">
          <mxGeometry x="1020" y="97" width="62" height="53" as="geometry" />
        </mxCell>
        <mxCell id="6gK2lExa867Ia_RrmjWl-14" value="Integration and API" style="text;html=1;align=center;verticalAlign=middle;whiteSpace=wrap;rounded=0;" parent="1" vertex="1">
          <mxGeometry x="1020" y="48.5" width="60" height="30" as="geometry" />
        </mxCell>
        <mxCell id="6gK2lExa867Ia_RrmjWl-16" value="" style="shape=cylinder3;whiteSpace=wrap;html=1;boundedLbl=1;backgroundOutline=1;size=5.896551724137964;" parent="1" vertex="1">
          <mxGeometry x="47" y="190" width="68" height="50" as="geometry" />
        </mxCell>
        <mxCell id="6gK2lExa867Ia_RrmjWl-17" value="&lt;table&gt;&lt;tbody&gt;&lt;tr data-start=&quot;506&quot; data-end=&quot;574&quot;&gt;&lt;td data-start=&quot;506&quot; data-end=&quot;533&quot; data-col-size=&quot;sm&quot;&gt;&lt;code data-start=&quot;508&quot; data-end=&quot;519&quot;&gt;&lt;font style=&quot;font-size: 8px;&quot;&gt;customers&lt;/font&gt;&lt;/code&gt;&lt;/td&gt;&lt;td data-col-size=&quot;md&quot; data-start=&quot;533&quot; data-end=&quot;574&quot;&gt;&lt;font style=&quot;font-size: 8px;&quot;&gt;Core identity and profile information&lt;/font&gt;&lt;/td&gt;&lt;/tr&gt;&lt;/tbody&gt;&lt;/table&gt;&lt;table&gt;&lt;tbody&gt;&lt;tr data-start=&quot;575&quot; data-end=&quot;632&quot;&gt;&lt;td data-start=&quot;575&quot; data-end=&quot;602&quot; data-col-size=&quot;sm&quot;&gt;&lt;code data-start=&quot;577&quot; data-end=&quot;588&quot;&gt;&lt;font style=&quot;font-size: 8px;&quot;&gt;addresses&lt;/font&gt;&lt;/code&gt;&lt;/td&gt;&lt;td data-col-size=&quot;md&quot; data-start=&quot;602&quot; data-end=&quot;632&quot;&gt;&lt;font style=&quot;font-size: 8px;&quot;&gt;Billing/shipping addresses&lt;/font&gt;&lt;/td&gt;&lt;/tr&gt;&lt;/tbody&gt;&lt;/table&gt;&lt;table&gt;&lt;tbody&gt;&lt;tr data-start=&quot;633&quot; data-end=&quot;692&quot;&gt;&lt;td data-start=&quot;633&quot; data-end=&quot;660&quot; data-col-size=&quot;sm&quot;&gt;&lt;code data-start=&quot;635&quot; data-end=&quot;645&quot;&gt;&lt;font style=&quot;font-size: 8px;&quot;&gt;vehicles&lt;/font&gt;&lt;/code&gt;&lt;/td&gt;&lt;td data-col-size=&quot;md&quot; data-start=&quot;660&quot; data-end=&quot;692&quot;&gt;&lt;font style=&quot;font-size: 8px;&quot;&gt;Customer-configured vehicles&lt;/font&gt;&lt;/td&gt;&lt;/tr&gt;&lt;/tbody&gt;&lt;/table&gt;&lt;table&gt;&lt;tbody&gt;&lt;tr data-start=&quot;693&quot; data-end=&quot;761&quot;&gt;&lt;td data-start=&quot;693&quot; data-end=&quot;720&quot; data-col-size=&quot;sm&quot;&gt;&lt;code data-start=&quot;695&quot; data-end=&quot;703&quot;&gt;&lt;font style=&quot;font-size: 8px;&quot;&gt;orders&lt;/font&gt;&lt;/code&gt;&lt;/td&gt;&lt;td data-col-size=&quot;md&quot; data-start=&quot;720&quot; data-end=&quot;761&quot;&gt;&lt;font style=&quot;font-size: 8px;&quot;&gt;Customer&#39;s order history and statuses&lt;/font&gt;&lt;/td&gt;&lt;/tr&gt;&lt;/tbody&gt;&lt;/table&gt;&lt;table&gt;&lt;tbody&gt;&lt;tr data-start=&quot;762&quot; data-end=&quot;832&quot;&gt;&lt;td data-start=&quot;762&quot; data-end=&quot;789&quot; data-col-size=&quot;sm&quot;&gt;&lt;code data-start=&quot;764&quot; data-end=&quot;780&quot;&gt;&lt;font style=&quot;font-size: 8px;&quot;&gt;vehicle_models&lt;/font&gt;&lt;/code&gt;&lt;/td&gt;&lt;td data-col-size=&quot;md&quot; data-start=&quot;789&quot; data-end=&quot;832&quot;&gt;&lt;font style=&quot;font-size: 8px;&quot;&gt;Base catalog for customer configuration&lt;/font&gt;&lt;/td&gt;&lt;/tr&gt;&lt;/tbody&gt;&lt;/table&gt;&lt;table&gt;&lt;tbody&gt;&lt;tr data-start=&quot;833&quot; data-end=&quot;900&quot;&gt;&lt;td data-start=&quot;833&quot; data-end=&quot;860&quot; data-col-size=&quot;sm&quot;&gt;&lt;code data-start=&quot;835&quot; data-end=&quot;849&quot;&gt;&lt;font style=&quot;font-size: 8px;&quot;&gt;interactions&lt;/font&gt;&lt;/code&gt;&lt;/td&gt;&lt;td data-col-size=&quot;md&quot; data-start=&quot;860&quot; data-end=&quot;900&quot;&gt;&lt;font style=&quot;font-size: 8px;&quot;&gt;Self-service activity log (optional)&lt;/font&gt;&lt;/td&gt;&lt;/tr&gt;&lt;/tbody&gt;&lt;/table&gt;&lt;table&gt;&lt;tbody&gt;&lt;tr data-start=&quot;901&quot; data-end=&quot;990&quot;&gt;&lt;td data-start=&quot;901&quot; data-end=&quot;928&quot; data-col-size=&quot;sm&quot;&gt;&lt;code data-start=&quot;903&quot; data-end=&quot;914&quot;&gt;&lt;font style=&quot;font-size: 8px;&quot;&gt;documents&lt;/font&gt;&lt;/code&gt;&lt;/td&gt;&lt;td data-col-size=&quot;md&quot; data-start=&quot;928&quot; data-end=&quot;990&quot;&gt;&lt;font style=&quot;font-size: 8px;&quot;&gt;Customer-uploaded documents (e.g., ID, proof of insurance)&lt;/font&gt;&lt;/td&gt;&lt;/tr&gt;&lt;/tbody&gt;&lt;/table&gt;&lt;table&gt;&lt;tbody&gt;&lt;tr data-start=&quot;991&quot; data-end=&quot;1048&quot;&gt;&lt;td data-start=&quot;991&quot; data-end=&quot;1018&quot; data-col-size=&quot;sm&quot;&gt;&lt;code data-start=&quot;993&quot; data-end=&quot;1016&quot;&gt;&lt;font style=&quot;font-size: 8px;&quot;&gt;password_reset_tokens&lt;/font&gt;&lt;/code&gt;&lt;/td&gt;&lt;td data-col-size=&quot;md&quot; data-start=&quot;1018&quot; data-end=&quot;1048&quot;&gt;&lt;font style=&quot;font-size: 8px;&quot;&gt;For account security flows&lt;/font&gt;&lt;/td&gt;&lt;/tr&gt;&lt;/tbody&gt;&lt;/table&gt;&lt;table&gt;&lt;tbody&gt;&lt;tr data-start=&quot;1049&quot; data-end=&quot;1124&quot;&gt;&lt;td data-start=&quot;1049&quot; data-end=&quot;1076&quot; data-col-size=&quot;sm&quot;&gt;&lt;code data-start=&quot;1051&quot; data-end=&quot;1066&quot;&gt;&lt;font style=&quot;font-size: 8px;&quot;&gt;notifications&lt;/font&gt;&lt;/code&gt;&lt;/td&gt;&lt;td data-col-size=&quot;md&quot; data-start=&quot;1076&quot; data-end=&quot;1124&quot;&gt;&lt;font style=&quot;font-size: 8px;&quot;&gt;Messages shown to user (e.g., order updates)&lt;/font&gt;&lt;/td&gt;&lt;/tr&gt;&lt;/tbody&gt;&lt;/table&gt;&lt;table&gt;&lt;tbody&gt;&lt;tr data-start=&quot;1125&quot; data-end=&quot;1193&quot;&gt;&lt;td data-start=&quot;1125&quot; data-end=&quot;1152&quot; data-col-size=&quot;sm&quot;&gt;&lt;code data-start=&quot;1127&quot; data-end=&quot;1139&quot;&gt;&lt;font style=&quot;font-size: 8px;&quot;&gt;audit_logs&lt;/font&gt;&lt;/code&gt;&lt;/td&gt;&lt;td data-col-size=&quot;md&quot; data-start=&quot;1152&quot; data-end=&quot;1193&quot;&gt;&lt;font style=&quot;font-size: 8px;&quot;&gt;Track profile changes, login attempts&lt;/font&gt;&lt;/td&gt;&lt;/tr&gt;&lt;/tbody&gt;&lt;/table&gt;" style="text;whiteSpace=wrap;html=1;" parent="1" vertex="1">
          <mxGeometry y="280" width="270" height="230" as="geometry" />
        </mxCell>
        <mxCell id="6gK2lExa867Ia_RrmjWl-18" value="&lt;table&gt;&lt;tbody&gt;&lt;tr data-start=&quot;1413&quot; data-end=&quot;1483&quot;&gt;&lt;td data-start=&quot;1413&quot; data-end=&quot;1440&quot; data-col-size=&quot;sm&quot;&gt;&lt;code data-start=&quot;1415&quot; data-end=&quot;1423&quot;&gt;&lt;font style=&quot;font-size: 8px;&quot;&gt;&lt;b&gt;orders&lt;/b&gt;&lt;/font&gt;&lt;/code&gt;&lt;/td&gt;&lt;td data-col-size=&quot;md&quot; data-start=&quot;1440&quot; data-end=&quot;1483&quot;&gt;&lt;font style=&quot;font-size: 8px;&quot;&gt;&lt;b&gt;View, modify, or cancel customer orders&lt;/b&gt;&lt;/font&gt;&lt;/td&gt;&lt;/tr&gt;&lt;/tbody&gt;&lt;/table&gt;&lt;table&gt;&lt;tbody&gt;&lt;tr data-start=&quot;1484&quot; data-end=&quot;1554&quot;&gt;&lt;td data-start=&quot;1484&quot; data-end=&quot;1511&quot; data-col-size=&quot;sm&quot;&gt;&lt;code data-start=&quot;1486&quot; data-end=&quot;1496&quot;&gt;&lt;font style=&quot;font-size: 8px;&quot;&gt;&lt;b&gt;vehicles&lt;/b&gt;&lt;/font&gt;&lt;/code&gt;&lt;/td&gt;&lt;td data-col-size=&quot;md&quot; data-start=&quot;1511&quot; data-end=&quot;1554&quot;&gt;&lt;font style=&quot;font-size: 8px;&quot;&gt;&lt;b&gt;Track configurations or manually modify&lt;/b&gt;&lt;/font&gt;&lt;/td&gt;&lt;/tr&gt;&lt;/tbody&gt;&lt;/table&gt;&lt;table&gt;&lt;tbody&gt;&lt;tr data-start=&quot;1555&quot; data-end=&quot;1613&quot;&gt;&lt;td data-start=&quot;1555&quot; data-end=&quot;1582&quot; data-col-size=&quot;sm&quot;&gt;&lt;code data-start=&quot;1557&quot; data-end=&quot;1568&quot;&gt;&lt;font style=&quot;font-size: 8px;&quot;&gt;&lt;b&gt;customers&lt;/b&gt;&lt;/font&gt;&lt;/code&gt;&lt;/td&gt;&lt;td data-col-size=&quot;md&quot; data-start=&quot;1582&quot; data-end=&quot;1613&quot;&gt;&lt;font style=&quot;font-size: 8px;&quot;&gt;&lt;b&gt;Lookup and manage customers&lt;/b&gt;&lt;/font&gt;&lt;/td&gt;&lt;/tr&gt;&lt;/tbody&gt;&lt;/table&gt;&lt;table&gt;&lt;tbody&gt;&lt;tr data-start=&quot;1614&quot; data-end=&quot;1670&quot;&gt;&lt;td data-start=&quot;1614&quot; data-end=&quot;1641&quot; data-col-size=&quot;sm&quot;&gt;&lt;code data-start=&quot;1616&quot; data-end=&quot;1625&quot;&gt;&lt;font style=&quot;font-size: 8px;&quot;&gt;&lt;b&gt;dealers&lt;/b&gt;&lt;/font&gt;&lt;/code&gt;&lt;/td&gt;&lt;td data-col-size=&quot;md&quot; data-start=&quot;1641&quot; data-end=&quot;1670&quot;&gt;&lt;font style=&quot;font-size: 8px;&quot;&gt;&lt;b&gt;Dealer network management&lt;/b&gt;&lt;/font&gt;&lt;/td&gt;&lt;/tr&gt;&lt;/tbody&gt;&lt;/table&gt;&lt;table&gt;&lt;tbody&gt;&lt;tr data-start=&quot;1671&quot; data-end=&quot;1731&quot;&gt;&lt;td data-start=&quot;1671&quot; data-end=&quot;1698&quot; data-col-size=&quot;sm&quot;&gt;&lt;code data-start=&quot;1673&quot; data-end=&quot;1680&quot;&gt;&lt;font style=&quot;font-size: 8px;&quot;&gt;&lt;b&gt;leads&lt;/b&gt;&lt;/font&gt;&lt;/code&gt;&lt;/td&gt;&lt;td data-col-size=&quot;md&quot; data-start=&quot;1698&quot; data-end=&quot;1731&quot;&gt;&lt;font style=&quot;font-size: 8px;&quot;&gt;&lt;b&gt;Marketing or campaign support&lt;/b&gt;&lt;/font&gt;&lt;/td&gt;&lt;/tr&gt;&lt;/tbody&gt;&lt;/table&gt;&lt;table&gt;&lt;tbody&gt;&lt;tr data-start=&quot;1732&quot; data-end=&quot;1789&quot;&gt;&lt;td data-start=&quot;1732&quot; data-end=&quot;1758&quot; data-col-size=&quot;sm&quot;&gt;&lt;code data-start=&quot;1734&quot; data-end=&quot;1757&quot;&gt;&lt;font style=&quot;font-size: 8px;&quot;&gt;&lt;b&gt;sales_representatives&lt;/b&gt;&lt;/font&gt;&lt;/code&gt;&lt;/td&gt;&lt;td data-col-size=&quot;md&quot; data-start=&quot;1758&quot; data-end=&quot;1789&quot;&gt;&lt;font style=&quot;font-size: 8px;&quot;&gt;&lt;b&gt;Assign reps to orders/leads&lt;/b&gt;&lt;/font&gt;&lt;/td&gt;&lt;/tr&gt;&lt;/tbody&gt;&lt;/table&gt;&lt;table&gt;&lt;tbody&gt;&lt;tr data-start=&quot;1790&quot; data-end=&quot;1847&quot;&gt;&lt;td data-start=&quot;1790&quot; data-end=&quot;1817&quot; data-col-size=&quot;sm&quot;&gt;&lt;code data-start=&quot;1792&quot; data-end=&quot;1806&quot;&gt;&lt;font style=&quot;font-size: 8px;&quot;&gt;&lt;b&gt;interactions&lt;/b&gt;&lt;/font&gt;&lt;/code&gt;&lt;/td&gt;&lt;td data-col-size=&quot;md&quot; data-start=&quot;1817&quot; data-end=&quot;1847&quot;&gt;&lt;font style=&quot;font-size: 8px;&quot;&gt;&lt;b&gt;Review past communications&lt;/b&gt;&lt;/font&gt;&lt;/td&gt;&lt;/tr&gt;&lt;/tbody&gt;&lt;/table&gt;&lt;table&gt;&lt;tbody&gt;&lt;tr data-start=&quot;1848&quot; data-end=&quot;1925&quot;&gt;&lt;td data-start=&quot;1848&quot; data-end=&quot;1875&quot; data-col-size=&quot;sm&quot;&gt;&lt;code data-start=&quot;1850&quot; data-end=&quot;1861&quot;&gt;&lt;font style=&quot;font-size: 8px;&quot;&gt;&lt;b&gt;cron_jobs&lt;/b&gt;&lt;/font&gt;&lt;/code&gt;&lt;/td&gt;&lt;td data-col-size=&quot;md&quot; data-start=&quot;1875&quot; data-end=&quot;1925&quot;&gt;&lt;font style=&quot;font-size: 8px;&quot;&gt;&lt;b&gt;Schedule and status of recurring backend tasks&lt;/b&gt;&lt;/font&gt;&lt;/td&gt;&lt;/tr&gt;&lt;/tbody&gt;&lt;/table&gt;&lt;table&gt;&lt;tbody&gt;&lt;tr data-start=&quot;1926&quot; data-end=&quot;1994&quot;&gt;&lt;td data-start=&quot;1926&quot; data-end=&quot;1953&quot; data-col-size=&quot;sm&quot;&gt;&lt;code data-start=&quot;1928&quot; data-end=&quot;1941&quot;&gt;&lt;font style=&quot;font-size: 8px;&quot;&gt;&lt;b&gt;admin_users&lt;/b&gt;&lt;/font&gt;&lt;/code&gt;&lt;/td&gt;&lt;td data-col-size=&quot;md&quot; data-start=&quot;1953&quot; data-end=&quot;1994&quot;&gt;&lt;font style=&quot;font-size: 8px;&quot;&gt;&lt;b&gt;Internal users with permissions/roles&lt;/b&gt;&lt;/font&gt;&lt;/td&gt;&lt;/tr&gt;&lt;/tbody&gt;&lt;/table&gt;&lt;table&gt;&lt;tbody&gt;&lt;tr data-start=&quot;1995&quot; data-end=&quot;2061&quot;&gt;&lt;td data-start=&quot;1995&quot; data-end=&quot;2022&quot; data-col-size=&quot;sm&quot;&gt;&lt;code data-start=&quot;1997&quot; data-end=&quot;2018&quot;&gt;&lt;font style=&quot;font-size: 8px;&quot;&gt;&lt;b&gt;admin_activity_logs&lt;/b&gt;&lt;/font&gt;&lt;/code&gt;&lt;/td&gt;&lt;td data-col-size=&quot;md&quot; data-start=&quot;2022&quot; data-end=&quot;2061&quot;&gt;&lt;font style=&quot;font-size: 8px;&quot;&gt;&lt;b&gt;Who did what in the admin interface&lt;/b&gt;&lt;/font&gt;&lt;/td&gt;&lt;/tr&gt;&lt;/tbody&gt;&lt;/table&gt;" style="text;whiteSpace=wrap;html=1;" parent="1" vertex="1">
          <mxGeometry x="282" y="280" width="268" height="230" as="geometry" />
        </mxCell>
        <mxCell id="6gK2lExa867Ia_RrmjWl-19" value="&lt;table&gt;&lt;tbody&gt;&lt;tr data-start=&quot;2285&quot; data-end=&quot;2346&quot;&gt;&lt;td data-start=&quot;2285&quot; data-end=&quot;2312&quot; data-col-size=&quot;sm&quot;&gt;&lt;code data-start=&quot;2287&quot; data-end=&quot;2295&quot;&gt;&lt;font style=&quot;font-size: 8px;&quot;&gt;orders&lt;/font&gt;&lt;/code&gt;&lt;/td&gt;&lt;td data-col-size=&quot;md&quot; data-start=&quot;2312&quot; data-end=&quot;2346&quot;&gt;&lt;font style=&quot;font-size: 8px;&quot;&gt;Source of truth for each order&lt;/font&gt;&lt;/td&gt;&lt;/tr&gt;&lt;/tbody&gt;&lt;/table&gt;&lt;table&gt;&lt;tbody&gt;&lt;tr data-start=&quot;2347&quot; data-end=&quot;2428&quot;&gt;&lt;td data-start=&quot;2347&quot; data-end=&quot;2374&quot; data-col-size=&quot;sm&quot;&gt;&lt;code data-start=&quot;2349&quot; data-end=&quot;2371&quot;&gt;&lt;font style=&quot;font-size: 8px;&quot;&gt;order_status_history&lt;/font&gt;&lt;/code&gt;&lt;/td&gt;&lt;td data-col-size=&quot;md&quot; data-start=&quot;2374&quot; data-end=&quot;2428&quot;&gt;&lt;font style=&quot;font-size: 8px;&quot;&gt;Tracks state transitions (e.g., created → shipped)&lt;/font&gt;&lt;/td&gt;&lt;/tr&gt;&lt;/tbody&gt;&lt;/table&gt;&lt;table&gt;&lt;tbody&gt;&lt;tr data-start=&quot;2429&quot; data-end=&quot;2513&quot;&gt;&lt;td data-start=&quot;2429&quot; data-end=&quot;2462&quot; data-col-size=&quot;sm&quot;&gt;&lt;code data-start=&quot;2431&quot; data-end=&quot;2461&quot;&gt;&lt;font style=&quot;font-size: 8px;&quot;&gt;vehicle_manufacturing_events&lt;/font&gt;&lt;/code&gt;&lt;/td&gt;&lt;td data-col-size=&quot;md&quot; data-start=&quot;2462&quot; data-end=&quot;2513&quot;&gt;&lt;font style=&quot;font-size: 8px;&quot;&gt;Integration table with plant or factory systems&lt;/font&gt;&lt;/td&gt;&lt;/tr&gt;&lt;/tbody&gt;&lt;/table&gt;&lt;table&gt;&lt;tbody&gt;&lt;tr data-start=&quot;2514&quot; data-end=&quot;2579&quot;&gt;&lt;td data-start=&quot;2514&quot; data-end=&quot;2541&quot; data-col-size=&quot;sm&quot;&gt;&lt;code data-start=&quot;2516&quot; data-end=&quot;2528&quot;&gt;&lt;font style=&quot;font-size: 8px;&quot;&gt;batch_jobs&lt;/font&gt;&lt;/code&gt;&lt;/td&gt;&lt;td data-col-size=&quot;md&quot; data-start=&quot;2541&quot; data-end=&quot;2579&quot;&gt;&lt;font style=&quot;font-size: 8px;&quot;&gt;Logs of each run of the batch jobs&lt;/font&gt;&lt;/td&gt;&lt;/tr&gt;&lt;/tbody&gt;&lt;/table&gt;&lt;table&gt;&lt;tbody&gt;&lt;tr data-start=&quot;2580&quot; data-end=&quot;2687&quot;&gt;&lt;td data-start=&quot;2580&quot; data-end=&quot;2607&quot; data-col-size=&quot;sm&quot;&gt;&lt;code data-start=&quot;2582&quot; data-end=&quot;2593&quot;&gt;&lt;font style=&quot;font-size: 8px;&quot;&gt;job_queue&lt;/font&gt;&lt;/code&gt;&lt;/td&gt;&lt;td data-col-size=&quot;md&quot; data-start=&quot;2607&quot; data-end=&quot;2687&quot;&gt;&lt;font style=&quot;font-size: 8px;&quot;&gt;Async task queue (e.g., send confirmation email, push status to partner API)&lt;/font&gt;&lt;/td&gt;&lt;/tr&gt;&lt;/tbody&gt;&lt;/table&gt;&lt;table&gt;&lt;tbody&gt;&lt;tr data-start=&quot;2688&quot; data-end=&quot;2746&quot;&gt;&lt;td data-start=&quot;2688&quot; data-end=&quot;2715&quot; data-col-size=&quot;sm&quot;&gt;&lt;code data-start=&quot;2690&quot; data-end=&quot;2702&quot;&gt;&lt;font style=&quot;font-size: 8px;&quot;&gt;error_logs&lt;/font&gt;&lt;/code&gt;&lt;/td&gt;&lt;td data-col-size=&quot;md&quot; data-start=&quot;2715&quot; data-end=&quot;2746&quot;&gt;&lt;font style=&quot;font-size: 8px;&quot;&gt;Capture processing failures&lt;/font&gt;&lt;/td&gt;&lt;/tr&gt;&lt;/tbody&gt;&lt;/table&gt;&lt;table&gt;&lt;tbody&gt;&lt;tr data-start=&quot;2747&quot; data-end=&quot;2806&quot;&gt;&lt;td data-start=&quot;2747&quot; data-end=&quot;2774&quot; data-col-size=&quot;sm&quot;&gt;&lt;code data-start=&quot;2749&quot; data-end=&quot;2766&quot;&gt;&lt;font style=&quot;font-size: 8px;&quot;&gt;retries_pending&lt;/font&gt;&lt;/code&gt;&lt;/td&gt;&lt;td data-col-size=&quot;md&quot; data-start=&quot;2774&quot; data-end=&quot;2806&quot;&gt;&lt;font style=&quot;font-size: 8px;&quot;&gt;Tasks that need reprocessing&lt;/font&gt;&lt;/td&gt;&lt;/tr&gt;&lt;/tbody&gt;&lt;/table&gt;&lt;table&gt;&lt;tbody&gt;&lt;tr data-start=&quot;2807&quot; data-end=&quot;2897&quot;&gt;&lt;td data-start=&quot;2807&quot; data-end=&quot;2834&quot; data-col-size=&quot;sm&quot;&gt;&lt;code data-start=&quot;2809&quot; data-end=&quot;2829&quot;&gt;&lt;font style=&quot;font-size: 8px;&quot;&gt;integration_events&lt;/font&gt;&lt;/code&gt;&lt;/td&gt;&lt;td data-col-size=&quot;md&quot; data-start=&quot;2834&quot; data-end=&quot;2897&quot;&gt;&lt;font style=&quot;font-size: 8px;&quot;&gt;Outbox-style tracking of changes pushed to external systems&lt;/font&gt;&lt;/td&gt;&lt;/tr&gt;&lt;/tbody&gt;&lt;/table&gt;" style="text;whiteSpace=wrap;html=1;strokeWidth=0;" parent="1" vertex="1">
          <mxGeometry x="571" y="300" width="330" height="190" as="geometry" />
        </mxCell>
        <mxCell id="6gK2lExa867Ia_RrmjWl-20" value="&lt;font style=&quot;font-size: 8px;&quot;&gt;api_keys&#x9;Authorized clients and their scopes&lt;br&gt;api_logs&#x9;Every API request and response (for troubleshooting and rate limiting)&lt;br&gt;webhook_subscriptions&#x9;Third parties listening to order/customer updates&lt;br&gt;webhook_events&#x9;What has been sent, delivered, failed&lt;br&gt;external_partner_tokens&#x9;OAuth tokens / credentials for 3rd-party services&lt;br&gt;integration_mappings&#x9;Mapping external IDs to internal IDs (e.g., Salesforce Lead → CRM Customer)&lt;br&gt;sync_jobs&#x9;Scheduled pull/push with 3rd-party systems&lt;br&gt;data_exports&#x9;Export files and metadata for 3rd-party BI or compliance&lt;br&gt;audit_logs&#x9;Track external accesses or sensitive data exposure&lt;/font&gt;" style="text;whiteSpace=wrap;html=1;" parent="1" vertex="1">
          <mxGeometry x="920" y="300" width="560" height="170" as="geometry" />
        </mxCell>
        <mxCell id="6gK2lExa867Ia_RrmjWl-22" value="" style="shape=cylinder3;whiteSpace=wrap;html=1;boundedLbl=1;backgroundOutline=1;size=5.896551724137964;" parent="1" vertex="1">
          <mxGeometry x="391" y="190" width="68" height="50" as="geometry" />
        </mxCell>
        <mxCell id="6gK2lExa867Ia_RrmjWl-23" value="" style="shape=cylinder3;whiteSpace=wrap;html=1;boundedLbl=1;backgroundOutline=1;size=5.896551724137964;" parent="1" vertex="1">
          <mxGeometry x="702" y="190" width="68" height="50" as="geometry" />
        </mxCell>
        <mxCell id="6gK2lExa867Ia_RrmjWl-24" value="" style="shape=cylinder3;whiteSpace=wrap;html=1;boundedLbl=1;backgroundOutline=1;size=5.896551724137964;" parent="1" vertex="1">
          <mxGeometry x="1030" y="190" width="68" height="50" as="geometry" />
        </mxCell>
      </root>
    </mxGraphModel>
  </diagram>
  <diagram id="_0peu6ABXMnwWjK2U1jV" name="C-SQL-Migration">
    <mxGraphModel dx="1426" dy="875" grid="1" gridSize="10" guides="1" tooltips="1" connect="1" arrows="1" fold="1" page="1" pageScale="1" pageWidth="850" pageHeight="1100" math="0" shadow="0">
      <root>
        <mxCell id="0" />
        <mxCell id="1" parent="0" />
        <mxCell id="E0PU0g-8N9hY11ySkJEa-27" value="" style="rounded=0;whiteSpace=wrap;html=1;" parent="1" vertex="1">
          <mxGeometry x="22" y="190" width="792" height="100" as="geometry" />
        </mxCell>
        <mxCell id="E0PU0g-8N9hY11ySkJEa-25" value="" style="rounded=0;whiteSpace=wrap;html=1;" parent="1" vertex="1">
          <mxGeometry x="9" y="440" width="811" height="130" as="geometry" />
        </mxCell>
        <mxCell id="E0PU0g-8N9hY11ySkJEa-23" value="" style="rounded=0;whiteSpace=wrap;html=1;" parent="1" vertex="1">
          <mxGeometry x="18" y="20" width="792" height="140" as="geometry" />
        </mxCell>
        <mxCell id="E0PU0g-8N9hY11ySkJEa-41" style="edgeStyle=orthogonalEdgeStyle;rounded=0;orthogonalLoop=1;jettySize=auto;html=1;entryX=0.5;entryY=0;entryDx=0;entryDy=0;" parent="1" source="E0PU0g-8N9hY11ySkJEa-17" target="E0PU0g-8N9hY11ySkJEa-33" edge="1">
          <mxGeometry relative="1" as="geometry" />
        </mxCell>
        <mxCell id="E0PU0g-8N9hY11ySkJEa-17" value="" style="image;sketch=0;aspect=fixed;html=1;points=[];align=center;fontSize=12;image=img/lib/mscae/SQL_Database_generic.svg;imageBackground=none;" parent="1" vertex="1">
          <mxGeometry x="100" y="210" width="38" height="50" as="geometry" />
        </mxCell>
        <mxCell id="E0PU0g-8N9hY11ySkJEa-43" style="edgeStyle=orthogonalEdgeStyle;rounded=0;orthogonalLoop=1;jettySize=auto;html=1;entryX=0.5;entryY=0;entryDx=0;entryDy=0;" parent="1" source="E0PU0g-8N9hY11ySkJEa-18" target="E0PU0g-8N9hY11ySkJEa-34" edge="1">
          <mxGeometry relative="1" as="geometry" />
        </mxCell>
        <mxCell id="E0PU0g-8N9hY11ySkJEa-18" value="" style="image;sketch=0;aspect=fixed;html=1;points=[];align=center;fontSize=12;image=img/lib/mscae/Azure_Database_for_PostgreSQL_servers.svg;" parent="1" vertex="1">
          <mxGeometry x="240" y="210" width="38" height="50" as="geometry" />
        </mxCell>
        <mxCell id="E0PU0g-8N9hY11ySkJEa-44" value="" style="edgeStyle=orthogonalEdgeStyle;rounded=0;orthogonalLoop=1;jettySize=auto;html=1;" parent="1" source="E0PU0g-8N9hY11ySkJEa-20" target="E0PU0g-8N9hY11ySkJEa-35" edge="1">
          <mxGeometry relative="1" as="geometry" />
        </mxCell>
        <mxCell id="E0PU0g-8N9hY11ySkJEa-20" value="" style="sketch=0;outlineConnect=0;fontColor=#ffffff;fillColor=#1ba1e2;strokeColor=#006EAF;dashed=0;verticalLabelPosition=bottom;verticalAlign=top;align=center;html=1;fontSize=12;fontStyle=0;aspect=fixed;pointerEvents=1;shape=mxgraph.aws4.rds_oracle_instance;" parent="1" vertex="1">
          <mxGeometry x="398" y="215" width="40" height="40" as="geometry" />
        </mxCell>
        <mxCell id="E0PU0g-8N9hY11ySkJEa-45" value="" style="edgeStyle=orthogonalEdgeStyle;rounded=0;orthogonalLoop=1;jettySize=auto;html=1;" parent="1" source="E0PU0g-8N9hY11ySkJEa-21" target="E0PU0g-8N9hY11ySkJEa-36" edge="1">
          <mxGeometry relative="1" as="geometry" />
        </mxCell>
        <mxCell id="E0PU0g-8N9hY11ySkJEa-21" value="" style="sketch=0;outlineConnect=0;fontColor=#ffffff;fillColor=#1ba1e2;strokeColor=#006EAF;dashed=0;verticalLabelPosition=bottom;verticalAlign=top;align=center;html=1;fontSize=12;fontStyle=0;aspect=fixed;pointerEvents=1;shape=mxgraph.aws4.rds_oracle_instance;" parent="1" vertex="1">
          <mxGeometry x="620" y="220" width="40" height="40" as="geometry" />
        </mxCell>
        <mxCell id="E0PU0g-8N9hY11ySkJEa-1" value="" style="sketch=0;points=[[0,0,0],[0.25,0,0],[0.5,0,0],[0.75,0,0],[1,0,0],[0,1,0],[0.25,1,0],[0.5,1,0],[0.75,1,0],[1,1,0],[0,0.25,0],[0,0.5,0],[0,0.75,0],[1,0.25,0],[1,0.5,0],[1,0.75,0]];outlineConnect=0;dashed=0;verticalLabelPosition=bottom;verticalAlign=top;align=center;html=1;fontSize=12;fontStyle=0;aspect=fixed;shape=mxgraph.aws4.resourceIcon;resIcon=mxgraph.aws4.mobile_application;fillColor=#1ba1e2;fontColor=#ffffff;strokeColor=#006EAF;" parent="1" vertex="1">
          <mxGeometry x="70" y="80" width="70" height="70" as="geometry" />
        </mxCell>
        <mxCell id="E0PU0g-8N9hY11ySkJEa-2" value="Customer Portal" style="text;html=1;align=center;verticalAlign=middle;whiteSpace=wrap;rounded=0;" parent="1" vertex="1">
          <mxGeometry x="51" y="50" width="60" height="30" as="geometry" />
        </mxCell>
        <mxCell id="E0PU0g-8N9hY11ySkJEa-3" value="" style="verticalLabelPosition=bottom;html=1;verticalAlign=top;strokeWidth=1;align=center;outlineConnect=0;dashed=0;outlineConnect=0;shape=mxgraph.aws3d.application2;aspect=fixed;fillColor=#1ba1e2;fontColor=#ffffff;strokeColor=#006EAF;" parent="1" vertex="1">
          <mxGeometry x="219" y="90" width="62" height="53" as="geometry" />
        </mxCell>
        <mxCell id="E0PU0g-8N9hY11ySkJEa-4" value="Sales Admin" style="text;html=1;align=center;verticalAlign=middle;whiteSpace=wrap;rounded=0;" parent="1" vertex="1">
          <mxGeometry x="229" y="40" width="60" height="30" as="geometry" />
        </mxCell>
        <mxCell id="E0PU0g-8N9hY11ySkJEa-5" value="" style="verticalLabelPosition=bottom;html=1;verticalAlign=top;strokeWidth=1;align=center;outlineConnect=0;dashed=0;outlineConnect=0;shape=mxgraph.aws3d.application2;aspect=fixed;fillColor=#1ba1e2;fontColor=#ffffff;strokeColor=#006EAF;" parent="1" vertex="1">
          <mxGeometry x="390" y="88.5" width="62" height="53" as="geometry" />
        </mxCell>
        <mxCell id="E0PU0g-8N9hY11ySkJEa-7" value="" style="verticalLabelPosition=bottom;html=1;verticalAlign=top;strokeWidth=1;align=center;outlineConnect=0;dashed=0;outlineConnect=0;shape=mxgraph.aws3d.application2;aspect=fixed;fillColor=#1ba1e2;fontColor=#ffffff;strokeColor=#006EAF;" parent="1" vertex="1">
          <mxGeometry x="620" y="88.5" width="62" height="53" as="geometry" />
        </mxCell>
        <mxCell id="E0PU0g-8N9hY11ySkJEa-8" value="Integration and API" style="text;html=1;align=center;verticalAlign=middle;whiteSpace=wrap;rounded=0;" parent="1" vertex="1">
          <mxGeometry x="610" y="40" width="60" height="30" as="geometry" />
        </mxCell>
        <mxCell id="E0PU0g-8N9hY11ySkJEa-6" value="Vehicle config tool" style="text;html=1;align=center;verticalAlign=middle;whiteSpace=wrap;rounded=0;" parent="1" vertex="1">
          <mxGeometry x="392" y="40" width="60" height="30" as="geometry" />
        </mxCell>
        <mxCell id="E0PU0g-8N9hY11ySkJEa-26" value="Cloud&#xa;SQL" style="sketch=0;html=1;verticalAlign=top;labelPosition=center;verticalLabelPosition=bottom;align=center;spacingTop=-6;fontSize=11;fontStyle=1;fontColor=#999999;shape=image;aspect=fixed;imageAspect=0;image=data:image/svg+xml,PHN2ZyB4bWxucz0iaHR0cDovL3d3dy53My5vcmcvMjAwMC9zdmciIHhtbG5zOnY9Imh0dHBzOi8vdmVjdGEuaW8vbmFubyIgd2lkdGg9IjE0LjY1OTk5OTg0NzQxMjExIiBoZWlnaHQ9IjIwIiB2aWV3Qm94PSIwIDAgMTQuNjU5OTk5ODQ3NDEyMTEgMjAiPiYjeGE7CTxzdHlsZSB0eXBlPSJ0ZXh0L2NzcyI+JiN4YTsJLnN0MHtmaWxsOiM0Mjg1ZjQ7fSYjeGE7CS5zdDF7ZmlsbDojNjY5ZGY2O30mI3hhOwkuc3Qye2ZpbGw6I2FlY2JmYTt9JiN4YTsJPC9zdHlsZT4mI3hhOwk8c3R5bGU+JiN4YTsJCS5Ee2ZpbGwtcnVsZTpldmVub2RkfSYjeGE7CTwvc3R5bGU+JiN4YTsJPHBhdGggZD0iTTcuMzMgMTUuMzV2LTMuMDFMMCA4LjQ0djMuMDF6bTAgNC42NXYtMy4wMUwwIDEzLjA5djMuMDF6IiBjbGFzcz0ic3QyIEQiLz4mI3hhOwk8cGF0aCBkPSJNMTQuNjYgOC40NGwtNy4zMyAzLjl2My4wMWw3LjMzLTMuOXptMCA0LjY1bC03LjMzIDMuOVYyMGw3LjMzLTMuOXoiIGNsYXNzPSJzdDEgRCIvPiYjeGE7CTxwYXRoIGQ9Ik03LjMzIDB2My4wMWw3LjMzIDMuOVYzLjl6IiBjbGFzcz0ic3QwIEQiLz4mI3hhOwk8cGF0aCBkPSJNMCA2LjkxbDcuMzMtMy45VjBMMCAzLjl6IiBjbGFzcz0iRCBzdDEiLz4mI3hhOwk8cGF0aCBkPSJNNy4zMyAxMC43OVY3Ljc3TDAgMy44N3YzLjAyeiIgY2xhc3M9IkQgc3QyIi8+JiN4YTsJPHBhdGggZD0iTTE0LjY2IDMuODdsLTcuMzMgMy45djMuMDJsNy4zMy0zLjl6IiBjbGFzcz0iRCBzdDEiLz4mI3hhOzwvc3ZnPg==;" parent="1" vertex="1">
          <mxGeometry x="22" y="450" width="24.38" height="32" as="geometry" />
        </mxCell>
        <mxCell id="E0PU0g-8N9hY11ySkJEa-30" value="" style="image;sketch=0;aspect=fixed;html=1;points=[];align=center;fontSize=12;image=img/lib/mscae/Azure_Database_for_PostgreSQL_servers.svg;" parent="1" vertex="1">
          <mxGeometry x="240" y="489.74" width="38" height="50" as="geometry" />
        </mxCell>
        <mxCell id="E0PU0g-8N9hY11ySkJEa-46" value="" style="edgeStyle=orthogonalEdgeStyle;rounded=0;orthogonalLoop=1;jettySize=auto;html=1;" parent="1" source="E0PU0g-8N9hY11ySkJEa-33" target="E0PU0g-8N9hY11ySkJEa-52" edge="1">
          <mxGeometry relative="1" as="geometry">
            <mxPoint x="119.99000000000001" y="492.99703" as="targetPoint" />
            <Array as="points">
              <mxPoint x="119" y="400" />
              <mxPoint x="120" y="470" />
              <mxPoint x="119" y="470" />
            </Array>
          </mxGeometry>
        </mxCell>
        <mxCell id="E0PU0g-8N9hY11ySkJEa-33" value="" style="shape=image;aspect=fixed;image=data:image/png,iVBORw0KGgoAAAANSUhEUgAAAEMAAAA9CAYAAAD24tTCAAAABHNCSVQICAgIfAhkiAAAABl0RVh0U29mdHdhcmUAZ25vbWUtc2NyZWVuc2hvdO8Dvz4AABCQSURBVHic3ZtrjF3XVcd/e5/XvXdmPO+H7XFjjxM7jp06GZMHbgJt2kYRFXmIIkiBoKACaoH2SxpKERVFQOiXKi1IaaqKChACBSkEEZUk0ETBSWnTNE78iBMnfj/GM57xvO/jnLP35sM+59yHrx3fO5N+yJb2jO4956y91jrr8V9r7yuMMUZrjZSS6VnFX313jrlFg+sIDB/cIYBYGXq6BH/62R4Geh1cACMEAEobzl9QXJjXeO4HXxlRbIgiidJWUje9kN7iOQLPAc/hA68MDHiOSD9ZZaTDGIMxOvn//ivDGBCi9Wurt35VXmhQhhDG3qANRq+yMkSif1G1RCHsGkYnzCXfSVFVhEn+mOzD6g2jrbxCNFEGRliLWEXLSIUzWB9VCrRO6BtwXfA9gRDgSIhjKIUGbexzUgocCZ5r79HJc6sxUjkxTdwEARmXK1xQJG83jg1LFYMrYbDPYWTQZe2gy4YRl8E+h/4el8C3AgsBkYJiUXNuOubkRMzJsxFnpmImZ2KiGPKBwHVFxuaKRkokscIGy0i1tTLLkBJiBWGkGRlwuWNbjp1bA7Zt9hkZcKkN2WCIYogijQECT+K69cFiejbm0NEKrx2s8NqhMuemY3xP4jqgdZtMUpU1FdRN+Knhz7ASsxACyhXDmg7Jp+/s4q7buxjut8ssLCn2vV3h1LmIE2cipi4oFpYVldAQRXZNzxN05CVDfQ4b13tctd7j6g0+t+/q4PZdHUzOxDyzZ5Hvv7jMwrIm8MUKLKReVstlFtHMiixDAJXIsHbA4YsP9LPz2jyxMux5dZmX9xY5ciJkYjpmuWRwpI0HUtrnsoBpbFzQ2hArCDxYN+yxeYPPbbsK3DZe4Lfv7eWGbTm++Q8zTEwr/DYxUWYZdQE0tQyTRChtoA3z0xgcAZ+/v5ed1+bZ+2aJf/yPWd46EhJrcKV9892dopoh0vVrR5J2hLCZZmIq4vRExJ6fLLP9Gp8H7rX0P3d/L1/7u/NoXe94V85wImsSQGUdM6bWMlqbYAgrmrFRnxu3FTh2usLffGeKA2+X8VwoBOB7dg0VG5Qy6HTqhpl8r2JL23Mgnzy/760yf/34eY6fCdm5Ncf6YZcw1MAKeK/DGavgJgKItaEjL5BOmpgMUpiE0WTNhOiV0E6TW+1rF8IgMLguGASeC0ZrMLLl2NHoJrJxeZGl1jZmAmKUMmwcDfjy7w0xOuKxvKQolTQqtgBHCKskiRWs2ZSieq9ShlJJs7SkuGqdx5c+O8DosE8Ymgx4mDZ5FjXaboDj7adWk2gaTBIMDePbC3zrz9bz3EsL/HDvMkdOhMzOK4Sw8UBKO0FkL98kVqRSFGyge43DtWMBH9nVwV23r6Gj4Ng3KevfcLuWkT7XAMdJTKbdXGWhvJSCt46Uee1gkXs/2cN9d/Zy3509HD8d8s7xCkdPVzg7GTG3EDO/oFHGZHjBkYKuDklPt8P6IZ+xDT5bxnKMbfABQbGk+Jf/nGF8e4FrNubIBSKpOtvKJyBMlsmaWEYV3bVuGdZqhRAsFTXffWKaH/zfIrvHO7hpRwfXbcmzcTSoW7BY1mhtLUEk8DvnC1y36sFaGw68XeKnB4u89OoSR05W+PrDo1lqTmNR65ZRlfcSytDJbC13W2VoRBLVHQmBJzhxusK7x8s89dwcawdd1g75bB0LWDfk07vGIZ+XBJ4g8CXaGEoVQ6msmVuIOTsZcfhYhVMTIRNTEQtLCtcVBJ7AdWrNXLcFz2ufvUgZQtQGl9YIJ9SxVaBIfF/je5ALJFGsOXqqwjvHK7z44wUACnmJ71krSPsnYWQII0OxpNHa0nIkuK6gsyDRxn5vsNfqA2Lr/GIuVbWS1tS07YK1tNI2QOoCvivAq4ZLraFU1tnbSYs7ISAXCASiroRXyi5gS35Rv247PGfPNKtaTfs4I80mVRBmvzVa2KDchF5a3jeDj1pdYnWT/WkCoFpguOb5etCVcbdyZZC4idaGKNb43qXBUKvMQ9IWiKoutCrKaAq6TCPx1mGtUoZYGa5aH7Bp1GdhMQKqSPRS4KfuLTXOmueXlmKGBlzWD3loY7KAvTK+RRNl1DV3Wptp+6xYUpTLisE+j6/8wSi33tBFFCqWlpXtWaTArBFxcjEiJRE0CjVLSzFRqBnfXuArnx9l7XBQdaUUnbU7mzd3ViubWGyw+ao83/jqJp7/4Rx7XpnnrXdKTM5ExMqiy9p+qH0R9awIAY4rGBnw2LG1wEduWsNHb+mGxA0FosGaWue3an1NsklmPrSZt7Uh8CUHDy/z/Muz/NrdQ9yxu4c7dvewXFQcP1Xi8NEyZ86FXJiPWFpWlENDsagIfEE+Z7HHQK/HuhGfazfn2fyhPIUEgk9MVnjymRl+8ZZutm8tZE3dlmOGqIkZl8wmGHQaQNsMSEJYvPDE09PseWWB8R2d3Dq+hq2b82zf2sn2rZ0XPau1yeqUxnH2XIWXfjLPK68v8NqBZaamQ26+oXPFAVQn8maWUZ89DOikkmsrb1fjhxQWVp+fCXn6f2Z49sVZ+npc1g0HrBv2GBkKGOh16V7j0lGQkLhFOTTMz8dMX4g5N13h5JmQs5MVLsxGRLHB9wS5QCBF6iK07SbCWHlNEptcIQSOY9+G47g1eGEllmERqNIGzxFJejXMzcecnwl59Q1L3/MEnltdP9VnFGkqSU/U9wSeK/E8ie+D0TZjZeuswDLScOA4LkII3FKphNYGRwqKxQijLSLEyPYsgyreQBsUBpmmLgE5X5APZI3yrIDZEBD4glwgESSmnMQik3y2VpSsVZeuW2VXY7SmWCxSLnm4Dz74YJJdYmL6WFC/heN0oZVqeX+vCmJSeHAx8jQ1CLJG/rrrusk9DQQS+a1Lt2MZRhscx2Fhfp6HvvQQLhdwH3nkkSx4nb+g+ctvLTC7ENtd+BbtLm3zCWNNP9YaT8os1V7yuSukL4VFH1GkkwZR7Q5ga8qwG1wxvWs6ePgLDzPYJ3E3bdqU3dDdB47zBkbHiDZ6iiTbhpVQs2WswMd+vpdnXpgmF0h8T2ZYovHFp8mtmuRSjqv7syRKKJcVn/iFfrZuLqBUUnHq1t1EAEZrHMfj6quvpq8bXK11YhmCUqmC1hbN6RY1bYVKeqDa0NXp8ucPjbFtS4Gn/us8p8+W0dq26jxX4rjVVl/j/5SWiiGKbfNHCBge9LnnrnV85r61BIEkjrWtAduwDA1WTq0plUrorgBXSglYZUhkFoxEG5pOm8muK5idi1DK8Jn71nH3nUP8+LV5fvTqHIfeWWJqOmRxKabqOfW2kW4qdXU6rBvJsWWswE03dLP7ph76en1KpZjFZUUh79r6JJut8ZvKKpFIKS+uWtsNSJa23ffwPcmBQ4t849tHueeuYT750QE+fns/H7+9nyhWHD9Z5uTpEpPTIdMzIVGcpEltKOQlA30+A/0+o+tybFifIxdY9FkqKZ594TxPPj3Jg/ePcuvP9aw4tQpjGnbUqpdXnreT6Thw5ESJR79znH99aoIbtq9h1841bNvSycYNOa4Z63hPemGoOD1R5vCRZfYeWOSNAwucPlumWFJ8+peHqyl3hfym49K1SZvEs3RqbA9USjg/XeHp/57kmeen6On26O/16O3xWDuco7vLoaPg4AcO8/MRcWw4PxNyYS5idj5idi5ibj4ijGzN43mCXE5mjedV6Wc0rU1gdSwj+ayVNUPHkXQWHIyBxaWY2bkoO7ByqSEEOI7AkQLPkwQ+GUDTqr6PkdYY7SujmZskQSidrQfQ5H+ykMDW6UabbB/bleD6FiO8N7PJ/5rn055L2g8VyVkoUXX91vitKc8bAqho6GVeOXFjwBEwPVNhcVkxMhRQyDvML8bkAqfteqeGNYQQhJFCAEODvj2+GCoE5j0trTnPiRWLZp0uk+D1Ole58um4MDlVYe++eUbX5Xng10cJfMHiYmhRY7L1WNvJygJM7aztgCX3R6FmcTHE9wS/8xsb2LWzh2Mnixw5tozviYZA2sqsnuS7TKerncLHgqrv/fMJdmzr4jd/dQPXbeniiX8/w97988zOhcSqenAtO6zS4DFaW/iukvjguoLBgYAbr+/nV+5ex40f7mFpKeKbjx9ldi6kkHeSBnFr/Na/gCZuspL+ANi9kUOHl/jy1w7yxd/fzPjOHsZ39nDydJH9b85z8K1Fjh0vMjFZplRShJEmiqwgxlgW8gVJEEhGhnJsvaaT7dd2Mf7hXtaO5AB4fd8cj33vKD99fYF8TiYtQNrsv5C9jfrtxaTLlc52/TsXCPYdXOALf7KPj902wF2fGOaWXX18aLTAp+5cm/ExPVPhwmzI0nKcnb5xXUF/v8/wYIDvOxnNONb878vnefb5KV760QzLRUUukFkB2CqraXsg63Y1KuPitnt7ylDGNm7KZcVT35/guRemGOwP2Lalk+uv62bD+jwjwzn6+3yu2lAgl5OkuT6OFcWSZmKyzNmJMqdOF9n/5gL731zg3FSZcqgzvKEuUwlfyciaUc2UYRq3F1tcy1YXFlrbFoDAdQRaGc6cLXHi1DLP/mCSXM4hn3Po6HDJ5xw8zzaCY2UoleyWwuJSTLGkKJUUWhu7H+tJOvIOjrTnO6I4FabNQ/9p/G56WCURxqR9wTboh6Fm86YCX/3jbew/uMCjj72LEALfFwTJckobFhZj5heiLDylAVBKy5iQVpG5nJMpWWtDHBv+8HNXc/32NfzF1w9x5FgR35ft7Ww0yHnRoVhhkuNDbQRQIUArTT5w2LGth+KyIu2WG21PA2LA8yRdnQ5RqAmj+ixgDPi+7ZuWypoo0nX7K8YYNm/sYMe2HvKBg1ba1rltWHGjnHU4Q6R7CW3nbGtbsTYopamECmqvGUO5ErP75j4ef3Scez61lnI5QimdzXI54p5fWsu3Hx1n9819lCvxRTQqoUIpTZyc2GmX1+pBeit/8+PSOr2xNW0jrOlhTHZuq7bZKyXo2NDX6zG2sZOR4VxWZ6SNH60MI8M5xjZ20tfroWODCOx1g6WXolFWgVdTYxnNQVdbmyYZEYQxCZiq3zO0DFur0dpYF6BaRqfXo2SXXan66xl9kYC1VeD18qBrJa33RCKtDeWyIgwttJd1sujEcuq7TdlaxlSPTxuT3J9sMmGxQRjaXqiuO/bYuiqyF98MdF3sf60St/ji1JllfvePXmF5SSEbSmuTuVB6OK1+LVNjVfX9CntdYvjbxw7z9//kcOrMMl5Sl7QzLlvCm1UCXcWS4o39c0gh8DyRmWFaEVdCRbEUUy7bbJNuDKXXy2V7vVKpv56Oo8eX0MbgedL+sKdNRqv9l6YIVCDMys51GQwSQc6v7pql1I2BwHfY89IU7767yPRMBc+VGF09GuK5kn978iQvvDjJxLkSge9k11OGfE9k9FLQ1dYwIIzInr/M0UfatozmXSf7hRRwYbbC1FQZx7W/KsJUgY8QcG6yxJkzRVzPAq/a7pnl0zRQbtcyqrJCozJEzd7mCtzk8gzY36K5OZm5ReNwXZHt6Gltmh6AWx1ekkKtGc6obYWt6NT0e3JRVUImp6lG9TpL4f3ho07W5Ds35QMAbdAZGmzfTdpiTgj7U4mf2XpYvKN0utOd/OJZGMCmMt+rzp+FMtL0GSuF5zrZ5/d/XcCI5Gek1jb+H7aBxC8Ap7YOAAAAAElFTkSuQmCC;" parent="1" vertex="1">
          <mxGeometry x="103.08000000000001" y="331" width="31.85" height="29" as="geometry" />
        </mxCell>
        <mxCell id="E0PU0g-8N9hY11ySkJEa-48" value="" style="edgeStyle=orthogonalEdgeStyle;rounded=0;orthogonalLoop=1;jettySize=auto;html=1;entryX=0.526;entryY=0.065;entryDx=0;entryDy=0;entryPerimeter=0;" parent="1" source="E0PU0g-8N9hY11ySkJEa-34" target="E0PU0g-8N9hY11ySkJEa-30" edge="1">
          <mxGeometry relative="1" as="geometry" />
        </mxCell>
        <mxCell id="E0PU0g-8N9hY11ySkJEa-34" value="" style="shape=image;aspect=fixed;image=data:image/png,iVBORw0KGgoAAAANSUhEUgAAAEMAAAA9CAYAAAD24tTCAAAABHNCSVQICAgIfAhkiAAAABl0RVh0U29mdHdhcmUAZ25vbWUtc2NyZWVuc2hvdO8Dvz4AABCQSURBVHic3ZtrjF3XVcd/e5/XvXdmPO+H7XFjjxM7jp06GZMHbgJt2kYRFXmIIkiBoKACaoH2SxpKERVFQOiXKi1IaaqKChACBSkEEZUk0ETBSWnTNE78iBMnfj/GM57xvO/jnLP35sM+59yHrx3fO5N+yJb2jO4956y91jrr8V9r7yuMMUZrjZSS6VnFX313jrlFg+sIDB/cIYBYGXq6BH/62R4Geh1cACMEAEobzl9QXJjXeO4HXxlRbIgiidJWUje9kN7iOQLPAc/hA68MDHiOSD9ZZaTDGIMxOvn//ivDGBCi9Wurt35VXmhQhhDG3qANRq+yMkSif1G1RCHsGkYnzCXfSVFVhEn+mOzD6g2jrbxCNFEGRliLWEXLSIUzWB9VCrRO6BtwXfA9gRDgSIhjKIUGbexzUgocCZ5r79HJc6sxUjkxTdwEARmXK1xQJG83jg1LFYMrYbDPYWTQZe2gy4YRl8E+h/4el8C3AgsBkYJiUXNuOubkRMzJsxFnpmImZ2KiGPKBwHVFxuaKRkokscIGy0i1tTLLkBJiBWGkGRlwuWNbjp1bA7Zt9hkZcKkN2WCIYogijQECT+K69cFiejbm0NEKrx2s8NqhMuemY3xP4jqgdZtMUpU1FdRN+Knhz7ASsxACyhXDmg7Jp+/s4q7buxjut8ssLCn2vV3h1LmIE2cipi4oFpYVldAQRXZNzxN05CVDfQ4b13tctd7j6g0+t+/q4PZdHUzOxDyzZ5Hvv7jMwrIm8MUKLKReVstlFtHMiixDAJXIsHbA4YsP9LPz2jyxMux5dZmX9xY5ciJkYjpmuWRwpI0HUtrnsoBpbFzQ2hArCDxYN+yxeYPPbbsK3DZe4Lfv7eWGbTm++Q8zTEwr/DYxUWYZdQE0tQyTRChtoA3z0xgcAZ+/v5ed1+bZ+2aJf/yPWd46EhJrcKV9892dopoh0vVrR5J2hLCZZmIq4vRExJ6fLLP9Gp8H7rX0P3d/L1/7u/NoXe94V85wImsSQGUdM6bWMlqbYAgrmrFRnxu3FTh2usLffGeKA2+X8VwoBOB7dg0VG5Qy6HTqhpl8r2JL23Mgnzy/760yf/34eY6fCdm5Ncf6YZcw1MAKeK/DGavgJgKItaEjL5BOmpgMUpiE0WTNhOiV0E6TW+1rF8IgMLguGASeC0ZrMLLl2NHoJrJxeZGl1jZmAmKUMmwcDfjy7w0xOuKxvKQolTQqtgBHCKskiRWs2ZSieq9ShlJJs7SkuGqdx5c+O8DosE8Ymgx4mDZ5FjXaboDj7adWk2gaTBIMDePbC3zrz9bz3EsL/HDvMkdOhMzOK4Sw8UBKO0FkL98kVqRSFGyge43DtWMBH9nVwV23r6Gj4Ng3KevfcLuWkT7XAMdJTKbdXGWhvJSCt46Uee1gkXs/2cN9d/Zy3509HD8d8s7xCkdPVzg7GTG3EDO/oFHGZHjBkYKuDklPt8P6IZ+xDT5bxnKMbfABQbGk+Jf/nGF8e4FrNubIBSKpOtvKJyBMlsmaWEYV3bVuGdZqhRAsFTXffWKaH/zfIrvHO7hpRwfXbcmzcTSoW7BY1mhtLUEk8DvnC1y36sFaGw68XeKnB4u89OoSR05W+PrDo1lqTmNR65ZRlfcSytDJbC13W2VoRBLVHQmBJzhxusK7x8s89dwcawdd1g75bB0LWDfk07vGIZ+XBJ4g8CXaGEoVQ6msmVuIOTsZcfhYhVMTIRNTEQtLCtcVBJ7AdWrNXLcFz2ufvUgZQtQGl9YIJ9SxVaBIfF/je5ALJFGsOXqqwjvHK7z44wUACnmJ71krSPsnYWQII0OxpNHa0nIkuK6gsyDRxn5vsNfqA2Lr/GIuVbWS1tS07YK1tNI2QOoCvivAq4ZLraFU1tnbSYs7ISAXCASiroRXyi5gS35Rv247PGfPNKtaTfs4I80mVRBmvzVa2KDchF5a3jeDj1pdYnWT/WkCoFpguOb5etCVcbdyZZC4idaGKNb43qXBUKvMQ9IWiKoutCrKaAq6TCPx1mGtUoZYGa5aH7Bp1GdhMQKqSPRS4KfuLTXOmueXlmKGBlzWD3loY7KAvTK+RRNl1DV3Wptp+6xYUpTLisE+j6/8wSi33tBFFCqWlpXtWaTArBFxcjEiJRE0CjVLSzFRqBnfXuArnx9l7XBQdaUUnbU7mzd3ViubWGyw+ao83/jqJp7/4Rx7XpnnrXdKTM5ExMqiy9p+qH0R9awIAY4rGBnw2LG1wEduWsNHb+mGxA0FosGaWue3an1NsklmPrSZt7Uh8CUHDy/z/Muz/NrdQ9yxu4c7dvewXFQcP1Xi8NEyZ86FXJiPWFpWlENDsagIfEE+Z7HHQK/HuhGfazfn2fyhPIUEgk9MVnjymRl+8ZZutm8tZE3dlmOGqIkZl8wmGHQaQNsMSEJYvPDE09PseWWB8R2d3Dq+hq2b82zf2sn2rZ0XPau1yeqUxnH2XIWXfjLPK68v8NqBZaamQ26+oXPFAVQn8maWUZ89DOikkmsrb1fjhxQWVp+fCXn6f2Z49sVZ+npc1g0HrBv2GBkKGOh16V7j0lGQkLhFOTTMz8dMX4g5N13h5JmQs5MVLsxGRLHB9wS5QCBF6iK07SbCWHlNEptcIQSOY9+G47g1eGEllmERqNIGzxFJejXMzcecnwl59Q1L3/MEnltdP9VnFGkqSU/U9wSeK/E8ie+D0TZjZeuswDLScOA4LkII3FKphNYGRwqKxQijLSLEyPYsgyreQBsUBpmmLgE5X5APZI3yrIDZEBD4glwgESSmnMQik3y2VpSsVZeuW2VXY7SmWCxSLnm4Dz74YJJdYmL6WFC/heN0oZVqeX+vCmJSeHAx8jQ1CLJG/rrrusk9DQQS+a1Lt2MZRhscx2Fhfp6HvvQQLhdwH3nkkSx4nb+g+ctvLTC7ENtd+BbtLm3zCWNNP9YaT8os1V7yuSukL4VFH1GkkwZR7Q5ga8qwG1wxvWs6ePgLDzPYJ3E3bdqU3dDdB47zBkbHiDZ6iiTbhpVQs2WswMd+vpdnXpgmF0h8T2ZYovHFp8mtmuRSjqv7syRKKJcVn/iFfrZuLqBUUnHq1t1EAEZrHMfj6quvpq8bXK11YhmCUqmC1hbN6RY1bYVKeqDa0NXp8ucPjbFtS4Gn/us8p8+W0dq26jxX4rjVVl/j/5SWiiGKbfNHCBge9LnnrnV85r61BIEkjrWtAduwDA1WTq0plUrorgBXSglYZUhkFoxEG5pOm8muK5idi1DK8Jn71nH3nUP8+LV5fvTqHIfeWWJqOmRxKabqOfW2kW4qdXU6rBvJsWWswE03dLP7ph76en1KpZjFZUUh79r6JJut8ZvKKpFIKS+uWtsNSJa23ffwPcmBQ4t849tHueeuYT750QE+fns/H7+9nyhWHD9Z5uTpEpPTIdMzIVGcpEltKOQlA30+A/0+o+tybFifIxdY9FkqKZ594TxPPj3Jg/ePcuvP9aw4tQpjGnbUqpdXnreT6Thw5ESJR79znH99aoIbtq9h1841bNvSycYNOa4Z63hPemGoOD1R5vCRZfYeWOSNAwucPlumWFJ8+peHqyl3hfym49K1SZvEs3RqbA9USjg/XeHp/57kmeen6On26O/16O3xWDuco7vLoaPg4AcO8/MRcWw4PxNyYS5idj5idi5ibj4ijGzN43mCXE5mjedV6Wc0rU1gdSwj+ayVNUPHkXQWHIyBxaWY2bkoO7ByqSEEOI7AkQLPkwQ+GUDTqr6PkdYY7SujmZskQSidrQfQ5H+ykMDW6UabbB/bleD6FiO8N7PJ/5rn055L2g8VyVkoUXX91vitKc8bAqho6GVeOXFjwBEwPVNhcVkxMhRQyDvML8bkAqfteqeGNYQQhJFCAEODvj2+GCoE5j0trTnPiRWLZp0uk+D1Ole58um4MDlVYe++eUbX5Xng10cJfMHiYmhRY7L1WNvJygJM7aztgCX3R6FmcTHE9wS/8xsb2LWzh2Mnixw5tozviYZA2sqsnuS7TKerncLHgqrv/fMJdmzr4jd/dQPXbeniiX8/w97988zOhcSqenAtO6zS4DFaW/iukvjguoLBgYAbr+/nV+5ex40f7mFpKeKbjx9ldi6kkHeSBnFr/Na/gCZuspL+ANi9kUOHl/jy1w7yxd/fzPjOHsZ39nDydJH9b85z8K1Fjh0vMjFZplRShJEmiqwgxlgW8gVJEEhGhnJsvaaT7dd2Mf7hXtaO5AB4fd8cj33vKD99fYF8TiYtQNrsv5C9jfrtxaTLlc52/TsXCPYdXOALf7KPj902wF2fGOaWXX18aLTAp+5cm/ExPVPhwmzI0nKcnb5xXUF/v8/wYIDvOxnNONb878vnefb5KV760QzLRUUukFkB2CqraXsg63Y1KuPitnt7ylDGNm7KZcVT35/guRemGOwP2Lalk+uv62bD+jwjwzn6+3yu2lAgl5OkuT6OFcWSZmKyzNmJMqdOF9n/5gL731zg3FSZcqgzvKEuUwlfyciaUc2UYRq3F1tcy1YXFlrbFoDAdQRaGc6cLXHi1DLP/mCSXM4hn3Po6HDJ5xw8zzaCY2UoleyWwuJSTLGkKJUUWhu7H+tJOvIOjrTnO6I4FabNQ/9p/G56WCURxqR9wTboh6Fm86YCX/3jbew/uMCjj72LEALfFwTJckobFhZj5heiLDylAVBKy5iQVpG5nJMpWWtDHBv+8HNXc/32NfzF1w9x5FgR35ft7Ww0yHnRoVhhkuNDbQRQIUArTT5w2LGth+KyIu2WG21PA2LA8yRdnQ5RqAmj+ixgDPi+7ZuWypoo0nX7K8YYNm/sYMe2HvKBg1ba1rltWHGjnHU4Q6R7CW3nbGtbsTYopamECmqvGUO5ErP75j4ef3Scez61lnI5QimdzXI54p5fWsu3Hx1n9819lCvxRTQqoUIpTZyc2GmX1+pBeit/8+PSOr2xNW0jrOlhTHZuq7bZKyXo2NDX6zG2sZOR4VxWZ6SNH60MI8M5xjZ20tfroWODCOx1g6WXolFWgVdTYxnNQVdbmyYZEYQxCZiq3zO0DFur0dpYF6BaRqfXo2SXXan66xl9kYC1VeD18qBrJa33RCKtDeWyIgwttJd1sujEcuq7TdlaxlSPTxuT3J9sMmGxQRjaXqiuO/bYuiqyF98MdF3sf60St/ji1JllfvePXmF5SSEbSmuTuVB6OK1+LVNjVfX9CntdYvjbxw7z9//kcOrMMl5Sl7QzLlvCm1UCXcWS4o39c0gh8DyRmWFaEVdCRbEUUy7bbJNuDKXXy2V7vVKpv56Oo8eX0MbgedL+sKdNRqv9l6YIVCDMys51GQwSQc6v7pql1I2BwHfY89IU7767yPRMBc+VGF09GuK5kn978iQvvDjJxLkSge9k11OGfE9k9FLQ1dYwIIzInr/M0UfatozmXSf7hRRwYbbC1FQZx7W/KsJUgY8QcG6yxJkzRVzPAq/a7pnl0zRQbtcyqrJCozJEzd7mCtzk8gzY36K5OZm5ReNwXZHt6Gltmh6AWx1ekkKtGc6obYWt6NT0e3JRVUImp6lG9TpL4f3ho07W5Ds35QMAbdAZGmzfTdpiTgj7U4mf2XpYvKN0utOd/OJZGMCmMt+rzp+FMtL0GSuF5zrZ5/d/XcCI5Gek1jb+H7aBxC8Ap7YOAAAAAElFTkSuQmCC;" parent="1" vertex="1">
          <mxGeometry x="243.08" y="331" width="31.85" height="29" as="geometry" />
        </mxCell>
        <mxCell id="E0PU0g-8N9hY11ySkJEa-49" value="" style="edgeStyle=orthogonalEdgeStyle;rounded=0;orthogonalLoop=1;jettySize=auto;html=1;" parent="1" source="E0PU0g-8N9hY11ySkJEa-35" target="E0PU0g-8N9hY11ySkJEa-53" edge="1">
          <mxGeometry relative="1" as="geometry">
            <mxPoint x="418.99" y="498.00972" as="targetPoint" />
          </mxGeometry>
        </mxCell>
        <mxCell id="E0PU0g-8N9hY11ySkJEa-35" value="" style="shape=image;aspect=fixed;image=data:image/png,iVBORw0KGgoAAAANSUhEUgAAAEMAAAA9CAYAAAD24tTCAAAABHNCSVQICAgIfAhkiAAAABl0RVh0U29mdHdhcmUAZ25vbWUtc2NyZWVuc2hvdO8Dvz4AABCQSURBVHic3ZtrjF3XVcd/e5/XvXdmPO+H7XFjjxM7jp06GZMHbgJt2kYRFXmIIkiBoKACaoH2SxpKERVFQOiXKi1IaaqKChACBSkEEZUk0ETBSWnTNE78iBMnfj/GM57xvO/jnLP35sM+59yHrx3fO5N+yJb2jO4956y91jrr8V9r7yuMMUZrjZSS6VnFX313jrlFg+sIDB/cIYBYGXq6BH/62R4Geh1cACMEAEobzl9QXJjXeO4HXxlRbIgiidJWUje9kN7iOQLPAc/hA68MDHiOSD9ZZaTDGIMxOvn//ivDGBCi9Wurt35VXmhQhhDG3qANRq+yMkSif1G1RCHsGkYnzCXfSVFVhEn+mOzD6g2jrbxCNFEGRliLWEXLSIUzWB9VCrRO6BtwXfA9gRDgSIhjKIUGbexzUgocCZ5r79HJc6sxUjkxTdwEARmXK1xQJG83jg1LFYMrYbDPYWTQZe2gy4YRl8E+h/4el8C3AgsBkYJiUXNuOubkRMzJsxFnpmImZ2KiGPKBwHVFxuaKRkokscIGy0i1tTLLkBJiBWGkGRlwuWNbjp1bA7Zt9hkZcKkN2WCIYogijQECT+K69cFiejbm0NEKrx2s8NqhMuemY3xP4jqgdZtMUpU1FdRN+Knhz7ASsxACyhXDmg7Jp+/s4q7buxjut8ssLCn2vV3h1LmIE2cipi4oFpYVldAQRXZNzxN05CVDfQ4b13tctd7j6g0+t+/q4PZdHUzOxDyzZ5Hvv7jMwrIm8MUKLKReVstlFtHMiixDAJXIsHbA4YsP9LPz2jyxMux5dZmX9xY5ciJkYjpmuWRwpI0HUtrnsoBpbFzQ2hArCDxYN+yxeYPPbbsK3DZe4Lfv7eWGbTm++Q8zTEwr/DYxUWYZdQE0tQyTRChtoA3z0xgcAZ+/v5ed1+bZ+2aJf/yPWd46EhJrcKV9892dopoh0vVrR5J2hLCZZmIq4vRExJ6fLLP9Gp8H7rX0P3d/L1/7u/NoXe94V85wImsSQGUdM6bWMlqbYAgrmrFRnxu3FTh2usLffGeKA2+X8VwoBOB7dg0VG5Qy6HTqhpl8r2JL23Mgnzy/760yf/34eY6fCdm5Ncf6YZcw1MAKeK/DGavgJgKItaEjL5BOmpgMUpiE0WTNhOiV0E6TW+1rF8IgMLguGASeC0ZrMLLl2NHoJrJxeZGl1jZmAmKUMmwcDfjy7w0xOuKxvKQolTQqtgBHCKskiRWs2ZSieq9ShlJJs7SkuGqdx5c+O8DosE8Ymgx4mDZ5FjXaboDj7adWk2gaTBIMDePbC3zrz9bz3EsL/HDvMkdOhMzOK4Sw8UBKO0FkL98kVqRSFGyge43DtWMBH9nVwV23r6Gj4Ng3KevfcLuWkT7XAMdJTKbdXGWhvJSCt46Uee1gkXs/2cN9d/Zy3509HD8d8s7xCkdPVzg7GTG3EDO/oFHGZHjBkYKuDklPt8P6IZ+xDT5bxnKMbfABQbGk+Jf/nGF8e4FrNubIBSKpOtvKJyBMlsmaWEYV3bVuGdZqhRAsFTXffWKaH/zfIrvHO7hpRwfXbcmzcTSoW7BY1mhtLUEk8DvnC1y36sFaGw68XeKnB4u89OoSR05W+PrDo1lqTmNR65ZRlfcSytDJbC13W2VoRBLVHQmBJzhxusK7x8s89dwcawdd1g75bB0LWDfk07vGIZ+XBJ4g8CXaGEoVQ6msmVuIOTsZcfhYhVMTIRNTEQtLCtcVBJ7AdWrNXLcFz2ufvUgZQtQGl9YIJ9SxVaBIfF/je5ALJFGsOXqqwjvHK7z44wUACnmJ71krSPsnYWQII0OxpNHa0nIkuK6gsyDRxn5vsNfqA2Lr/GIuVbWS1tS07YK1tNI2QOoCvivAq4ZLraFU1tnbSYs7ISAXCASiroRXyi5gS35Rv247PGfPNKtaTfs4I80mVRBmvzVa2KDchF5a3jeDj1pdYnWT/WkCoFpguOb5etCVcbdyZZC4idaGKNb43qXBUKvMQ9IWiKoutCrKaAq6TCPx1mGtUoZYGa5aH7Bp1GdhMQKqSPRS4KfuLTXOmueXlmKGBlzWD3loY7KAvTK+RRNl1DV3Wptp+6xYUpTLisE+j6/8wSi33tBFFCqWlpXtWaTArBFxcjEiJRE0CjVLSzFRqBnfXuArnx9l7XBQdaUUnbU7mzd3ViubWGyw+ao83/jqJp7/4Rx7XpnnrXdKTM5ExMqiy9p+qH0R9awIAY4rGBnw2LG1wEduWsNHb+mGxA0FosGaWue3an1NsklmPrSZt7Uh8CUHDy/z/Muz/NrdQ9yxu4c7dvewXFQcP1Xi8NEyZ86FXJiPWFpWlENDsagIfEE+Z7HHQK/HuhGfazfn2fyhPIUEgk9MVnjymRl+8ZZutm8tZE3dlmOGqIkZl8wmGHQaQNsMSEJYvPDE09PseWWB8R2d3Dq+hq2b82zf2sn2rZ0XPau1yeqUxnH2XIWXfjLPK68v8NqBZaamQ26+oXPFAVQn8maWUZ89DOikkmsrb1fjhxQWVp+fCXn6f2Z49sVZ+npc1g0HrBv2GBkKGOh16V7j0lGQkLhFOTTMz8dMX4g5N13h5JmQs5MVLsxGRLHB9wS5QCBF6iK07SbCWHlNEptcIQSOY9+G47g1eGEllmERqNIGzxFJejXMzcecnwl59Q1L3/MEnltdP9VnFGkqSU/U9wSeK/E8ie+D0TZjZeuswDLScOA4LkII3FKphNYGRwqKxQijLSLEyPYsgyreQBsUBpmmLgE5X5APZI3yrIDZEBD4glwgESSmnMQik3y2VpSsVZeuW2VXY7SmWCxSLnm4Dz74YJJdYmL6WFC/heN0oZVqeX+vCmJSeHAx8jQ1CLJG/rrrusk9DQQS+a1Lt2MZRhscx2Fhfp6HvvQQLhdwH3nkkSx4nb+g+ctvLTC7ENtd+BbtLm3zCWNNP9YaT8os1V7yuSukL4VFH1GkkwZR7Q5ga8qwG1wxvWs6ePgLDzPYJ3E3bdqU3dDdB47zBkbHiDZ6iiTbhpVQs2WswMd+vpdnXpgmF0h8T2ZYovHFp8mtmuRSjqv7syRKKJcVn/iFfrZuLqBUUnHq1t1EAEZrHMfj6quvpq8bXK11YhmCUqmC1hbN6RY1bYVKeqDa0NXp8ucPjbFtS4Gn/us8p8+W0dq26jxX4rjVVl/j/5SWiiGKbfNHCBge9LnnrnV85r61BIEkjrWtAduwDA1WTq0plUrorgBXSglYZUhkFoxEG5pOm8muK5idi1DK8Jn71nH3nUP8+LV5fvTqHIfeWWJqOmRxKabqOfW2kW4qdXU6rBvJsWWswE03dLP7ph76en1KpZjFZUUh79r6JJut8ZvKKpFIKS+uWtsNSJa23ffwPcmBQ4t849tHueeuYT750QE+fns/H7+9nyhWHD9Z5uTpEpPTIdMzIVGcpEltKOQlA30+A/0+o+tybFifIxdY9FkqKZ594TxPPj3Jg/ePcuvP9aw4tQpjGnbUqpdXnreT6Thw5ESJR79znH99aoIbtq9h1841bNvSycYNOa4Z63hPemGoOD1R5vCRZfYeWOSNAwucPlumWFJ8+peHqyl3hfym49K1SZvEs3RqbA9USjg/XeHp/57kmeen6On26O/16O3xWDuco7vLoaPg4AcO8/MRcWw4PxNyYS5idj5idi5ibj4ijGzN43mCXE5mjedV6Wc0rU1gdSwj+ayVNUPHkXQWHIyBxaWY2bkoO7ByqSEEOI7AkQLPkwQ+GUDTqr6PkdYY7SujmZskQSidrQfQ5H+ykMDW6UabbB/bleD6FiO8N7PJ/5rn055L2g8VyVkoUXX91vitKc8bAqho6GVeOXFjwBEwPVNhcVkxMhRQyDvML8bkAqfteqeGNYQQhJFCAEODvj2+GCoE5j0trTnPiRWLZp0uk+D1Ole58um4MDlVYe++eUbX5Xng10cJfMHiYmhRY7L1WNvJygJM7aztgCX3R6FmcTHE9wS/8xsb2LWzh2Mnixw5tozviYZA2sqsnuS7TKerncLHgqrv/fMJdmzr4jd/dQPXbeniiX8/w97988zOhcSqenAtO6zS4DFaW/iukvjguoLBgYAbr+/nV+5ex40f7mFpKeKbjx9ldi6kkHeSBnFr/Na/gCZuspL+ANi9kUOHl/jy1w7yxd/fzPjOHsZ39nDydJH9b85z8K1Fjh0vMjFZplRShJEmiqwgxlgW8gVJEEhGhnJsvaaT7dd2Mf7hXtaO5AB4fd8cj33vKD99fYF8TiYtQNrsv5C9jfrtxaTLlc52/TsXCPYdXOALf7KPj902wF2fGOaWXX18aLTAp+5cm/ExPVPhwmzI0nKcnb5xXUF/v8/wYIDvOxnNONb878vnefb5KV760QzLRUUukFkB2CqraXsg63Y1KuPitnt7ylDGNm7KZcVT35/guRemGOwP2Lalk+uv62bD+jwjwzn6+3yu2lAgl5OkuT6OFcWSZmKyzNmJMqdOF9n/5gL731zg3FSZcqgzvKEuUwlfyciaUc2UYRq3F1tcy1YXFlrbFoDAdQRaGc6cLXHi1DLP/mCSXM4hn3Po6HDJ5xw8zzaCY2UoleyWwuJSTLGkKJUUWhu7H+tJOvIOjrTnO6I4FabNQ/9p/G56WCURxqR9wTboh6Fm86YCX/3jbew/uMCjj72LEALfFwTJckobFhZj5heiLDylAVBKy5iQVpG5nJMpWWtDHBv+8HNXc/32NfzF1w9x5FgR35ft7Ww0yHnRoVhhkuNDbQRQIUArTT5w2LGth+KyIu2WG21PA2LA8yRdnQ5RqAmj+ixgDPi+7ZuWypoo0nX7K8YYNm/sYMe2HvKBg1ba1rltWHGjnHU4Q6R7CW3nbGtbsTYopamECmqvGUO5ErP75j4ef3Scez61lnI5QimdzXI54p5fWsu3Hx1n9819lCvxRTQqoUIpTZyc2GmX1+pBeit/8+PSOr2xNW0jrOlhTHZuq7bZKyXo2NDX6zG2sZOR4VxWZ6SNH60MI8M5xjZ20tfroWODCOx1g6WXolFWgVdTYxnNQVdbmyYZEYQxCZiq3zO0DFur0dpYF6BaRqfXo2SXXan66xl9kYC1VeD18qBrJa33RCKtDeWyIgwttJd1sujEcuq7TdlaxlSPTxuT3J9sMmGxQRjaXqiuO/bYuiqyF98MdF3sf60St/ji1JllfvePXmF5SSEbSmuTuVB6OK1+LVNjVfX9CntdYvjbxw7z9//kcOrMMl5Sl7QzLlvCm1UCXcWS4o39c0gh8DyRmWFaEVdCRbEUUy7bbJNuDKXXy2V7vVKpv56Oo8eX0MbgedL+sKdNRqv9l6YIVCDMys51GQwSQc6v7pql1I2BwHfY89IU7767yPRMBc+VGF09GuK5kn978iQvvDjJxLkSge9k11OGfE9k9FLQ1dYwIIzInr/M0UfatozmXSf7hRRwYbbC1FQZx7W/KsJUgY8QcG6yxJkzRVzPAq/a7pnl0zRQbtcyqrJCozJEzd7mCtzk8gzY36K5OZm5ReNwXZHt6Gltmh6AWx1ekkKtGc6obYWt6NT0e3JRVUImp6lG9TpL4f3ho07W5Ds35QMAbdAZGmzfTdpiTgj7U4mf2XpYvKN0utOd/OJZGMCmMt+rzp+FMtL0GSuF5zrZ5/d/XcCI5Gek1jb+H7aBxC8Ap7YOAAAAAElFTkSuQmCC;" parent="1" vertex="1">
          <mxGeometry x="402.08000000000004" y="331" width="31.85" height="29" as="geometry" />
        </mxCell>
        <mxCell id="E0PU0g-8N9hY11ySkJEa-50" value="" style="edgeStyle=orthogonalEdgeStyle;rounded=0;orthogonalLoop=1;jettySize=auto;html=1;" parent="1" source="E0PU0g-8N9hY11ySkJEa-36" target="E0PU0g-8N9hY11ySkJEa-54" edge="1">
          <mxGeometry relative="1" as="geometry">
            <mxPoint x="640.0100000000002" y="496.98350000000005" as="targetPoint" />
          </mxGeometry>
        </mxCell>
        <mxCell id="E0PU0g-8N9hY11ySkJEa-36" value="" style="shape=image;aspect=fixed;image=data:image/png,iVBORw0KGgoAAAANSUhEUgAAAEMAAAA9CAYAAAD24tTCAAAABHNCSVQICAgIfAhkiAAAABl0RVh0U29mdHdhcmUAZ25vbWUtc2NyZWVuc2hvdO8Dvz4AABCQSURBVHic3ZtrjF3XVcd/e5/XvXdmPO+H7XFjjxM7jp06GZMHbgJt2kYRFXmIIkiBoKACaoH2SxpKERVFQOiXKi1IaaqKChACBSkEEZUk0ETBSWnTNE78iBMnfj/GM57xvO/jnLP35sM+59yHrx3fO5N+yJb2jO4956y91jrr8V9r7yuMMUZrjZSS6VnFX313jrlFg+sIDB/cIYBYGXq6BH/62R4Geh1cACMEAEobzl9QXJjXeO4HXxlRbIgiidJWUje9kN7iOQLPAc/hA68MDHiOSD9ZZaTDGIMxOvn//ivDGBCi9Wurt35VXmhQhhDG3qANRq+yMkSif1G1RCHsGkYnzCXfSVFVhEn+mOzD6g2jrbxCNFEGRliLWEXLSIUzWB9VCrRO6BtwXfA9gRDgSIhjKIUGbexzUgocCZ5r79HJc6sxUjkxTdwEARmXK1xQJG83jg1LFYMrYbDPYWTQZe2gy4YRl8E+h/4el8C3AgsBkYJiUXNuOubkRMzJsxFnpmImZ2KiGPKBwHVFxuaKRkokscIGy0i1tTLLkBJiBWGkGRlwuWNbjp1bA7Zt9hkZcKkN2WCIYogijQECT+K69cFiejbm0NEKrx2s8NqhMuemY3xP4jqgdZtMUpU1FdRN+Knhz7ASsxACyhXDmg7Jp+/s4q7buxjut8ssLCn2vV3h1LmIE2cipi4oFpYVldAQRXZNzxN05CVDfQ4b13tctd7j6g0+t+/q4PZdHUzOxDyzZ5Hvv7jMwrIm8MUKLKReVstlFtHMiixDAJXIsHbA4YsP9LPz2jyxMux5dZmX9xY5ciJkYjpmuWRwpI0HUtrnsoBpbFzQ2hArCDxYN+yxeYPPbbsK3DZe4Lfv7eWGbTm++Q8zTEwr/DYxUWYZdQE0tQyTRChtoA3z0xgcAZ+/v5ed1+bZ+2aJf/yPWd46EhJrcKV9892dopoh0vVrR5J2hLCZZmIq4vRExJ6fLLP9Gp8H7rX0P3d/L1/7u/NoXe94V85wImsSQGUdM6bWMlqbYAgrmrFRnxu3FTh2usLffGeKA2+X8VwoBOB7dg0VG5Qy6HTqhpl8r2JL23Mgnzy/760yf/34eY6fCdm5Ncf6YZcw1MAKeK/DGavgJgKItaEjL5BOmpgMUpiE0WTNhOiV0E6TW+1rF8IgMLguGASeC0ZrMLLl2NHoJrJxeZGl1jZmAmKUMmwcDfjy7w0xOuKxvKQolTQqtgBHCKskiRWs2ZSieq9ShlJJs7SkuGqdx5c+O8DosE8Ymgx4mDZ5FjXaboDj7adWk2gaTBIMDePbC3zrz9bz3EsL/HDvMkdOhMzOK4Sw8UBKO0FkL98kVqRSFGyge43DtWMBH9nVwV23r6Gj4Ng3KevfcLuWkT7XAMdJTKbdXGWhvJSCt46Uee1gkXs/2cN9d/Zy3509HD8d8s7xCkdPVzg7GTG3EDO/oFHGZHjBkYKuDklPt8P6IZ+xDT5bxnKMbfABQbGk+Jf/nGF8e4FrNubIBSKpOtvKJyBMlsmaWEYV3bVuGdZqhRAsFTXffWKaH/zfIrvHO7hpRwfXbcmzcTSoW7BY1mhtLUEk8DvnC1y36sFaGw68XeKnB4u89OoSR05W+PrDo1lqTmNR65ZRlfcSytDJbC13W2VoRBLVHQmBJzhxusK7x8s89dwcawdd1g75bB0LWDfk07vGIZ+XBJ4g8CXaGEoVQ6msmVuIOTsZcfhYhVMTIRNTEQtLCtcVBJ7AdWrNXLcFz2ufvUgZQtQGl9YIJ9SxVaBIfF/je5ALJFGsOXqqwjvHK7z44wUACnmJ71krSPsnYWQII0OxpNHa0nIkuK6gsyDRxn5vsNfqA2Lr/GIuVbWS1tS07YK1tNI2QOoCvivAq4ZLraFU1tnbSYs7ISAXCASiroRXyi5gS35Rv247PGfPNKtaTfs4I80mVRBmvzVa2KDchF5a3jeDj1pdYnWT/WkCoFpguOb5etCVcbdyZZC4idaGKNb43qXBUKvMQ9IWiKoutCrKaAq6TCPx1mGtUoZYGa5aH7Bp1GdhMQKqSPRS4KfuLTXOmueXlmKGBlzWD3loY7KAvTK+RRNl1DV3Wptp+6xYUpTLisE+j6/8wSi33tBFFCqWlpXtWaTArBFxcjEiJRE0CjVLSzFRqBnfXuArnx9l7XBQdaUUnbU7mzd3ViubWGyw+ao83/jqJp7/4Rx7XpnnrXdKTM5ExMqiy9p+qH0R9awIAY4rGBnw2LG1wEduWsNHb+mGxA0FosGaWue3an1NsklmPrSZt7Uh8CUHDy/z/Muz/NrdQ9yxu4c7dvewXFQcP1Xi8NEyZ86FXJiPWFpWlENDsagIfEE+Z7HHQK/HuhGfazfn2fyhPIUEgk9MVnjymRl+8ZZutm8tZE3dlmOGqIkZl8wmGHQaQNsMSEJYvPDE09PseWWB8R2d3Dq+hq2b82zf2sn2rZ0XPau1yeqUxnH2XIWXfjLPK68v8NqBZaamQ26+oXPFAVQn8maWUZ89DOikkmsrb1fjhxQWVp+fCXn6f2Z49sVZ+npc1g0HrBv2GBkKGOh16V7j0lGQkLhFOTTMz8dMX4g5N13h5JmQs5MVLsxGRLHB9wS5QCBF6iK07SbCWHlNEptcIQSOY9+G47g1eGEllmERqNIGzxFJejXMzcecnwl59Q1L3/MEnltdP9VnFGkqSU/U9wSeK/E8ie+D0TZjZeuswDLScOA4LkII3FKphNYGRwqKxQijLSLEyPYsgyreQBsUBpmmLgE5X5APZI3yrIDZEBD4glwgESSmnMQik3y2VpSsVZeuW2VXY7SmWCxSLnm4Dz74YJJdYmL6WFC/heN0oZVqeX+vCmJSeHAx8jQ1CLJG/rrrusk9DQQS+a1Lt2MZRhscx2Fhfp6HvvQQLhdwH3nkkSx4nb+g+ctvLTC7ENtd+BbtLm3zCWNNP9YaT8os1V7yuSukL4VFH1GkkwZR7Q5ga8qwG1wxvWs6ePgLDzPYJ3E3bdqU3dDdB47zBkbHiDZ6iiTbhpVQs2WswMd+vpdnXpgmF0h8T2ZYovHFp8mtmuRSjqv7syRKKJcVn/iFfrZuLqBUUnHq1t1EAEZrHMfj6quvpq8bXK11YhmCUqmC1hbN6RY1bYVKeqDa0NXp8ucPjbFtS4Gn/us8p8+W0dq26jxX4rjVVl/j/5SWiiGKbfNHCBge9LnnrnV85r61BIEkjrWtAduwDA1WTq0plUrorgBXSglYZUhkFoxEG5pOm8muK5idi1DK8Jn71nH3nUP8+LV5fvTqHIfeWWJqOmRxKabqOfW2kW4qdXU6rBvJsWWswE03dLP7ph76en1KpZjFZUUh79r6JJut8ZvKKpFIKS+uWtsNSJa23ffwPcmBQ4t849tHueeuYT750QE+fns/H7+9nyhWHD9Z5uTpEpPTIdMzIVGcpEltKOQlA30+A/0+o+tybFifIxdY9FkqKZ594TxPPj3Jg/ePcuvP9aw4tQpjGnbUqpdXnreT6Thw5ESJR79znH99aoIbtq9h1841bNvSycYNOa4Z63hPemGoOD1R5vCRZfYeWOSNAwucPlumWFJ8+peHqyl3hfym49K1SZvEs3RqbA9USjg/XeHp/57kmeen6On26O/16O3xWDuco7vLoaPg4AcO8/MRcWw4PxNyYS5idj5idi5ibj4ijGzN43mCXE5mjedV6Wc0rU1gdSwj+ayVNUPHkXQWHIyBxaWY2bkoO7ByqSEEOI7AkQLPkwQ+GUDTqr6PkdYY7SujmZskQSidrQfQ5H+ykMDW6UabbB/bleD6FiO8N7PJ/5rn055L2g8VyVkoUXX91vitKc8bAqho6GVeOXFjwBEwPVNhcVkxMhRQyDvML8bkAqfteqeGNYQQhJFCAEODvj2+GCoE5j0trTnPiRWLZp0uk+D1Ole58um4MDlVYe++eUbX5Xng10cJfMHiYmhRY7L1WNvJygJM7aztgCX3R6FmcTHE9wS/8xsb2LWzh2Mnixw5tozviYZA2sqsnuS7TKerncLHgqrv/fMJdmzr4jd/dQPXbeniiX8/w97988zOhcSqenAtO6zS4DFaW/iukvjguoLBgYAbr+/nV+5ex40f7mFpKeKbjx9ldi6kkHeSBnFr/Na/gCZuspL+ANi9kUOHl/jy1w7yxd/fzPjOHsZ39nDydJH9b85z8K1Fjh0vMjFZplRShJEmiqwgxlgW8gVJEEhGhnJsvaaT7dd2Mf7hXtaO5AB4fd8cj33vKD99fYF8TiYtQNrsv5C9jfrtxaTLlc52/TsXCPYdXOALf7KPj902wF2fGOaWXX18aLTAp+5cm/ExPVPhwmzI0nKcnb5xXUF/v8/wYIDvOxnNONb878vnefb5KV760QzLRUUukFkB2CqraXsg63Y1KuPitnt7ylDGNm7KZcVT35/guRemGOwP2Lalk+uv62bD+jwjwzn6+3yu2lAgl5OkuT6OFcWSZmKyzNmJMqdOF9n/5gL731zg3FSZcqgzvKEuUwlfyciaUc2UYRq3F1tcy1YXFlrbFoDAdQRaGc6cLXHi1DLP/mCSXM4hn3Po6HDJ5xw8zzaCY2UoleyWwuJSTLGkKJUUWhu7H+tJOvIOjrTnO6I4FabNQ/9p/G56WCURxqR9wTboh6Fm86YCX/3jbew/uMCjj72LEALfFwTJckobFhZj5heiLDylAVBKy5iQVpG5nJMpWWtDHBv+8HNXc/32NfzF1w9x5FgR35ft7Ww0yHnRoVhhkuNDbQRQIUArTT5w2LGth+KyIu2WG21PA2LA8yRdnQ5RqAmj+ixgDPi+7ZuWypoo0nX7K8YYNm/sYMe2HvKBg1ba1rltWHGjnHU4Q6R7CW3nbGtbsTYopamECmqvGUO5ErP75j4ef3Scez61lnI5QimdzXI54p5fWsu3Hx1n9819lCvxRTQqoUIpTZyc2GmX1+pBeit/8+PSOr2xNW0jrOlhTHZuq7bZKyXo2NDX6zG2sZOR4VxWZ6SNH60MI8M5xjZ20tfroWODCOx1g6WXolFWgVdTYxnNQVdbmyYZEYQxCZiq3zO0DFur0dpYF6BaRqfXo2SXXan66xl9kYC1VeD18qBrJa33RCKtDeWyIgwttJd1sujEcuq7TdlaxlSPTxuT3J9sMmGxQRjaXqiuO/bYuiqyF98MdF3sf60St/ji1JllfvePXmF5SSEbSmuTuVB6OK1+LVNjVfX9CntdYvjbxw7z9//kcOrMMl5Sl7QzLlvCm1UCXcWS4o39c0gh8DyRmWFaEVdCRbEUUy7bbJNuDKXXy2V7vVKpv56Oo8eX0MbgedL+sKdNRqv9l6YIVCDMys51GQwSQc6v7pql1I2BwHfY89IU7767yPRMBc+VGF09GuK5kn978iQvvDjJxLkSge9k11OGfE9k9FLQ1dYwIIzInr/M0UfatozmXSf7hRRwYbbC1FQZx7W/KsJUgY8QcG6yxJkzRVzPAq/a7pnl0zRQbtcyqrJCozJEzd7mCtzk8gzY36K5OZm5ReNwXZHt6Gltmh6AWx1ekkKtGc6obYWt6NT0e3JRVUImp6lG9TpL4f3ho07W5Ds35QMAbdAZGmzfTdpiTgj7U4mf2XpYvKN0utOd/OJZGMCmMt+rzp+FMtL0GSuF5zrZ5/d/XcCI5Gek1jb+H7aBxC8Ap7YOAAAAAElFTkSuQmCC;" parent="1" vertex="1">
          <mxGeometry x="624.15" y="331" width="31.85" height="29" as="geometry" />
        </mxCell>
        <mxCell id="E0PU0g-8N9hY11ySkJEa-51" value="&lt;ul&gt;&lt;li&gt;One time migration&lt;/li&gt;&lt;li&gt;Continuous repiication (CSC)&lt;/li&gt;&lt;/ul&gt;" style="text;strokeColor=none;fillColor=none;align=left;verticalAlign=middle;spacingLeft=4;spacingRight=4;overflow=hidden;points=[[0,0.5],[1,0.5]];portConstraint=eastwest;rotatable=0;whiteSpace=wrap;html=1;" parent="1" vertex="1">
          <mxGeometry x="420" y="300" width="190" height="80" as="geometry" />
        </mxCell>
        <mxCell id="E0PU0g-8N9hY11ySkJEa-52" value="" style="sketch=0;outlineConnect=0;fontColor=#ffffff;fillColor=#1ba1e2;strokeColor=#006EAF;dashed=0;verticalLabelPosition=bottom;verticalAlign=top;align=center;html=1;fontSize=12;fontStyle=0;aspect=fixed;pointerEvents=1;shape=mxgraph.aws4.rds_mysql_instance;" parent="1" vertex="1">
          <mxGeometry x="101" y="495.01" width="38" height="38" as="geometry" />
        </mxCell>
        <mxCell id="E0PU0g-8N9hY11ySkJEa-53" value="" style="sketch=0;outlineConnect=0;fontColor=#ffffff;fillColor=#1ba1e2;strokeColor=#006EAF;dashed=0;verticalLabelPosition=bottom;verticalAlign=top;align=center;html=1;fontSize=12;fontStyle=0;aspect=fixed;pointerEvents=1;shape=mxgraph.aws4.rds_mysql_instance;" parent="1" vertex="1">
          <mxGeometry x="399" y="499.48" width="38" height="38" as="geometry" />
        </mxCell>
        <mxCell id="E0PU0g-8N9hY11ySkJEa-54" value="" style="sketch=0;outlineConnect=0;fontColor=#ffffff;fillColor=#1ba1e2;strokeColor=#006EAF;dashed=0;verticalLabelPosition=bottom;verticalAlign=top;align=center;html=1;fontSize=12;fontStyle=0;aspect=fixed;pointerEvents=1;shape=mxgraph.aws4.rds_mysql_instance;" parent="1" vertex="1">
          <mxGeometry x="618" y="501.74" width="38" height="38" as="geometry" />
        </mxCell>
        <mxCell id="E0PU0g-8N9hY11ySkJEa-57" value="Ensure firewall rules / VPN set up are correct to ensure source is accessible" style="rounded=0;whiteSpace=wrap;html=1;" parent="1" vertex="1">
          <mxGeometry x="18" y="600" width="202" height="60" as="geometry" />
        </mxCell>
        <mxCell id="E0PU0g-8N9hY11ySkJEa-59" value="&lt;table style=&quot;text-align: left;&quot;&gt;&lt;tbody&gt;&lt;tr&gt;&lt;td data-start=&quot;824&quot; data-end=&quot;851&quot; data-col-size=&quot;sm&quot;&gt;&lt;span data-start=&quot;826&quot; data-end=&quot;850&quot;&gt;Enable MySQL Binlog&amp;nbsp; and set wal_level to logical in Postgres for DMS to capture ongoing changes&amp;nbsp;&lt;br&gt;&lt;/span&gt;&lt;/td&gt;&lt;/tr&gt;&lt;/tbody&gt;&lt;/table&gt;" style="rounded=0;whiteSpace=wrap;html=1;" parent="1" vertex="1">
          <mxGeometry x="20" y="720" width="200" height="60" as="geometry" />
        </mxCell>
        <mxCell id="E0PU0g-8N9hY11ySkJEa-60" value="Create a DB user with REPLICATION privileges&amp;nbsp;&lt;table style=&quot;text-align: left;&quot;&gt;&lt;tbody&gt;&lt;/tbody&gt;&lt;/table&gt;" style="rounded=0;whiteSpace=wrap;html=1;" parent="1" vertex="1">
          <mxGeometry x="20" y="940" width="200" height="60" as="geometry" />
        </mxCell>
        <mxCell id="E0PU0g-8N9hY11ySkJEa-61" value="(Optional) Pre-create DB &amp;amp; schema&lt;table style=&quot;text-align: left;&quot;&gt;&lt;tbody&gt;&lt;/tbody&gt;&lt;/table&gt;" style="rounded=0;whiteSpace=wrap;html=1;" parent="1" vertex="1">
          <mxGeometry x="20" y="1040" width="200" height="60" as="geometry" />
        </mxCell>
        <mxCell id="E0PU0g-8N9hY11ySkJEa-62" value="Configure IP/network&lt;table style=&quot;text-align: left;&quot;&gt;&lt;tbody&gt;&lt;/tbody&gt;&lt;/table&gt;" style="rounded=0;whiteSpace=wrap;html=1;" parent="1" vertex="1">
          <mxGeometry x="20" y="1130" width="200" height="60" as="geometry" />
        </mxCell>
        <mxCell id="E0PU0g-8N9hY11ySkJEa-63" value="Create target DB user" style="rounded=0;whiteSpace=wrap;html=1;" parent="1" vertex="1">
          <mxGeometry x="20" y="1220" width="200" height="60" as="geometry" />
        </mxCell>
        <mxCell id="E0PU0g-8N9hY11ySkJEa-64" value="Initial Full dump &amp;amp; Load" style="rounded=0;whiteSpace=wrap;html=1;" parent="1" vertex="1">
          <mxGeometry x="18" y="1690" width="200" height="60" as="geometry" />
        </mxCell>
        <mxCell id="E0PU0g-8N9hY11ySkJEa-65" value="CDC/Ongoing replication" style="rounded=0;whiteSpace=wrap;html=1;" parent="1" vertex="1">
          <mxGeometry x="18" y="1930" width="200" height="60" as="geometry" />
        </mxCell>
        <mxCell id="E0PU0g-8N9hY11ySkJEa-66" value="Monitoring and validation in google cloud console" style="rounded=0;whiteSpace=wrap;html=1;" parent="1" vertex="1">
          <mxGeometry x="25.000000000000004" y="2220" width="200" height="60" as="geometry" />
        </mxCell>
        <mxCell id="E0PU0g-8N9hY11ySkJEa-67" value="SHOW VARIABLES LIKE &#39;log_bin&#39;; -- must be ON" style="text;whiteSpace=wrap;" parent="1" vertex="1">
          <mxGeometry x="264" y="710" width="300" height="40" as="geometry" />
        </mxCell>
        <UserObject label="-- In my.cnf or mysqld.cnf&#xa;[mysqld]&#xa;log-bin=mysql-bin&#xa;server-id=1&#xa;binlog_format=ROW&#xa;expire_logs_days=7" link="-- In my.cnf or mysqld.cnf&#xa;[mysqld]&#xa;log-bin=mysql-bin&#xa;server-id=1&#xa;binlog_format=ROW&#xa;expire_logs_days=7" id="E0PU0g-8N9hY11ySkJEa-68">
          <mxCell style="text;whiteSpace=wrap;" parent="1" vertex="1">
            <mxGeometry x="264" y="750" width="300" height="110" as="geometry" />
          </mxCell>
        </UserObject>
        <mxCell id="E0PU0g-8N9hY11ySkJEa-69" value="&lt;code class=&quot;whitespace-pre! language-sql&quot;&gt;&lt;span&gt;&lt;span&gt;&lt;span class=&quot;hljs-keyword&quot;&gt;SHOW&lt;/span&gt;&lt;/span&gt;&lt;span&gt; wal_level; &lt;/span&gt;&lt;span&gt;&lt;span class=&quot;hljs-comment&quot;&gt;-- must be &#39;logical&#39;&lt;/span&gt;&lt;/span&gt;&lt;span&gt;&lt;/span&gt;&lt;/span&gt;&lt;/code&gt;" style="text;whiteSpace=wrap;html=1;" parent="1" vertex="1">
          <mxGeometry x="618" y="710" width="290" height="40" as="geometry" />
        </mxCell>
        <UserObject label="-- postgresql.conf&#xa;wal_level = logical&#xa;max_replication_slots = 10&#xa;max_wal_senders = 10" link="-- postgresql.conf&#xa;wal_level = logical&#xa;max_replication_slots = 10&#xa;max_wal_senders = 10" id="E0PU0g-8N9hY11ySkJEa-70">
          <mxCell style="text;whiteSpace=wrap;" parent="1" vertex="1">
            <mxGeometry x="634" y="765" width="180" height="80" as="geometry" />
          </mxCell>
        </UserObject>
        <mxCell id="E0PU0g-8N9hY11ySkJEa-71" value="CREATE USER &#39;replicator&#39;@&#39;%&#39; IDENTIFIED BY &#39;password&#39;;&#xa;GRANT REPLICATION SLAVE, REPLICATION CLIENT ON *.* TO &#39;replicator&#39;@&#39;%&#39;;" style="text;whiteSpace=wrap;" parent="1" vertex="1">
          <mxGeometry x="264" y="950" width="480" height="50" as="geometry" />
        </mxCell>
        <mxCell id="E0PU0g-8N9hY11ySkJEa-72" value="gcloud sql users create replicator --instance=my-instance --password=targetpass" style="text;whiteSpace=wrap;" parent="1" vertex="1">
          <mxGeometry x="264" y="1240" width="460" height="40" as="geometry" />
        </mxCell>
        <UserObject label="gcloud database-migration jobs create crm-migration \&#xa;    --region=us-central1 \&#xa;    --type=continuous \&#xa;    --source=crm-source-conn \&#xa;    --destination=cloudsql-crm-target \&#xa;    --display-name=&quot;CRM DB Migration&quot; \&#xa;    --dump-path=gs://your-bucket-name/crm-dump.sql" link="gcloud database-migration jobs create crm-migration \&#xa;    --region=us-central1 \&#xa;    --type=continuous \&#xa;    --source=crm-source-conn \&#xa;    --destination=cloudsql-crm-target \&#xa;    --display-name=&quot;CRM DB Migration&quot; \&#xa;    --dump-path=gs://your-bucket-name/crm-dump.sql" id="E0PU0g-8N9hY11ySkJEa-73">
          <mxCell style="text;whiteSpace=wrap;" parent="1" vertex="1">
            <mxGeometry x="274.93" y="1920" width="320" height="120" as="geometry" />
          </mxCell>
        </UserObject>
        <mxCell id="E0PU0g-8N9hY11ySkJEa-75" value="Create a source connection profile" style="rounded=0;whiteSpace=wrap;html=1;" parent="1" vertex="1">
          <mxGeometry x="19" y="1330" width="200" height="60" as="geometry" />
        </mxCell>
        <mxCell id="E0PU0g-8N9hY11ySkJEa-76" value="Create a destination connection profile" style="rounded=0;whiteSpace=wrap;html=1;" parent="1" vertex="1">
          <mxGeometry x="19" y="1520" width="200" height="60" as="geometry" />
        </mxCell>
        <mxCell id="E0PU0g-8N9hY11ySkJEa-77" value="gcloud database-migration connection-profiles create crm-source-conn \&#xa;  --region=us-central1 \&#xa;  --display-name=&quot;CRM MySQL Source&quot; \&#xa;  --mysql \&#xa;  --hostname=SOURCE_IP \&#xa;  --port=3306 \&#xa;  --username=replicator \&#xa;  --password=sourcepassword \&#xa;  --static-ip-connectivity" style="text;whiteSpace=wrap;" parent="1" vertex="1">
          <mxGeometry x="264" y="1310" width="420" height="150" as="geometry" />
        </mxCell>
        <mxCell id="E0PU0g-8N9hY11ySkJEa-78" value="gcloud database-migration connection-profiles create cloudsql-crm-target \&#xa;  --region=us-central1 \&#xa;  --display-name=&quot;Cloud SQL Target&quot; \&#xa;  --cloudsql-instance=my-sql-instance-id \&#xa;  --username=replicator \&#xa;  --password=targetpassword" style="text;whiteSpace=wrap;" parent="1" vertex="1">
          <mxGeometry x="271" y="1510" width="430" height="110" as="geometry" />
        </mxCell>
        <UserObject label="gcloud database-migration jobs create crm-migration-initial \&#xa;    --region=us-central1 \&#xa;    --type=one-time \&#xa;    --source=crm-source-conn \&#xa;    --destination=cloudsql-crm-target \&#xa;    --display-name=&quot;CRM DB Initial Load Only&quot; \&#xa;    --dump-path=gs://your-bucket-name/crm-dump.sql" link="gcloud database-migration jobs create crm-migration-initial \&#xa;    --region=us-central1 \&#xa;    --type=one-time \&#xa;    --source=crm-source-conn \&#xa;    --destination=cloudsql-crm-target \&#xa;    --display-name=&quot;CRM DB Initial Load Only&quot; \&#xa;    --dump-path=gs://your-bucket-name/crm-dump.sql" id="E0PU0g-8N9hY11ySkJEa-79">
          <mxCell style="text;whiteSpace=wrap;" parent="1" vertex="1">
            <mxGeometry x="281" y="1670" width="350" height="120" as="geometry" />
          </mxCell>
        </UserObject>
        <mxCell id="E0PU0g-8N9hY11ySkJEa-80" value="gcloud database-migration jobs start crm-migration --region=us-central1" style="text;whiteSpace=wrap;" parent="1" vertex="1">
          <mxGeometry x="271" y="2070" width="410" height="40" as="geometry" />
        </mxCell>
        <mxCell id="E0PU0g-8N9hY11ySkJEa-81" value="Start the CDC job" style="rounded=0;whiteSpace=wrap;html=1;" parent="1" vertex="1">
          <mxGeometry x="18" y="2060" width="200" height="60" as="geometry" />
        </mxCell>
        <mxCell id="E0PU0g-8N9hY11ySkJEa-82" value="Start the full job" style="rounded=0;whiteSpace=wrap;html=1;" parent="1" vertex="1">
          <mxGeometry x="18" y="1800" width="200" height="60" as="geometry" />
        </mxCell>
        <mxCell id="E0PU0g-8N9hY11ySkJEa-84" value="gcloud database-migration jobs start crm-migration-initial --region=us-central1" style="text;whiteSpace=wrap;" parent="1" vertex="1">
          <mxGeometry x="278" y="1810" width="410" height="40" as="geometry" />
        </mxCell>
        <mxCell id="E0PU0g-8N9hY11ySkJEa-85" value="gcloud database-migration jobs describe crm-migration --region=us-central1" style="text;whiteSpace=wrap;" parent="1" vertex="1">
          <mxGeometry x="266" y="2220" width="440" height="40" as="geometry" />
        </mxCell>
        <mxCell id="E0PU0g-8N9hY11ySkJEa-86" value="Cutover:&lt;div&gt;Stop writes&amp;nbsp; to source, wat for replication_lag =0, Finalize DMS job. This promotes the cloud SQL as primary and stops replication from source and complete the replication&lt;/div&gt;" style="rounded=0;whiteSpace=wrap;html=1;" parent="1" vertex="1">
          <mxGeometry x="19" y="2340" width="200" height="90" as="geometry" />
        </mxCell>
        <mxCell id="E0PU0g-8N9hY11ySkJEa-87" value="gcloud database-migration jobs promote crm-migration --region=us-central1" style="text;whiteSpace=wrap;" parent="1" vertex="1">
          <mxGeometry x="264" y="2365" width="440" height="40" as="geometry" />
        </mxCell>
        <mxCell id="E0PU0g-8N9hY11ySkJEa-88" value="Update the database connections in application config files&amp;nbsp;" style="rounded=0;whiteSpace=wrap;html=1;" parent="1" vertex="1">
          <mxGeometry x="29" y="2490" width="200" height="90" as="geometry" />
        </mxCell>
        <mxCell id="ysWQYUKIAzI0KRw_d7i0-1" value="" style="endArrow=classic;html=1;rounded=0;exitX=0.5;exitY=1;exitDx=0;exitDy=0;entryX=0.5;entryY=0;entryDx=0;entryDy=0;" edge="1" parent="1" source="E0PU0g-8N9hY11ySkJEa-57" target="E0PU0g-8N9hY11ySkJEa-59">
          <mxGeometry width="50" height="50" relative="1" as="geometry">
            <mxPoint x="550" y="770" as="sourcePoint" />
            <mxPoint x="600" y="720" as="targetPoint" />
          </mxGeometry>
        </mxCell>
        <mxCell id="ysWQYUKIAzI0KRw_d7i0-2" value="" style="endArrow=classic;html=1;rounded=0;exitX=0.5;exitY=1;exitDx=0;exitDy=0;entryX=0.5;entryY=0;entryDx=0;entryDy=0;exitPerimeter=0;" edge="1" parent="1" source="E0PU0g-8N9hY11ySkJEa-59" target="E0PU0g-8N9hY11ySkJEa-60">
          <mxGeometry width="50" height="50" relative="1" as="geometry">
            <mxPoint x="121.5" y="785" as="sourcePoint" />
            <mxPoint x="122.5" y="845" as="targetPoint" />
          </mxGeometry>
        </mxCell>
        <mxCell id="ysWQYUKIAzI0KRw_d7i0-3" value="" style="endArrow=classic;html=1;rounded=0;exitX=0.5;exitY=1;exitDx=0;exitDy=0;entryX=0.5;entryY=0;entryDx=0;entryDy=0;" edge="1" parent="1" source="E0PU0g-8N9hY11ySkJEa-60" target="E0PU0g-8N9hY11ySkJEa-61">
          <mxGeometry width="50" height="50" relative="1" as="geometry">
            <mxPoint x="130" y="790" as="sourcePoint" />
            <mxPoint x="130" y="950" as="targetPoint" />
          </mxGeometry>
        </mxCell>
        <mxCell id="ysWQYUKIAzI0KRw_d7i0-4" value="" style="endArrow=classic;html=1;rounded=0;exitX=0.5;exitY=1;exitDx=0;exitDy=0;entryX=0.5;entryY=0;entryDx=0;entryDy=0;" edge="1" parent="1" source="E0PU0g-8N9hY11ySkJEa-61" target="E0PU0g-8N9hY11ySkJEa-62">
          <mxGeometry width="50" height="50" relative="1" as="geometry">
            <mxPoint x="140" y="800" as="sourcePoint" />
            <mxPoint x="140" y="960" as="targetPoint" />
          </mxGeometry>
        </mxCell>
        <mxCell id="ysWQYUKIAzI0KRw_d7i0-5" value="" style="endArrow=classic;html=1;rounded=0;exitX=0.5;exitY=1;exitDx=0;exitDy=0;entryX=0.5;entryY=0;entryDx=0;entryDy=0;" edge="1" parent="1" source="E0PU0g-8N9hY11ySkJEa-62" target="E0PU0g-8N9hY11ySkJEa-63">
          <mxGeometry width="50" height="50" relative="1" as="geometry">
            <mxPoint x="128.5" y="1060" as="sourcePoint" />
            <mxPoint x="128.5" y="1220" as="targetPoint" />
          </mxGeometry>
        </mxCell>
        <mxCell id="ysWQYUKIAzI0KRw_d7i0-7" value="" style="endArrow=classic;html=1;rounded=0;exitX=0.5;exitY=1;exitDx=0;exitDy=0;entryX=0.5;entryY=0;entryDx=0;entryDy=0;" edge="1" parent="1" source="E0PU0g-8N9hY11ySkJEa-63" target="E0PU0g-8N9hY11ySkJEa-75">
          <mxGeometry width="50" height="50" relative="1" as="geometry">
            <mxPoint x="550" y="1610" as="sourcePoint" />
            <mxPoint x="600" y="1560" as="targetPoint" />
          </mxGeometry>
        </mxCell>
        <mxCell id="ysWQYUKIAzI0KRw_d7i0-9" value="" style="endArrow=classic;html=1;rounded=0;exitX=0.5;exitY=1;exitDx=0;exitDy=0;entryX=0.5;entryY=0;entryDx=0;entryDy=0;" edge="1" parent="1" source="E0PU0g-8N9hY11ySkJEa-75" target="E0PU0g-8N9hY11ySkJEa-76">
          <mxGeometry width="50" height="50" relative="1" as="geometry">
            <mxPoint x="550" y="1650" as="sourcePoint" />
            <mxPoint x="600" y="1600" as="targetPoint" />
          </mxGeometry>
        </mxCell>
        <mxCell id="ysWQYUKIAzI0KRw_d7i0-10" value="" style="endArrow=classic;html=1;rounded=0;exitX=0.5;exitY=1;exitDx=0;exitDy=0;" edge="1" parent="1" source="E0PU0g-8N9hY11ySkJEa-76" target="E0PU0g-8N9hY11ySkJEa-64">
          <mxGeometry width="50" height="50" relative="1" as="geometry">
            <mxPoint x="550" y="1890" as="sourcePoint" />
            <mxPoint x="600" y="1840" as="targetPoint" />
          </mxGeometry>
        </mxCell>
        <mxCell id="ysWQYUKIAzI0KRw_d7i0-11" value="" style="endArrow=classic;html=1;rounded=0;exitX=0.5;exitY=1;exitDx=0;exitDy=0;entryX=0.5;entryY=0;entryDx=0;entryDy=0;" edge="1" parent="1" source="E0PU0g-8N9hY11ySkJEa-64" target="E0PU0g-8N9hY11ySkJEa-82">
          <mxGeometry width="50" height="50" relative="1" as="geometry">
            <mxPoint x="550" y="1890" as="sourcePoint" />
            <mxPoint x="600" y="1840" as="targetPoint" />
          </mxGeometry>
        </mxCell>
        <mxCell id="ysWQYUKIAzI0KRw_d7i0-12" value="" style="endArrow=classic;html=1;rounded=0;exitX=0.5;exitY=1;exitDx=0;exitDy=0;entryX=0.5;entryY=0;entryDx=0;entryDy=0;" edge="1" parent="1" source="E0PU0g-8N9hY11ySkJEa-82" target="E0PU0g-8N9hY11ySkJEa-65">
          <mxGeometry width="50" height="50" relative="1" as="geometry">
            <mxPoint x="550" y="1890" as="sourcePoint" />
            <mxPoint x="600" y="1840" as="targetPoint" />
          </mxGeometry>
        </mxCell>
        <mxCell id="ysWQYUKIAzI0KRw_d7i0-13" value="" style="endArrow=classic;html=1;rounded=0;exitX=0.5;exitY=1;exitDx=0;exitDy=0;entryX=0.5;entryY=0;entryDx=0;entryDy=0;" edge="1" parent="1" source="E0PU0g-8N9hY11ySkJEa-65" target="E0PU0g-8N9hY11ySkJEa-81">
          <mxGeometry width="50" height="50" relative="1" as="geometry">
            <mxPoint x="550" y="2250" as="sourcePoint" />
            <mxPoint x="600" y="2200" as="targetPoint" />
          </mxGeometry>
        </mxCell>
        <mxCell id="ysWQYUKIAzI0KRw_d7i0-14" value="" style="endArrow=classic;html=1;rounded=0;exitX=0.5;exitY=1;exitDx=0;exitDy=0;entryX=0.465;entryY=-0.05;entryDx=0;entryDy=0;entryPerimeter=0;" edge="1" parent="1" source="E0PU0g-8N9hY11ySkJEa-81" target="E0PU0g-8N9hY11ySkJEa-66">
          <mxGeometry width="50" height="50" relative="1" as="geometry">
            <mxPoint x="550" y="2370" as="sourcePoint" />
            <mxPoint x="600" y="2320" as="targetPoint" />
          </mxGeometry>
        </mxCell>
        <mxCell id="ysWQYUKIAzI0KRw_d7i0-15" value="" style="endArrow=classic;html=1;rounded=0;exitX=0.425;exitY=1;exitDx=0;exitDy=0;exitPerimeter=0;entryX=0.465;entryY=0;entryDx=0;entryDy=0;entryPerimeter=0;" edge="1" parent="1" source="E0PU0g-8N9hY11ySkJEa-66" target="E0PU0g-8N9hY11ySkJEa-86">
          <mxGeometry width="50" height="50" relative="1" as="geometry">
            <mxPoint x="550" y="2370" as="sourcePoint" />
            <mxPoint x="600" y="2320" as="targetPoint" />
          </mxGeometry>
        </mxCell>
        <mxCell id="ysWQYUKIAzI0KRw_d7i0-16" value="" style="endArrow=classic;html=1;rounded=0;exitX=0.5;exitY=1;exitDx=0;exitDy=0;entryX=0.46;entryY=-0.011;entryDx=0;entryDy=0;entryPerimeter=0;" edge="1" parent="1" source="E0PU0g-8N9hY11ySkJEa-86" target="E0PU0g-8N9hY11ySkJEa-88">
          <mxGeometry width="50" height="50" relative="1" as="geometry">
            <mxPoint x="550" y="2370" as="sourcePoint" />
            <mxPoint x="600" y="2320" as="targetPoint" />
          </mxGeometry>
        </mxCell>
      </root>
    </mxGraphModel>
  </diagram>
  <diagram id="GSHmJ26Cdv10CFTP3VKP" name="CI-CD-Pipeline">
    <mxGraphModel dx="1426" dy="875" grid="1" gridSize="10" guides="1" tooltips="1" connect="1" arrows="1" fold="1" page="1" pageScale="1" pageWidth="850" pageHeight="1100" math="0" shadow="0">
      <root>
        <mxCell id="0" />
        <mxCell id="1" parent="0" />
        <mxCell id="_HESWg9S6pFle7lfJvNZ-1" value="" style="rounded=0;whiteSpace=wrap;html=1;" parent="1" vertex="1">
          <mxGeometry x="50" y="190" width="491" height="130" as="geometry" />
        </mxCell>
        <mxCell id="b8aguGPhkV1NlNVHIDok-1" value="Cloud&#xa;SQL" style="sketch=0;html=1;verticalAlign=top;labelPosition=center;verticalLabelPosition=bottom;align=center;spacingTop=-6;fontSize=11;fontStyle=1;fontColor=#999999;shape=image;aspect=fixed;imageAspect=0;image=data:image/svg+xml,PHN2ZyB4bWxucz0iaHR0cDovL3d3dy53My5vcmcvMjAwMC9zdmciIHhtbG5zOnY9Imh0dHBzOi8vdmVjdGEuaW8vbmFubyIgd2lkdGg9IjE0LjY1OTk5OTg0NzQxMjExIiBoZWlnaHQ9IjIwIiB2aWV3Qm94PSIwIDAgMTQuNjU5OTk5ODQ3NDEyMTEgMjAiPiYjeGE7CTxzdHlsZSB0eXBlPSJ0ZXh0L2NzcyI+JiN4YTsJLnN0MHtmaWxsOiM0Mjg1ZjQ7fSYjeGE7CS5zdDF7ZmlsbDojNjY5ZGY2O30mI3hhOwkuc3Qye2ZpbGw6I2FlY2JmYTt9JiN4YTsJPC9zdHlsZT4mI3hhOwk8c3R5bGU+JiN4YTsJCS5Ee2ZpbGwtcnVsZTpldmVub2RkfSYjeGE7CTwvc3R5bGU+JiN4YTsJPHBhdGggZD0iTTcuMzMgMTUuMzV2LTMuMDFMMCA4LjQ0djMuMDF6bTAgNC42NXYtMy4wMUwwIDEzLjA5djMuMDF6IiBjbGFzcz0ic3QyIEQiLz4mI3hhOwk8cGF0aCBkPSJNMTQuNjYgOC40NGwtNy4zMyAzLjl2My4wMWw3LjMzLTMuOXptMCA0LjY1bC03LjMzIDMuOVYyMGw3LjMzLTMuOXoiIGNsYXNzPSJzdDEgRCIvPiYjeGE7CTxwYXRoIGQ9Ik03LjMzIDB2My4wMWw3LjMzIDMuOVYzLjl6IiBjbGFzcz0ic3QwIEQiLz4mI3hhOwk8cGF0aCBkPSJNMCA2LjkxbDcuMzMtMy45VjBMMCAzLjl6IiBjbGFzcz0iRCBzdDEiLz4mI3hhOwk8cGF0aCBkPSJNNy4zMyAxMC43OVY3Ljc3TDAgMy44N3YzLjAyeiIgY2xhc3M9IkQgc3QyIi8+JiN4YTsJPHBhdGggZD0iTTE0LjY2IDMuODdsLTcuMzMgMy45djMuMDJsNy4zMy0zLjl6IiBjbGFzcz0iRCBzdDEiLz4mI3hhOzwvc3ZnPg==;" parent="1" vertex="1">
          <mxGeometry x="63" y="200" width="24.38" height="32" as="geometry" />
        </mxCell>
        <mxCell id="ppNC7bBhxt5fAdMNGBPs-17" value="" style="edgeStyle=orthogonalEdgeStyle;rounded=0;orthogonalLoop=1;jettySize=auto;html=1;entryX=0.5;entryY=0;entryDx=0;entryDy=0;" edge="1" parent="1" source="b8aguGPhkV1NlNVHIDok-2" target="ppNC7bBhxt5fAdMNGBPs-12">
          <mxGeometry relative="1" as="geometry">
            <mxPoint x="270" y="369.74" as="targetPoint" />
          </mxGeometry>
        </mxCell>
        <mxCell id="b8aguGPhkV1NlNVHIDok-2" value="" style="image;sketch=0;aspect=fixed;html=1;points=[];align=center;fontSize=12;image=img/lib/mscae/Azure_Database_for_PostgreSQL_servers.svg;" parent="1" vertex="1">
          <mxGeometry x="251" y="239.74" width="38" height="50" as="geometry" />
        </mxCell>
        <mxCell id="b8aguGPhkV1NlNVHIDok-3" value="" style="sketch=0;outlineConnect=0;fontColor=#ffffff;fillColor=#1ba1e2;strokeColor=#006EAF;dashed=0;verticalLabelPosition=bottom;verticalAlign=top;align=center;html=1;fontSize=12;fontStyle=0;aspect=fixed;pointerEvents=1;shape=mxgraph.aws4.rds_mysql_instance;" parent="1" vertex="1">
          <mxGeometry x="142" y="245.01" width="38" height="38" as="geometry" />
        </mxCell>
        <mxCell id="b8aguGPhkV1NlNVHIDok-4" value="" style="sketch=0;outlineConnect=0;fontColor=#ffffff;fillColor=#1ba1e2;strokeColor=#006EAF;dashed=0;verticalLabelPosition=bottom;verticalAlign=top;align=center;html=1;fontSize=12;fontStyle=0;aspect=fixed;pointerEvents=1;shape=mxgraph.aws4.rds_mysql_instance;" parent="1" vertex="1">
          <mxGeometry x="371" y="245.74" width="38" height="38" as="geometry" />
        </mxCell>
        <mxCell id="b8aguGPhkV1NlNVHIDok-5" value="" style="sketch=0;outlineConnect=0;fontColor=#ffffff;fillColor=#1ba1e2;strokeColor=#006EAF;dashed=0;verticalLabelPosition=bottom;verticalAlign=top;align=center;html=1;fontSize=12;fontStyle=0;aspect=fixed;pointerEvents=1;shape=mxgraph.aws4.rds_mysql_instance;" parent="1" vertex="1">
          <mxGeometry x="466" y="251.74" width="38" height="38" as="geometry" />
        </mxCell>
        <mxCell id="iRkS9LPY-Fro8YUXB3QR-1" value="Vehicle config tool" style="text;html=1;align=center;verticalAlign=middle;whiteSpace=wrap;rounded=0;" parent="1" vertex="1">
          <mxGeometry x="251" y="40" width="60" height="30" as="geometry" />
        </mxCell>
        <mxCell id="ppNC7bBhxt5fAdMNGBPs-8" value="" style="edgeStyle=orthogonalEdgeStyle;rounded=0;orthogonalLoop=1;jettySize=auto;html=1;" edge="1" parent="1" source="8A6DmDLIx_JfnRXrwLuJ-1" target="b8aguGPhkV1NlNVHIDok-2">
          <mxGeometry relative="1" as="geometry" />
        </mxCell>
        <mxCell id="8A6DmDLIx_JfnRXrwLuJ-1" value="" style="verticalLabelPosition=bottom;html=1;verticalAlign=top;strokeWidth=1;align=center;outlineConnect=0;dashed=0;outlineConnect=0;shape=mxgraph.aws3d.application2;aspect=fixed;fillColor=#1ba1e2;fontColor=#ffffff;strokeColor=#006EAF;" parent="1" vertex="1">
          <mxGeometry x="240" y="88.5" width="62" height="53" as="geometry" />
        </mxCell>
        <mxCell id="8A6DmDLIx_JfnRXrwLuJ-3" value="" style="shape=image;aspect=fixed;image=data:image/png,iVBORw0KGgoAAAANSUhEUgAAAEwAAACXCAYAAAC/br3HAAAABHNCSVQICAgIfAhkiAAAABl0RVh0U29mdHdhcmUAZ25vbWUtc2NyZWVuc2hvdO8Dvz4AABTASURBVHic7Z1rjGTHVcd/dW/3PHd3Zt/2eNf78K5fxBJIPBzxsCCKgQ9BIIKSKJERAccJggRhIvIgJBLGscEoPCR/SwJIKBAEVgChOEBkAREGCTkhMTFmvetkvevZnZ3d2Z1HT/d9FB9OnXurx9Pdt7vvnR6LOVJ7x/24VfW/p06d8z+n6hqO3m3ZkcISjLoDrzfZAaxP2QGsT9kBrE/ZAaxP2QGsT9kBrE/ZAaxP2QGsT6mNugMA2Ow/XcSA2YK+9JDtAZixgBHMjHspfvpe/sdIZXtMSWvAWsBKj1ZTWEtd76x8ZkcPFmwHwBQoEH1/NYIf2w/374OLEdQUKAfciGW0U9JaMAbSFMIArsVwxyT89m0QW/jaClxswp4QkhSCIP/NiGR0GqYDtxYCIwBNBPDoSdhdh31j8MmTMO4+C0z7b0YkowFs48BrgUzFXzwCP7Af1mJYjeGH9st7r0bync1+u8UyGsD8AdcDON+EnzwADx2FRiKfGyN/P3RUPnulKd+FkU7LrQfMesY7MLAcw91T8PGTAohOP52m9UA+u2sKbsTy/sbrbKFsLWAb7VbLQmrgkdvg+CSsxLIqKhg1I+8dn4Tfug0wEI3Wnm0dYP4AdTotRvDrx8RWLTuwMPmUxMh7N2K4bz/82q2wEMlvzWhA2xrALPnALFA3YsgfOAzvvkUMvILkD14BCYx85xeOwM8elt/WXWSQgbYlI9kiwIxtB2sxgu/bBR85Ke+nG6ZZ9jtv+qbuGh85Cffukmu0gbY1iFUPmIY11soAlxM4MAaPnRZfaz3dHCwVH7T1VH7z6GmYrcu16qa9jYqlWsB8GxMaiQ9j4PFTcM8esU2hb7M6iH4eOnt2zx544pRcq5HK+1tkz6oDzLdbyjTcSOATJ+BHD8J1FycWHaQCUjOwHMH9B+Fjx2EpIaM3tsCeVQOY2hS1W+MBXGjC++bggVtkKoXmtatmN/G/Gzht/bkj8NCcxJvjQbs9q0jTqgHMmNymjLuw50f2wsMnIErBpv2B1XZdL2CPU/jgCfjBWZiPHGjOnlUUCZQPmN5lNfKLERyZgCdul+C62cPI95KNi8BkAJ+6A26Z8FZOT7tLlvIB0+U9AFpI0Pz4Sbh1ClYTFw8OqQHq1NYDueaxKWkjDCAiH1UFrkZ5gGV31VsV5yN4/y3wpoN52KPfLaM9yMOnNx2EX7oFLkX5qmk9bStJygFMV0SdLmPOk79vFt5zVOiagMHsVidpWwSQNt53FO6dkRs15n1eoj0rBzBdlVIrHO6qhZvq8OhtOQNRJlhZu941ldn4vVNweEz6UCOPEErSspI0TA0x4kw2U/joCbhrN6wlwxn5XuIvAmsJ3LkLHr5V/k6QPpXY9vCA6d3TqbEUw5v3w1sPS8AcFPDkhxXjtbGawNtugvv2SY7A9/dK0LLhAMtslwOskcLsGHz4mNxdP6iuWvzcQBjAx0/A/jFxcNuooOGaGQ4w48Ie67TrWgq/cgRO74L1pD3Gq1r0xtWMLAB37oL3H4GriRulC5+GdDUGB0yX7dR18noC378bHpgTMjAwlXrcm/fJtRka6cO75qRP1xPpY6quxuBNDAbYRqo5cvbh4WOyUqWqVVtLH2clBcaBMx7Ah47Le23U9uD2bDDAMpuA064Y3nEY3rhXpqJhdJkdv29rCXzPLLztkPSxFri+Da75g2uYJimWErh5At5zRBRKfa4RZqez9hMXTz54FOYmZAX3kywDyOA2LHAdiq1o16lpySOGIwZLRQnHRgK3T8M7D8k0TexQS13/P9U7YxwnNTcB754T/0d9rm1QNNLOnSXwzjmYGRPXx3jf6VP6A6yNBrYC2IM3w6Fx4bmq9Oj7FX9RaqZiNh44LKVUmA1jKS79AeZ3opHCyUnx6K/HW+tzFRXtb825GQ/MwdyYADhgbFscMJ+Uqxm4kUpOcaYu7Kd2cLuJ9ilJ4eCYgHY1bk/R9aFkxQDTEEhZ1KuJ1HHdvw9aTsW3vRgpTfjpQ1Kncc1L0fXh/RcDTB09YwSbVgL3HxCDH9s8ltyuomFTK4WjE9L3NX+RKm7LCmqYZ7uWU5gbh7fsl88SS2ZEt6tYr48R8BMHpMDlRv/UU0Eb5i4YInTwd+6B75oR+qZIInbU4ieC12N4w264c1pcoZA8MikgvQFTw2gMrFvYU4efOQCp15ntrF0qOoYEAe7tB2E6lDH5hTI9pDdgWkNvrKS1xmpSVqnk4HZzJTqJX7KwHMMPH4DJuoxJbXAB419Aw0y+CMYW3jIrhSCJC3BfD2Cp6NRMLeyuwU/tdTYYN5N6j6WADXMXTFyS4a2HhZEItrnd6iTG5kngHz8gDIbe/AJzsjtgGgIZoGnhOybh9l3O9yovE9PW3mavUttwPF0rgTfskTE1PcB6tNcdMOXAa85ZvXdWDGVKNSujZrT9ks3S23DtpMhY3jgrTmzN5A56F+mtYbqyzITwvTPt75ctWWmU96piBfZX9u/eA7sCSQ8WWPE7A6Z9DhF/5fQE3DUtrERVrkSKFJd8fVlek0HuvpQpesOjFO6YhlOTjsujp3vRGTDNCIVG6rmOT0upZaWro5UU2UoirzCgkryAhniJlSz5bdPi9YduTF3ciy4a5tmSOBXt2l1ztG9Fjqqf8VlWyqiildg69nVXTcYWOxLBdG+z8242n/e6eRzumXLZIVNdoaeWG6y4eahp/irYEDX8MTK2m8fF1QiNl/V6rXSfkqF12ew6HJt09otqBpC1ayTFfy2u2M9z0zJKJRDfW5exBt3pns01TO+qMeJz7aoJ+ZbZrwruuhpbiyv0xVssK1iVjQMmtnBoTMbYbEAQilfQoc3NNcynb1tWOPsDYwKesdXYFU38GgNBKi//vbLFegqxbzzPS/SgrjcHLCu8tVAHbh2XFUu5r0oWSGUNgGYiL5/pLVvUtGhAfmxcMuVqvzq02WFKuo5GFiZDuH0iz+dVZVcyRtfmqTBje97xocQ4E5OkcMIBFntk4yZNdpiSbn6nFsYCoXWj7sgP33mTE3mJlcxOWjEjotMyAm6dkFmUUe6bj7PDKukulFgwAexXOqdihsJ4YDVT12ZFNwjym5FYWdRCv5Bm83F28cPIHcnJ0IvzKnYpYiRBAbJaVU4hOUd8IpQAPDaDhkbIhSYDASzVNysUjSpaQGTEtlSewnMATQQwYXrqRA+2wogO1npfaGix7j/Wir3U6mfTPRgeWlQxQpNX9nSR7gd9GCsRfHakS1m93Kwt99IKm/XUc5QrbFdNTwBFFpgCfBj5pqeqO65+mGpY5hNV2K5xjY+HOb3TRXocJeM6mxnfKnvuJEmFPoa8zh6qNwlpMeKtN0WdIF43Fd7pjLQzwq+vW/GNmlqaRHXuhbYb2UKrcncNs1ZWx5TcK65Cslp/K7FdywproMkWQ3u6r9S2cU46edDdRbprmB7G0aiQlgbvuk7DUsciNL2QqLK2IduUoaeydJHujivuLicV82AeXjQTF54gtsx4n1XVuMaTTU0fdv52Z8A08E1svke7KvYzs+hqv9zGqoYXGlWWqTKuKinxwr/OoHWYktY5rUZWj1caLkFgq0t7gbShNiwlr5v1v1OmaKK4buDb6xJl1Eye7N1EOvBhHk+0nsK3mq5ar6LgW6+pm6saqaS9Ik+rqmpXa2DPrIk5yOr4+yEQ9bs1I+mu/27kDmQVGuYb/ZYz+uu23QhX1q4LJc40pcJat1l3uD/dKWqcui605HCNIXdRdJRMi6zcoFXrNqp6NqxsDfOn43IEl5v5tufBKGr373gAVyMBbSyobloC4BgKa+Xftbi6vKTmH2uBjO167MbnjX0T6aJhRg5DmwhgLYIL626l7HyxocV6vpcxQvP0WRbeV1sWmTXn10XLJgIZcxel6M6HpY4Pu9iCb6zJHaiKtdAQ5UZMxvhej9zfVbVnZUzfXIX5lqvl6B7RdAFMV0pk1fqvFVlFQlNNXKfTYM2l8rBSBFMVS2KcF9BM4Our7pQoevp7XWorXEdjCzM1OLsCV1t5vUOZ01LbMlbo6dC4wWgelPLbU/p9oQUvrMgYNcLo0lZ3DcPZsekAzjTgpYa3e6LE255VMRtxVmvOaW6luRNZRXt1A+fW4OWGjDF1Yx5Iw+TK4unXDczH8NxyNVv8/MTxutvUHiBOc4/E6lDtBQa+ugKX3N6jtHcOoQcf5sWT+2rwDwv5lCkzTMo01srGCT3HdTnKPyuzLa17W0vg6QUZWwJoeX0X6Z0EUfdi3MDz63BmVXwX69S3DPE3FiRuQNj2bTmlTUnP/zqzCt9oyNgyTR5KwyDbmKVT5AsLsvxqkrW0qeI6u5bmGtZIy2VINAul7tLn58Vmht5nPZoqsBPE5FOzBvztVVhxh2lrNXUZoquT3mmtQdUjDktpw0ifawEsNuHvl8R2Fag8VCm418i9JgwsteCLV2BXmJdvlqFlBtHgtcSjq60rsRr+8lk/tUzz6UW40dpwdmLvyxTQMHIbM+5OhPvLyzKQtuNASxhQ5M411Cm5njjXoowboo64kR1tf7UgFNJ4fzay4AZTd9EE2B3C15bhP67DVM3FXiV444ERhmIlzTWs6drswbMXEvXzpkJ49rqUte/xipxLBSzb4JDKJoD5CP58HmKtbWd4LQiM3PF12270G8nwgOkKHCAAPXVZDgGfDnJaumD/i2uYev4tC4fr8KVF0TTNig+Tt1TA9eCQzOi7/x+WsfBNygsr8E+LcLAuY2nbqtNb+jtVQL3xmpGp88cXvF1tujIMIGono1SSETol1xLxvrXYbhDxCcEA+PQrcMVtkB8giigOmO9exBb2hfDUIvz7NVcONYRHbiGraNa7jhHmNdKAuP/Ltt3kyRCeXYLPX5G+Z5rcn1Pc58ko6t27QdSBPzjvPvTuWL9i3e8TK5qrseRa2r4BtF/JbqDT0E99W/qs1UgFfS9f+jwZBfLHghkxml+5AV+4JPTIoCdaap8j91KN0lqHQVZh7UdsZTV86hL827L0WW/8ANcd4LAij60YC2S3yB+dh4vrhcq2O/fE+V2ZzXFe/3IMQZ/d3DgVL63Dk+ehbj3evrihb+tm37/I4kvk7s3W4IU1+MwFAWyQYNnyWnZCB7wU5bmEwn30+jBm4A/Pw1dXpa+xzW3mADLggWve3Ukt7K3Bn74Kz15zRNwAU9Mg01FjO828r1mp5CncN5vHpFMh/Os1+It5cYXUHg5gu1QGPNKPfHVJEUPaSOFjZyUerHtqXwQ0veO65U9PwwyNHPeg3+l5Ha/NeiBuyW+8JCttHW/r9eCRyeAb+ayn9rGFvaE8fO6Rs3Jn/c+LgGaMAKYhjDWiWetJsend1pYRW/U7L0tGaCZs36I8RK5zcMD8oNwYqW8/VIc/m4cvLgibEXtToMi1NAxS70VZ0SKOqxIAcSqb3//uMvzJRfHos6dg2GLX6iLDbxXNCt5c8iIw8KGzcHZNOh4XOLLBuv80knZjnFopHeiVC1XaOU5huiZtf+Kc9KVG/tsSuLty9tbqqhZbUf8r6/DBF0U7xnq4GhpRGcRRxdMwTL5RqxNgGTFgJXPdSOFXX4TFlpc6G8yF2EzKAcx3IyIL++rwzBI88pKUcwddFgE1wMYI15blId1nK96U3Aiaf80wkCn80f+Ff16SxEakN2AAZ7qDlKdhvn2IUjg6Dp+Zh8++kucANtO0zABb4b807DLuvVjRo326+s5pYqWNz16Az12G4+MSk2Z2drtpGLSDpnHlgRr85jn4m8uyp3pTss65EE2bP0XLl6aVFU6rIje2F1t5mtZfz4vdOlhrX2xKLjUo93wAH7QUyQGMAx84A1+6Ip62nwfwqZfYOv5+AyitpP2Rr/4rcdP/6QV4+Ky0N0bub5WdoaeKAxV8yiRCKO3Aws//D/zLNTmVM9sK7V6BETa3sYG/N0YWgqa6Gxs0eKYOzyzKtQMrbUUb+lCyVHMChfU63LIwE4BJ4QMvwnPXHZee5kyqsVJ4ohrmh1VaJKxT0lr57e6aXOuXX5QN9TOBs1tq5MsHC6oCzJCDppXRM6FU/zz0Ajx3I1/yddq0Ujn3PlSLb/Jz+lve4Y5aTfSf1+Vay5E81lqzWApWNXhV+DA7BU2JusgN9HIL3vU8PHNVFgKLTNE9dbhjCq5FklgJkb9vn5LHWCdWbNO+Onx5Ed7+vFxrT+hVW1cLFlQJGHia5rkbszUpOHnwBfjyFTl1RR3Xx07LA1jmI3m9eT88ftodKYOA9Y9X4L0vitbNhjnhmLkPlY4Iw9G7y/HouonvYKYIR7WayjblT56Ad8xJcpVA/n3vN8URffJO2YttU5iowecuwofPCRE47WyWxp4VrIibydYABrkWgTtAxIG2msqDVx48KkCGJvejai7kSYAnvwW/fwF2BwKWPrJC48wtAAuqnpK+qBZAvuNj0sDhGjz6Evzuy0ILtWy+nbhl5b0nzsFj5+Cmmvwm9sEqz4svIlsHGOQUjB8wGwPjY3CpJdxX9nQYK3+vJ3ChBWN1sqdE+LzW1mEF9NzCXIEoC7FZMK7TVjVGN35i8+esVeTBF5Wt1TBfMh4NSZ6sRI4Pw2MrjLx3w2leFoSPBiwYJWAqugAsRY7KoZ0jW02kJq3fzFFFMmLAHCo15CkKjbSdotYKnqXY1XF5WjYiGS1g2YOHjZQf6SPKVAIjW2kutbydZqObjjBqwHTVrBnRohVXoKsSIO+pDRuhsfe7NDppo46NbMbKXA/k76sa+5AH9COU0U/JLAtt4HLUfkaGRQJwIEuO/P+ekvqHlal4uemVnVv5e6GZZ57afjMa2XrHdTNJrRj1lYj2oNOK/dINYdtARu+HAWAEsGuxxI/KxLYsXGu52zpi1XIyesAUHN27GFvJmE+7UoMFz2ndBlo2+imZFecZeQr8V65KcgNk1by04SHnI5at48M6iWpOgPBe6zY38IGR1FmIV6o0sp4C20LDPCMfAFPkroMh/8xs+O6IZPSAqTOaYeE7pz6jqt8dUT+djB4wHwjrv+n9rZ+N3oRtA8AgB6IbINsALNgObsXrTHYA61N2AOtTdgDrU3YA61N2AOtTdgDrU3YA61N2AOtT/g8t7JQhrmeqdgAAAABJRU5ErkJggg==;" parent="1" vertex="1">
          <mxGeometry x="57.58" y="418" width="35.23" height="70" as="geometry" />
        </mxCell>
        <mxCell id="8A6DmDLIx_JfnRXrwLuJ-4" value="" style="sketch=0;outlineConnect=0;fontColor=#ffffff;fillColor=#1ba1e2;strokeColor=#006EAF;dashed=0;verticalLabelPosition=bottom;verticalAlign=top;align=center;html=1;fontSize=12;fontStyle=0;aspect=fixed;pointerEvents=1;shape=mxgraph.aws4.file_system;" parent="1" vertex="1">
          <mxGeometry x="426" y="570" width="78" height="73" as="geometry" />
        </mxCell>
        <mxCell id="ppNC7bBhxt5fAdMNGBPs-1" value="Create python script for cloud function" style="rounded=0;whiteSpace=wrap;html=1;" vertex="1" parent="1">
          <mxGeometry x="34" y="760" width="277" height="60" as="geometry" />
        </mxCell>
        <mxCell id="ppNC7bBhxt5fAdMNGBPs-2" value="&lt;p dir=&quot;auto&quot; style=&quot;white-space: pre-wrap;&quot;&gt;Connect to Cloud SQL using the Cloud SQL Auth Proxy or a public IP with authorized networks.&lt;/p&gt;&lt;p style=&quot;white-space-collapse: preserve;&quot; dir=&quot;auto&quot;&gt;Connect to MongoDB (e.g., MongoDB Atlas or a hosted instance).&lt;/p&gt;&lt;p style=&quot;white-space-collapse: preserve;&quot; dir=&quot;auto&quot;&gt;Connect to the file system&lt;/p&gt;&lt;p style=&quot;white-space-collapse: preserve;&quot; dir=&quot;auto&quot;&gt;Query the orders for the day and then combine the standard component config to get masterconfig&lt;/p&gt;&lt;p style=&quot;white-space-collapse: preserve;&quot; dir=&quot;auto&quot;&gt;Access links in the files system and add the links while creating master config&lt;/p&gt;&lt;p style=&quot;white-space-collapse: preserve;&quot; dir=&quot;auto&quot;&gt;Save output JSON files to a GCS bucket (gs://your-bucket-name/configs/).&lt;/p&gt;&lt;p style=&quot;white-space-collapse: preserve;&quot; dir=&quot;auto&quot;&gt;Handle HTTP triggers for Cloud Scheduler.&lt;/p&gt;&lt;p style=&quot;white-space-collapse: preserve;&quot; dir=&quot;auto&quot;&gt;&lt;br&gt;&lt;/p&gt;" style="text;whiteSpace=wrap;html=1;" vertex="1" parent="1">
          <mxGeometry x="40" y="820" width="298" height="230" as="geometry" />
        </mxCell>
        <UserObject label="gcloud scheduler jobs create http generate-master-config-job \&#xa;  --location=us-central1 \&#xa;  --schedule=&quot;0 1 * * *&quot; \&#xa;  --uri=&quot;https://us-central1-your-project-id.cloudfunctions.net/generate_master_config&quot; \&#xa;  --http-method=POST \&#xa;  --oidc-service-account-email=cloud-function-invoker@your-project-id.iam.gserviceaccount.com" link="gcloud scheduler jobs create http generate-master-config-job \&#xa;  --location=us-central1 \&#xa;  --schedule=&quot;0 1 * * *&quot; \&#xa;  --uri=&quot;https://us-central1-your-project-id.cloudfunctions.net/generate_master_config&quot; \&#xa;  --http-method=POST \&#xa;  --oidc-service-account-email=cloud-function-invoker@your-project-id.iam.gserviceaccount.com" id="ppNC7bBhxt5fAdMNGBPs-4">
          <mxCell style="text;whiteSpace=wrap;" vertex="1" parent="1">
            <mxGeometry x="960" y="830" width="250" height="265" as="geometry" />
          </mxCell>
        </UserObject>
        <mxCell id="ppNC7bBhxt5fAdMNGBPs-5" value="&lt;p dir=&quot;auto&quot; style=&quot;white-space: pre-wrap;&quot;&gt;&lt;span style=&quot;white-space-collapse: collapse;&quot;&gt;gcloud functions deploy generate_master_config \&lt;/span&gt;&lt;br style=&quot;padding: 0px; margin: 0px; white-space-collapse: collapse;&quot;&gt;&lt;span style=&quot;white-space-collapse: collapse;&quot;&gt;&amp;nbsp; --region=us-central1 \&lt;/span&gt;&lt;br style=&quot;padding: 0px; margin: 0px; white-space-collapse: collapse;&quot;&gt;&lt;span style=&quot;white-space-collapse: collapse;&quot;&gt;&amp;nbsp; --runtime=python39 \&lt;/span&gt;&lt;br style=&quot;padding: 0px; margin: 0px; white-space-collapse: collapse;&quot;&gt;&lt;span style=&quot;white-space-collapse: collapse;&quot;&gt;&amp;nbsp; --trigger-http \&lt;/span&gt;&lt;br style=&quot;padding: 0px; margin: 0px; white-space-collapse: collapse;&quot;&gt;&lt;span style=&quot;white-space-collapse: collapse;&quot;&gt;&amp;nbsp; --allow-unauthenticated \&lt;/span&gt;&lt;br style=&quot;padding: 0px; margin: 0px; white-space-collapse: collapse;&quot;&gt;&lt;span style=&quot;white-space-collapse: collapse;&quot;&gt;&amp;nbsp; --set-env-vars MYSQL_HOST=127.0.0.1,MYSQL_USER=app_user,&lt;/span&gt;&lt;/p&gt;&lt;p dir=&quot;auto&quot; style=&quot;white-space: pre-wrap;&quot;&gt;&lt;span style=&quot;white-space-collapse: collapse;&quot;&gt;MYSQL_PASSWORD=securepassword,MYSQL_&lt;/span&gt;&lt;/p&gt;&lt;p dir=&quot;auto&quot; style=&quot;white-space: pre-wrap;&quot;&gt;&lt;span style=&quot;white-space-collapse: collapse;&quot;&gt;DATABASE=crm_db,&lt;/span&gt;&lt;/p&gt;&lt;p dir=&quot;auto&quot; style=&quot;white-space: pre-wrap;&quot;&gt;&lt;span style=&quot;white-space-collapse: collapse;&quot;&gt;MONGO_URI=mongodb://username:password@localhost:27017/automobile_db,&lt;/span&gt;&lt;/p&gt;&lt;p dir=&quot;auto&quot; style=&quot;white-space: pre-wrap;&quot;&gt;&lt;span style=&quot;white-space-collapse: collapse;&quot;&gt;&lt;br&gt;&lt;/span&gt;&lt;/p&gt;&lt;p dir=&quot;auto&quot; style=&quot;white-space: pre-wrap;&quot;&gt;&lt;span style=&quot;white-space-collapse: collapse;&quot;&gt;GCS_BUCKET=your-bucket-name&lt;/span&gt;&lt;/p&gt;" style="text;whiteSpace=wrap;html=1;" vertex="1" parent="1">
          <mxGeometry x="426" y="830" width="441" height="250" as="geometry" />
        </mxCell>
        <mxCell id="ppNC7bBhxt5fAdMNGBPs-11" value="" style="shape=image;aspect=fixed;image=data:image/png,iVBORw0KGgoAAAANSUhEUgAAAE8AAACNCAYAAAD2FCc5AAAABHNCSVQICAgIfAhkiAAAABl0RVh0U29mdHdhcmUAZ25vbWUtc2NyZWVuc2hvdO8Dvz4AAB9TSURBVHic7V1/cFXVnf+c+5KX9/LrJYBBAdkgDFoGzAKhjrKoKRo1waUw1Klk68JaLBusdUZa6thWMuPohjFTWyXYtSlu3QaHOmFTUVoUGI3EdRHSCBvAjU1FCWz48fKSvJ/Je2f/uPece865574EH4zbTr4z4d13zz3nfM/nfH+d7z3nQaLRKMU4fSEyvmwG/pJpHLwMaBy8DGgcvAxoHLwMaBy8DCgLACilACgAIhSp39PRpTz7/5XGMAbrEULM5wTJI2Yhe0j8rmuEil+Is4xaX6TndHWVdvmnpq6miut9sS7V3HM8qwFO5FWDrSE9yArFTx0YxO6cEAPmRFgPEdh/VOlNrEvFcqrplzgVQYucUtdloGJdm2fYPDsfs8fhMmOG9KDUgsAUb4RIn4QQvPRmCJ3dcUuUCaSOCEywqLMuxMdVEEV+qPJdvCfVVZ+lyneb587uGF56c0Dg2a0um2jiGBqgSh7/FBrl96h0TQjBjgNh7DoSx+OvDqD7TEoPICWytDHGxDZ5V2JdJuXSA7I0sMlhzxNpECIanOfO7hgef3UAu47EseNA2OJZrCvWsT6JyqdJTskj4uDEMsKvCTGw40AYrxwMI+AjCPiBR5ouoPtM0mSGEk1dqlFH8Zr1S/RlgNyualuoKEVErk9NnhlwjOdXDoYtAA2hrtK8yNPokkfsGdVMJJO4Vw6GEfDbdQI+YgNoKM5GNMhE4UAEg1C5X7FMtZfq7BJrxjVOgRgE3WeSHDjOswSgxi4wydeoLKDGeVR5UDVhInA+VcIoB7CzO2YDKBlv4YuioWxAXGJUZolSV9UhVdqsRggBus8k8UjTBRs4oU7AR2QAVU1Rbb9AgtpSRyGfbaIBjg9IpkIvwb+0DoCmqLNNKgDKxy88Ixprh7dUbSn7yganSIsl7ZQCP26+gEKvo0FODgBFBlxUFlDjPOkpe0Ra4FjDnGkCmgIKcrPw4ncmgBhiG0KTDjUwnyGE/REQQ/wul9ltKerBJka19QQmPx4KmlLrgpsKGUDDFTBpONFolJorDAid21w4gCPUBk1QW5oCiIfixe9MQCDfA9akNtSwBiUWxBIpXBxM4lwwiSFNfjbfT3BVsQcTCjzweeUZMPknLhJretnQUBLrf3ERNElA1EWpMKZQFPjW4jzcX5EHSlNCP3b7bBJl8Dhu5lMO56DYONYhTRIU5Gbh+YcC8HmJPRiVR+FW74URnPh8GMdOGTj6aRShSApDiaQJlNfjqD+UGOFlVxcSzJ6ahfml2Zg7IxuBfI/NvugwuGYQEAIZQA91jsciB4BKnEcMFTxlvGklDjaQTFWfXVMgSJwwUwBX4d4Lw3jvWAJvHU3gdP8w8r0eGEjJkiBKtNu11e9AwuygbEo2Fs/zY8lXshDIzwJgqSi3oSbfrhJInEDqJdDGRgZP5J8Q7HwnjJfbRgdOUlVuU1g75pfuM0m8/NYgjpxKIN/rgcdIwUE6oFz6VYmmgBQMDCWSqCrzYeUtfkyZmG2DqPAUGkpi/YtBzj9vW+k3FKMCgELo4wBP0Getc1AGwkRfAk4DWtOeAXT2DqPQS9wZdWFe12/acstpDSQobpttYH1VEQL5WcLAXVTYgOxEFADXLMnDfbflcpOgkTxTrLvPpPDgCxcxpVgjEdZ3Btz2705y2DhCgFiC4pd/GMKbnTETNDe11E2Mm/RdYl2aJBhI2AMHLHvIhUQDoEsfvUGg6eEJmHWNAUpV8FJ2rEUIwf7OCJ59fUgbzzHnINs4u25ndwzPtAwiBcNUT3VGdQO/FGAusW4oRjG1KBt19+djysRsRf3SSKDVXihG8cTyAiye5+d109g8CkIMJ4CwbJwBvLi+2AaOgs/ajgMRp7qPFYzR6IvUEfgeSDhBADQ2UNCSgYiBx5b78bWyXKgCBrg4DAeAfo3EWYaYGKY6bPntBbzzcUqWVh1Qqu2yrll7zPCr5PDMOieirngUsB0OII0K6yQufZynBLRMhRtaoyjMSzoCYELMWf3evwZxdoDC40nqvaPOewrGHQBmTcrC7KlZKL3ai2IfRb6fIC8vG+HwMIaiFKcvptDzv1F093lwun8YAGR76mLwJbJCkLvLCvHIvT4BQCGMeTEoS5xDsEZRW3vQNoALZ3odqioBx8IPnaQpIIZiFPleDxaWUty9IB/XT/fC5zVkHpws86vQ0AiO9QxjT0fcGf6MwdGEYqY33nTfJK0EHv4kYQGXkrBwlzyRX3HCBJsmBp6EGPjRr/vx8dmk7BjSBLjJlAEDKfxDRQHuKGOAWaGPJrhW+RAzKywcCg2N4M1DcbxyMOyMIXXOSpjAFQtysK4q4ACQ82N3J/CQDjyOsDAQSfpN4F54fQDvHh9OP+OshqWea5bk4Ru35vLMhRJ+OQCSuVbRhACiHB5p7a4IoEWhGEXtXYVYtsjnWEUoTCl9pnMYbBCSnbKB03liN3UNxShmTcrCD79RYIcK7nyBmw1tua5MlEYzMP9x8wV9AkDkDeD8/fzBiWYMp+QB3DAcxdsKFSFWMhf0394WdM6uwhQAQTUKzdsic/x5BT0BFDEF5RyYboTgQfpTrw7gyKmEM6Gh8mxR82OTTAfoDDxcwXNmksULot4Hnm8dMhOLOlVQjHLtXYWWTbGYIkJjROhAM3fxYWB/ZxSd3XH0XhhBfIRauT7C7Z1d176mKcDnJXjqgQCqynwIRTFqCJNMGdi6exCOieRNK9GIRVmOB9WZFaRuf2cUnb3D7plkSrgq2LZEsLysbZVH0UQQE5x4IoW6nWHk+c0+8r0ezJxkOLMnkOsCtpQ+fG8hcjwUu47EEfAp/QggeowU3uyM4e7yPGsJJpsqNSXF2XZLSakUH6Z44LngqBkReyGdp7dvem2TvrOQ4f7nLjpWOLrsiYN/JtxWKqx+53kc/jPR827xT5MEJYUe/Hz9BDm20+DiVFuNiooP/+79qA2U7hOm+N8227CBE9tVGaFy3dEmD4SCGIDHk0TAR/De8Ti+vS2Ine+EzRS9JjtsmguKTfdNRCDXxXtYE08MoPv8iPnyKg0WIsmvHjWSYBrgFFo+iLiHJUz8PUl87+sTzIpiGAIo6kplmwelTB2cMlAGZMBH8HJbGI//qh+hoaSUqVZnou7+fIRimrYFNQ74CJrejth1CXXnC25vz6g4QKD9eIwvo9I5iB8uL7RTVKxI6lxAUjer2nua2FG4DvgIes6PYP0vLloAEocEU0oxZWI2au8qlAEU7Z9F3edHrJf3jHl3njVvz1QGCXa0xe2MssI8iJmtXTDdi7JZOaaxlgYqtk/0Eg5lQG6kxpEWP8Qwy9a/GERoaAREHLPVGaUUyxblYGpRtl1f026hl+DND4cFXt14dtvcaI3TjOuG+UJcmikByIEERW11nlRX4NuW5LR2jeo9sdqveE+zkvnxvw/YfLAL1j8I1tzmM6WP1VXaIAbw3vEwYgkrg0Pg7NsiFytqQ/3esYT1Nks/ECZ1ptdjdSHPPFMB15jJCYSTJSJJm3TNWvFQnB2gwg4ou3kmfYvn+WzpkypT/jeUSOLkqYTMnyZUcQbJkppRdHySgIGUzLSwohhIUHzjFh8kJ8EZttvh7bNbGmZc3RsbmGr31JUNzJht15E4ei8MK+pr87P8Jj+SKfcdxYVegrbjCXEQyphMMhyFYsw2lERn7zC3KdJgLOYDPoKyWTnyfUdnRPjQlWvqiuTiLLQvhQhFoZeg8Y2w2QFhk2p/LvlKlpxwFfu2wpbOT5NwhgyQPLozVLGiaUKAP58dcTIqDICmgMXX58BUCbuuPHAHEsKHGNJo6rqRCpoCPDGAI6cSlvQZktmgKSCQn4VZk7LstjSTdrp/WAh/GLCQ1r6a/Xn2+D4LQrZ3irMYSFDML822QVDVRHIQos5CGpDDsbiRS2qJlwnSl+/14J2PElBsEe/+5utzTNVNk7KShEeoy8iptlJly96JpHi5GVPYDEoPga8gJBuqENUVXWKoInpN4dpjpLD/v5ndIjZPVsdzrvWYqusiefneLHwW1PAqkNNqcmkhOBvUpNYF9S30ElxTnKVJahJZsnR9MHDZDZ3ksv6+4JszU/VGZNWz6KpiS6N06SoABpI4cy7uqCeSZnMjN34YiKRkZ6F0VFLosTa9iDGcm9o5ja9tSzRxHK9GRo/z0rxBs1VP9vgTCjy2SdJFEgCiyRxIap82VGFSY9G58IjdqGZweXzDoOjVBGbEWE9c3qiTyZmm+jIIfKlxng50636+1yOonq0FlAI52cR828fa1sSPfcGYo65Izj3JVnbXscxSiKYAT5YUa9jgO5ZnRDIH7HHJHrqppkuWmvfjJpUWRSJJu0/BgREC5Odk69vVjziNw2AF6WItN9USidln3bXoTSWbp/ZLcKxnWPhKndfpeNGWUb1Hd7F5ZhFbiSiaY5GcSRZDCwJ5VqRsrxSDpCdRVbnkUXPqxdiOgL9DeOnNkJX9VWyimgpjg1XvaQVA6NeKS4fiVgLAJWtD6LAwTlbXJgE8GRBCgKvysnBuSLELggQORDSZWS5RRGlSQVHBn71cenLHEEKRlPPNnNSHBji1zKJJRaJ9MPslhvmSKJlU3vOqDrHY56gr8iynpASQAaAw19BvgraWMOfCI+YGGFVL+OCEvqkAmmJ7CAF2HzIzw4ORETnpKkp/Gq+qU7+hRBIT84TN2UK/FweT+jhP6NOAsL7VKJustrwB85+SYh+6zwrpKNY4W/tGgYFI0tqGwaRAHJDQIRHKmdkiymtC9cWSbj2tA8tl3Q1QlF6tX4ZFEoazjvBMCgZKr/Zq4WGUNiV1dWESKRh6tbDu2XEUA84hhnY5hEcJQWd3HA8814/us5o3cm7qmCYlpX6fNSnL2hkq9G89cuJzc0+01mNbUnttsVBBig5Mcnlva3Z0/VSPnX3QeLl8rwddn1mhgFJX4MRsWJA2dlry8VcH4DGSzm2tKqlASdKlqUsokikPKhfmOlmxtOo/j8fkVJvYtkV8FeIyNOd5W2YbAFvkdfaGmkGmuX501pU7M2eWGAS9F0aw7oUg3jo24kztjxbrqdfiPcXbDiVGsOQrWdZOJ3uM7IXWkVMJ99UTNc+lXTNB2N2vmVu95FkhQyDfM2rO/3T/sJ14tOqqbZrSZmD3oZjtFNToXgfcWNazmrrJlIEVC3KsF+OyuQCAwyfjcl2lT5oC/vZaw0xnMZVPq7bi4HkgSfDV6wxn6kaQlnyvBy3tUdjxkjI2gyCWoPjRr/vR+Afz1KEjuWq1lTYJkCZ1pKt736159miVx3cfitln0dR2iZkdX3R9rllfrOuqto5CE8Wvzs6xXTrrQGDeY6Tw7vERK3shxDqWxHWfSTqdgo5UOybedwNV9ZLU3Oqx/i6/9giXyU9Kzo67ePGFM71SXR0p3pZK4QWlQNksn3w8VGtgKXa+y9Le4A1QCkybSBDI1Qxa/NRJmtuaM01AHIpR3F1WiK+V+Z27nczK2P52LO0JSPZCi3tpQR5UUmwe4WCID//9wlxbdUUVYY5D99LF6tTnJXh2TQFnzNGfo29o7VBab0zNXadlU7LxyL059q5ONmpiSl1ndwwdn4blrRlK2wMJinvm59h1pU+ZFLWlmhmmqFokqK5LRF7oJXi+dQjc9ll9Msfzi9piEA+V31qpaSWN/XGVTqEsFKOYfbUHT68tssfK7C8lPBj/l9YB28O79BvwEdwyl+3uErxEWocheRUeEFmDz0JVmQ80KQArpoQA841T77C18UYASABw+3cnYfbVHnPPnEgqUDpSJ06wcSsW5OCpBwLy5kS2mrHMyM/+4yKSSeX9s+JoQjGKmtsKFNttNSKqsAM8EUSHSaD4VkUuBmMuqmsR23hj7jQSmYe06XDjvflIpjzmYFTVVSVfJ40wpS3fl4VnvqlsoORgWx+EYPehGN75OGWGR7oJsvoM+AiqF+ZY+5Mh8Ea1kpdmT7L8SQzrp0AOxeTzFro1L9/n65FOzrDGCTHDl9+9H8WuQxF+tMD1OIJFyZS5N2/WpCx8/WYfvlZm/kKEvX9SnnnpKBjbXuuSzgpFYR1a8Y260Vx7cE9auGvSSvFhirXPn0/vHQHLgHvw9LcC/LCbPW3i4EyJ/OhPcfzXx3EcPZXE2QH7YDIjtit0/kwv/m6u1z4O6hAieYDSxnOdrWa1kgQzJmXhmX8qkg872w9LzbscGXUCJrZBDKCzOy7/xIYYa1nAMXIeQdK3b5tIcz/JQDiJcNxsLy+HWCe5bb1xSIbAJ9sNKp0XVkkBMhSj+OU/F2PKxCzl/IXQgXCplzw2eBU43o95lMCR6R2FMXtHPHFugXWgADVhKx+719pku54jxTXK2jkUo9h4b759VEo1WRoWx/QbA87v5ichwOO/6kfP+RH5ADIfhcxwMulBINfAw3f7+b4WNzvF+wSkSdMOng/G/Dx4NIaf7YnCQNL5GwKML9HpRIGqMh8evrfQeVRKGjukMveDeyQN9EJYEktQrHnugp1OEgfnMtuhGMWC6V6subMAs67xcJTkwzdjAVOUTvOMb9PbEXSfH3E/H6Lwl0yadtS2c4oN0EyS3bfW5omMuugHN5rmO4dHmwbcd5mrgwD4USrmMc0DgSyhLRhx6lRfcSShoRG0HR9B6wdRnO53Od6giQTY9VX5HvzsO8XcaWntPR+v4EzhBp7MnzweSRiZ+pq/WPHYy0F9GMAG4LIeZfuDy6Zk48YZXkyfZGDyJC+uKqDIEU5BXhxMIpIwcKovjk9OD+PoqSS6z5se2eFJ3byqUB6KwnIQ8slvGyzN2IWysZ89U8FUOiCE4NEXPsLZ8FUgniyt19WuVRViMdxo5PqbBWPslybj6Dn1Ee4sm4qnHioTfjcljScCJJPGwMvSPMF6drprh1c07c3OQ5/i2vzPMWP6jSCeHDgoXS7OGiQ7X6GldOtbFy+qs7uxcD96+/4HALD7aBxrziSFONQxPOEesyFyoX55Jl5LTDltwgu/j+Ja6xd1ek59hOHweecA0g1ed18s47y4AKcjNTdICYbD5zlwRXl5uOHaGfh5a4gPiwuLCCQvg4yLRZqUFOvc+nSNqcw14+n+YVw3YxG//1lfDy72dYEmRyTmHethXRJyLCkptW6alUMoRpGIxfGnnkP4rK8HgAnchJI5/MTP/s6ovHfZYdvZzXTgcTsnPm9JGnflDDjzJQpLq4NQCcD+cBg9pzpw/VVx0BTsNJQiDWNOSbkB7bLIZycdn/lmIVbdlMJnQ7YtnVAyh9cN+AheeiuMWILadlSyUkq4onSnqC2xQRMriRdW+StvD5rvPQWJuG7GIhTlmecxivLysPkfp+HlRydi1U0+ALZ3daibLnenemgdiEJbNGVnWjbem48dj5WgbJYP9985HfMmm+d9r5uxyGEqkikDuw4KOTIVpDT2UB/nuTkdChBDObCssVvHP+3Bv33vRpTNsvd6xBIUh0/GsftQDJ29Lr9O4UjEAg71FJ4Tfx3jttkG7l6Qz/sUf7qI/1aomlkR8njS2lZcg3N+ZEcJiN5WBG6UUOW9YwmQlAc0leI/h8aepylg2aLZKJvlk9aKOdkEi+f5sXieH6GhERz+JMF//o2dMDJ3alLHPugUVxDzfWy+14NALkHZ33gwvzQbC6/P4T/2oIZdlFKUzfKhbErUXk4qQTsAHPlTElMmZvF+ZNJLk8uPDwpfVECF4LjxjbC8AFdnkUXuShwlrhwoBQbCSfz57AguhFM430+RTAEXhpJIwQsDCUzM98BjAFMn2EG0+Jt5rB03tdEe74e9XKytzhP4VWur5gNfICWleB+2SbqzO4YXfm/+eCAArFjkc/xijoOU+/plGOtU4xQA5R0DUfgEVDNECPDC64N49/gwhhJJTC3KthIVsprr+IOY64QOPF1KytGQ8IXZFIOApih+2xbBax/E8etHi8xjo8rv1unqqhIt9amWS7bKgaVMOuNOTLu7cst56wi/kN0Zpe4YwBMrp/MaSifW84QYoCnKf1tKy4gq0Wkck2u+z03CxlCXJQGIIeYVXSRX7Uy4dP91C9f8mmAXxU4s9WXvKhwvYZQYUSpzdmJ+qmVUGZyjXLjQ1WWXDCeVSTZkR5hCZKeptK3ZJUWkcUidqMzqgFLLiFiollPhO+uXyO0AQjiE9GVudR31qFwmtk2UulDKhVtZgCmGlDcoVob7PfV6tDIegIvlZPQ+dHVHbXe0uiRNmUtd1YFCiPOIu8sbJ5EEmMb/D6AMaBy8DGgcvAxoHLwMaBy8DGgcvAxoHLwMaBy8DGgcvAxoHLwMaBy8DGgcvAzoSwOvq6sLg4ODV7SPYDCIYDA4+oNfkEg0qvmvni4T9fT04P3330c8HkdRURHuuOMOFBSYB1r8fj+am5uxYsWKK9U9qqqqUFxcjN/85jdXpH39Se/LQNu3b0dtbS0AoLy8HB9++CEAU+JmzJgBAPD5fFeqewBAbm4uAoHAFWv/iqhtR0cHamtrUVdXh2g0ira2NkSjUTQ0NFyJ7r40uiLgPfHEE5g8eTJ+8IMfSPdra2u51KnU3t6OJUuWwO/3o7S0FNu3b+dlwWAQfr8fXV1d/F5bWxvmz58v2c1du3ahtLQUfr8fjY2NyMnRbHe7jHTZwaMpigMHDnCVHQu1t7dj6dKluOmmm9De3o7a2lrU1taisbFRei4ej/ProaEhnDhxQmpj9erVWLNmDVpbW/HSSy+hpaUFubnKUfnLSJfd5vWH+gEA06ZNG3Odp556ChUVFXj22WcBAPPnz0dfXx8ee+yxMU/C1q1bMXPmTGzevBkAUFlZiblz5yISiVzaAC6BrlioIkrJaHTgwAEsW7ZMurd06VIApiSPhU6dOoVVq1ZJ92644YYx8/BF6LKDV1xs/odpb7/9dkbtxGKx0R8ahf7ibB4A1NXVoaWlBR0dHdL9np4ebdBaXl6O3bt3S/feeustTJ482d6FBeDcuXP8+ujRo9Lz06dPR0tLC/9OUxQHDx7MaByjUjQapZf7r6+vj78i3rRpE21qaqIbNmygAOi+ffuoFZjTlpYWGo1GaXNzMwVAN2zYQPfu3Us3bdpEAdDm5mbe5g033EAnT55MW1paeFsAaF9fH41Go7S1tZX319raSidPnkwB0LVr11728bG/KyJ5BQUFiIQjqKurQ2trK55++mmcOXMGe/fuxS233AIAmDlzJg9gV6xYgZaWFnzwwQeorKzEvn370NraKq0+9u/fj/LycqxcuRIAcPjwYZSXl/PyyspKNDU14bXXXsNDDz2En/70p2hqakJJScmVGCKAK7w8+2un8axKBjQOXgY0Dl4GNA5eBjQOXgY0Dl4GdMXAc/1f/P6KaEzgdXR0YNeuXY7lVjrKzc3Frl27vjBjOvL7/VKebzRasmTJJaXGLpXSpqQopbj11lt5Ch0wVwbHjh27YgxdTiooKPjy8nnbtm3Dhx9+iN7eXhQXF2NwcBCvv/76FWPmL43Sqm1fXx8AO81UUFCA1atXS8/s3bsXtbW1qKmpcahpXl4empubUVVVhc2bNzteNfb09GDjxo2u5W1tbaipqUFNTQ16enqksmAwiI0bN0pZmvb2dp4MdaPm5masWrUKNTU12LNnD79PKcXGjRs5TzU1NaO+Gk0LHktI1tTUaFNJ27dvx/Lly1FSUoLFixdj9erVEkPLly/Htm3bsGzZMtTX16OqqoqXdXV1Yc6cOQCAdevWYd++fSgpKeHJz7a2NlRWViIQCKCsrIw/y6i/vx9bt25Ff38/v3fy5EnU19e7Oqva2lo8+OCDWLlyJRYvXoyVK1faNpSa2eg5c+bwdyUjIyPadjiNlnZpbGyU0kuRcISXAaB1dXVSKqq3t5eXrVy5kpe1tLRQALy8urpaKo+EIxQAbW1t5SmoiooKXn748GEKgDY2NtJoNEq7urooANrV1eXgNRIxeayoqKAbNmyQ6h8+fJg/39DQQAFI/VdXV485JTXqO4y1a9di1apVaGhoQH19Perr6xGNRrka3XnnnfxZ9kKbkZgWZynx/v5+FBcX44033kB1dTW2bNmCSCTCDfsf//hHVFZW4sSJE/j+97/P66uSd6l08uRJAMDu3buxc+dO5ObmorOzE4BpAooC5g8XPvHEE2Nuc0wvgAoKCrB582YsXboUlZWV2LNnDwcjk1R3SUkJpk2bxt93NDY24vbbb+eq6/f7L6m9sfAi9nfHHXdg1apVKC4u5n1Go+ovI7pT+lAlRaU0+Ny5cwGY7xeKisyZOnnypCQVlNIxH4jJzc11OCCROjs7eULU7UWQONjPP//cta086/j+Pffcwx1gppTWYcy7cR62bNmCrq4udHV1Yd26dQCA22+/HcXFxSgvL8fq1avR0dGBnp4e1NTUYMeOHWPquKGhAVu3bsWePXsQDAbR09ODxsZGbg42bdqE+vp6tLe3o6urCwsWLpDql5aWAgB+8pOf8LpPPvmka38333wzAHDPHQwG0d7e7ng3fEmUziC2tLTwdwEAaHl5uWRwe3t7aUVFBS+vrq6WHIb4DkJn4Ovq6sTjcLS8vJzXj4QjtLq6mpc1NjbStWvXcocRjUbpvn37eHlFRQV/F8IcRnV1NXcYjIfy8nKpz4aGBslhtLe3j9lhjCkNz+Id1SGMtXw0YgZbNBFi2/l5+doywDQTzAmNlTLll9H4O4wMaDwllQGNg5cBjYOXAY2DlwGNg5cBjYOXAf0fNOdSQTlgo6cAAAAASUVORK5CYII=;" vertex="1" parent="1">
          <mxGeometry x="248" y="570" width="44.82" height="80" as="geometry" />
        </mxCell>
        <mxCell id="ppNC7bBhxt5fAdMNGBPs-12" value="" style="shape=image;aspect=fixed;image=data:image/png,iVBORw0KGgoAAAANSUhEUgAAAGQAAACKCAYAAABcrO+mAAAABHNCSVQICAgIfAhkiAAAABl0RVh0U29mdHdhcmUAZ25vbWUtc2NyZWVuc2hvdO8Dvz4AACAASURBVHic7V17cBzFmf/1rCztalfIj2DHwoCIRTAq48dZhEPBx7MMWOQgKofibIMhuoOcE0hxduIr6oJN3YNYhVPBh2VyxOWAfeKKhw1JjMHxA6JgoLCPUyACglOKwUgYPxahfUnWbt8fM9PzdU/37MhGllKlr0ql3en++uvu7/Xrnp5Zls1mOeccjAEAAy9wMAvgBQhill1mExdlzGKQeJ3PMi/zvhBeOE0ymxm8wG0R3F+m5SVt+/pchNetS/vvjYmOVc/rlnPO3SpFeZnlzS0dqNsP0X4mk+FQSUwK9wkAmDRpPkbOBs/rVvWV0YIgubo+F+Ml/Ru0XGecTKnu6xAzlPvLXAOyxEX3zxXsWL24BuU7cztG+IQylLqcjIYRXtKsXKYr0JUrVRmpW5SXzqbaJ3XccBTtVOHM+c7J3HL/PLr1JV5XGJXrkQVw/xhoy9Ry3Y6p1qydUFKPXGMMzp9m0GHoZHgCeYmlE0Uwi3lhj8EzNve7O1g6oUwthz1f3JkIaX5Uy7IFl0iMbofcyaICxHddDygv9G2AgzGGXD/HzvZ+/KEzhQOfRpDKDWgmafgoES3BpDMYZpw7BpdNL0XVhBJwNQpK5IYvqjxSz1UkZwG8EAwsk0lzOdT4eWRBkjSE5WUMePXtHB7ensXhnjwSZRa4lccZpWUaxuGlXmIki+dGccsV5V7il+bBJTL4QKVBMVrSAhMKyXBfI1LcY5KV+5Sh8zxGtWgr46lXMli3I4PJlaUoIG+aC11jIa59EaSMzfl8uCePuReMwb/eWmmqEvBdN4d60S7SsrQNuY1A6YARlSi8VBAD2g/0Yd2ODCZVRhRlqBlQbUxJvD6hQbzF6qikm2mOSZURtL1/Aj/f/rkDWZ066tiZTg4jACCgP6Qty98wZM1qmHxJTuXldkeYBeT6OR7c0ovJlaWaTulgk6skXa5SB2SyCF9nNbwqmeTaStn8aj8OdBfEmkviMxqrMo9c5fV3yZKgmvhjimI0Y1LLqGcJXoZfvpZFdw8Uz1ChG5SyIP8uxht0vVi7unL7WqLMwobtnzvXFKNwJ1/qFlGuO1dM4dVEX0sLW039ljxPCWlKomKMoevYCTz+Sg6TKiOaRoIm1ihUw1ssPKn1isnUl8ejDHv/NIBX386BebFLJmnuKOqiSd8QdRy5nocI7XFa7pW5Vq/GSpG8/HF1064eaCorI/B3SiZTfZ3V65SsQho1L+nq6yke4/jP7Snk+t3QpZkrXZNaorxe/yy5D6p7KHERgFjkSO3IfIwxHOgu4IV2jnjUrW9CTDTeMeWaWm4YlPZ6mFyjlgXPaKI0gu4e4JevZeGNWYOkdOjLl960F52QpTVMDWSiEpX+0HFwzrH2+R4kyiyvvnbguhjJDH8qL2CeaFPcLQYmgnKNXT6pMoLHX8mh69gJsRbUzoXLo3U4rtMFAB/s1ShBCHMkMrcxDh8vAxgD9vw+i/aP8sQ71PZp2Ajl34ROJjHreINCVbHQ6YZjJkcMOhfqsKmBu1CY8PKCm0PUil4Lhk65rsmUMTAwBvSk8nj0pSyBubo2i1mqzjtNZTpenRHowqNJhi7PeLzxKMML7RwHuvP22oQrhufbCeaQoK8EhGxeb2FIOyYaYU77aiPcHNadqi+82Yd0ToW56gSEsXJdaArio7ym5B/kQSaQoOdNlFlY+3yPt88lzaOaV5iCLbiiRJpDdJNMZUtJiZFyh8EFWAzoOjaAzW05J1RRGmxSpp00oaZBQRpF5snyejzxKND+UR57fp919qFImKK7u5zwSTrg0G2peChLazzcbzjSKp4kdzC0bEtrO2+eXLVuUOxWPUby+yLtqu2F9Tid4jzeeIzjsd+kHRiseoFrvFxuRpSpynBziG4LRJQz5bt+EPZ+VQ5t758g3mGaXFOsVt3S5BlquS7fBSExUz0dqYqT6ydKS9CVBLa+mtV3k/Iat9/leh7spa6l9oHGPrWvAHgB2LAzg3gsKHHSazplqNZoAhVUeSZlmJTggz6Gcp2idMkemFxZis1tOXQdGwDzdYl7SV3XBXdI5KIlFzgfVOWIj8rEcYAxhm37+9D+UR6J0hKY458pqftioobX1E5Q+cnkh8HLdcGL2JVQDVyb1GmbcoIn6xA3N0D+7yZwUcdr0d7NLeCJPRkH5qqToFqkWlbMIoN4yYC0vKbcE+SBQby6cpviUTgw2NlSofeDgqKna+Qk55DtdxVBAV5+0SRBp2zTzl4c7sk7lhLWK9ScYQpPppEEtRtGro5MvGFCqb3PtfrZz20YLCbZYOS65h2ST52IvjF5vkS5l4SYZcPc5/YNKLu5YehUwkoQX5hwNljeMGiOIVFagj92D8gwmBq5IK6ySiSfOhGVNCiHwYcUzDBXpfATn85xpHMmCCx1hrQ9WNgLpPoHcLgnDwtBxqTn1ZfZCf7Rl7IeDAZk2EtCk0mWJeKcmmzcRENBkOOGjDG0H+hTYC7gnyh1IEEDtJWx7MYYZldHkM7pO+znHTwISOc4KmPA2jsqUEAeqX7TyZdiHiWXFZDH4Z4CNu3slfuntR8lnIkcEhRWBYaGlKh4geORF7MOzJVahaI9pSeqhXnWfbgnj2U3xnDVzHL8yy1nYMYUy/EUHS9tw/RdH7hT/QOIR4E1t4/DzJooftpUIa4HG5O/zzqPmVQZwXP7BrzdYJ0dCU/xK1uz/e4mCbWqXdGFuX/sHnBgrq5yEKx1Zdg9s1CCwz15rLw5jqtmxsB5AdFShpWLK4lSTKEijGd4dVL9dp9/2nQGqiaMAeccVRPG4Of/OM4pz/t4/G2aPFK+JsI5Te50DAaMoNl+p1CNS/IZY+hJDaDlpc9JIi8GX5WOkF5YiKC7p58ow6nFOaKlFlYurkTVeEsJKTrlmC3WG6jd3582VQhluLKqJpRgbdMEAKqnnBzFowxt759A+4E+54Qmg3wGwflO0gLZfqdj0CQiiRie+m0arBCBPAlBYQrksydMVka5UAa1gPc/7MfRY8eIJ4oRkbr0vznEFZAHK0Twu3f6oQ6Oc46ayRGilDxph8osBlq88njMDuuccw8Q0SG6/x2gRLbf4a+oHG8EAMaAA915PLdvQLObK9fVhymZp7unHz+4qcLxDDnBMcbw6ttZ3POzgwCAE9nj8BuAjnRyPYpHGdbtyODJPRnvbh8AcDsv1ky2FE8ZLHDw6rgweNu+PmexCJKLOUx7iPrtd4k8b/nFb3o1nQhDXsMWIkjnOFbeHMcNF5d5nuEYtY3gcrjviQ8xPuFB0hPZJMyeF54mVUbw6E5FKc6E2Z7iKcUPiYNhr1o2ubIUT+zJoCeVJ0pxPhhsx9IWikRkzxKzTDA3XMcooujNDeCmuhISpjwQ4Srjnp8dlJThkqcUs+eZ++CRq5SnXsmI0/iiNgdqJkfw4C1nkDO+ujEW9xgbBufx1G/TXjNGNjeHqOFYGKHnprn+Ah55MescWjCtB3QQVD9xiVgJYbGvF1OGS7Kn6OQWIw+ertthK8Ur8voYj49Bqveo0vfBJ/vJlaUODB5QniZz2vOtQ1TY6yZ0BxUwxrCzvR9/7FZzhy5hF0t+GuJw7sUPYNV/HwpQhtemrJRiHqKD2/bnSZURtLzYRzYF/dz5/oyWN6h/lNzdYBsGa+oYYS/313AnSoa5QYmTKX/mjgZT8RDh95Qw5O8zt/JIp08YRRfyOUcpg1G8TDIMVnnkvOi/HyIMwZ7UTXsyDszV9NZ4jZYFKMYIXsIBBrNSgq75PSseHxMo2lOKWkkXpvXy4jGOHz9v7wYziV02cP8hVSeh26cP89j+Fk3kfo36Z1W3TlB5T5b8KEuPvnTAIxgSi+sUaBAq5LOOUrifJ3C89v9EaQm6jjNs29fn1RNTQlGoVtl2zQ3bPwe31EVSsYEFlSnXA/Wjy0WqbLtcj75McoMWd9y3/qJt2ErJKtfDyLX/T6qMODB4QIbc0oJZ7SB3F4EF7P3TgLJKNg1E14mgOq4gQ5FohyGdK+B4Ki/+q3Xc64ePHCWbkR652/mHe/KnsC/m1ZHDVyCO1dLhnjxeeLNPU2L3pURu1wtwL+5Lk7O5tMODXQeovPQaD2RP5wqoGmfh3sYpOHNcBJ1dA3hoy8dSef20ctx5wyQAwO/e6cfjr3jnwtI5jiWXR3HZ9FJk+i0825bEb9+DEoJdclbP2v7IYy7ks0A/ECktDzF2mSZXluKX+zO45YpypWm7/RL5YURPaPvBPCqiJQ5so1BMFzdNlsc0vCTeh0Cu/9F0LqomjAFg78wmYlNwz88OoqyEYca5Uay87SxxM+jmy0vwydEevPQH+0HSm+pKcPPlcSFzxc0T8PGjSRw4OoBEacQvWHzVQXq5YiGfU5Ri8jZ53AXkkcpxdB8fsJ/wVVr2cgiZK86BVG6AHAfVJXWmXFdHppZp6jjVOFe7ZVv/jHOjzmPJ7isqOC44pxRlJQx9Axxfu3ACGLP3obhzpnN+/SSxoPvaV8vEeNx73ZdeUOagRoMVSMhH12+P5PClwn2V3ytjhQgy/fqHfiydYuWTE2HIj36C68kkv5fErhePWjj6eT9y/Zws2hj6+u2Xh5SVMHxy1D56Qx9o+rDL3m87kT2GY2nl5SgADnYlcSJ7zNzFwaUEDSQOR+Wl5BlrDtP2u/dx1tmW4d52QD7wlYVJ+IDfQex6nUfyzsMxEJ6w/vlPAADxqIVf70uh/UAOABOP0LX8uhtlJQzxqIUnXupy7twxsTWz+50M4lFL2UE+NQpWiizDQgTxKDC+ImJ7tbL9XiIxEku97q8SeKG9F/GoaSvD5JphML/cYb+H2DQ+EcG6Xx/Cjv2lmHFuGf73Txl0JQuIR22XiEct/GDDh7j4/Bgqyhh2v5MBEBHlXckCvvvIQVxSE0VvH8fv3s2QrRnuwOVKqS/h1kv+sOLPKXK523ZvbgCzqyOIllraUF0i0IUb051cO2NqGWaenXESYAnkiQ4iE+zVLNbceB2AbMYnIvjwyAl8eMTe3nAn26V41MKbH2SVMi59txUFRxkykrDzzfgQYwgai01mpRB5fQV8q94BGpqmvO13FXAwoOmacqSzxay92NZJEC8CcpXHE49azp++Hbdc5lX5/ckVgPLYnYmCVudyPXP4stdD9VNLMLOmjDxXIsuwTPPJOTCzpgzzZzJlwRW0TVEMLioDcxK1xnMNFHbSBlNG6mjv4pk8QhfavPDlVwpDqq+Au29MKDJlXvP2u3Px1qtpjDVR2BlVBubuVoRCNqoMHeAIqq8ajqZc24+gzinrKkKqUtI5jm/9dZlzwMIsU95+V2K6e0zmproS4iVBISwcfpeqkGrpnAtTdZMftNah8nSea+ZN9SkyA21LV2ieD1cpFiLgVh63XlkO2Sv8bcvb75K3eBduvaYCFdGC4dhlUGjShTpNCxw4ozyCq6aXO/tVJgQXhoLCpEzpXAEXTRmDMytInUBRYfvhtVfIZ9F95BMsvfYMVCZK5NwhdU2ELKXDzKlJVu3RUgt3XhtHd0+/RqhuAnRW42k7oi5Sub24++dFZ+HK6XHNJuJgKFz4TOcKOCOax8NLq1GZiHgvugydz4IqemNN5zjOOzOChroyP8wV1bzr3lO4kjHLsY1zjitnRDHz7Ag5tGayluCYy608fvN2v3cg2dGf29eVtw5GKUEhxNwfVxkblp1vW20BAu0xyx7vM7vtBaZeXpglgF3eN8Bxb+MU8kpDXWj02tJuv6uJ3U68lgKD1U76pGiv2zdqCrj7v3rs+wKWZxCc269RXXlbFS67sFxRStDkh1/I+ZXB4b65yH1r3ANPfIzt/5dWoDRNtuFCVzpXwGUXlmNmTdTmY6TPbiQSTdEcwmkFRaCwYI6ZNWWYe8GYgEPQJggsDyAeZeg6XsDyX/R6N2tcCFwAGGP4t9un4LILy0miN62gw1orF8pY+70aJ557k8QcL1395MfY806aLCLdPzUM0zI99Q1wfPfGLwPgmlW5O7G0j+q5LDB4Lw0gwklbSxviGtFBqEif4GWl5KUHJjkHmMXw79+egnPOHKNpk5IEEYv2Z+33ahzoWRBRwPWM1a22Z/hPvgTlST0dT+Wx+MovE5irCaWaZvT31BmgW0G7MHjx3Khy9y0obpthoU8pFkAnc/f+HrFlop8UCiz0AEL9/szLR2ArwTZExuy3W69+kirD1K5KunKbd3wigpv/xr0Xo0Jd7qUGhSyDAcsylYHNv7gM8Sg9ahkamvgajUeheIq9M7t7/2d44H8O+/au5DaKTZb8PR618PgrPVj7bLd9xVVGa5fiGaZ2TchSlnM8lUfT/CkezJWiEEeRl88QGZI8IpSUcQ5UJiL4zrUxAoPDrEN05TYvVUqunwtlBJ1g1LcVVG7/P2fCGDz7ei/WPtsNXtApI9zayVSWzhVw/uRSD+b6oidRDnO+AwLckHe/kxBEk7wBWTAG/MMjn+Hjz06EOAgRjtI5jqrxFg5+fMS3c+uNgFJQGS3XQ9+qcZa0na/nN7Wrn5fjqTzW3nUuZtZEhdX73nUMQH08gbz73dGi6V2Arsv5jJ7he9fFNDDYNDDdZ5niUYbejIWx4yaQq+Y4TRJekXJ6nTuyTMoIYwD6vJjOFXDl9LitDBdVCS/Q9EliF7CXFR+TDxYDnBc0MFiloLWDvtx93n1MbJyGT50QU2gMsmqav4IOj6u8apkf8vYNcOcEjFOmvotS0jVRGPkgmwfXCKLeSVt2PEoPg2UhxS1NJVuoXimm9ovFe5OsIF51DWKqY4eq78yfYsPcgtuu8+dGIF8znMy5Td7C0G0DlFmXU7xyzqHA4JOhIC9iGBMbH1BvsO3SsjDtBRsM9bjxCQvf/HoMkkcENuPwKgBK81g0I5OvuhuNfVz8ffPrMQUGmygMbPRTWawyBE/QLOjKgsqD2vVfO57K4+6bzrLvkxdgtjEOjS3Ilf2vGidJW1IAjXUi0TOxGyzDYBrb6WedsCDIbH8uIELC18l64tCQC3OvnEG8gxqx6C4p0xm5Q5Y0ATQ0+cZNLohE7/FeOSOGmWdHNCt4XR4J8hQdr/3dVsrgvOtk1hLFy73rfQMc//x354i9MIlMP2nhtqFu4kLaficMIodwwSu/UN4VZl9zNwSbriknd+BMpMHkvnITqYk+zIQGeaAxPAh5QeXHU3lcPyuOmskR+eFVMclMY4ckD2uMVd5+F+UaD1F56btQALEbLB+KKAZ7KYXNL26iVxUbJEunBC0WDeiXn7eshOG26wjMdYukRK3Or5KHhUi7Htl+N1iO9FUduGMBxDXlQxHF4CKFnLqQZiYZfanhTSUG37gkOSZPNXvT8VQef3/dWQTmGoi+C9knhpFrdj2y/c58dSXYKy4SDYs+O6HLtxssMdNeBo0goB6FKTSnmDwkLKAYLIKzYe7fXhqDz6DUYYvQz2T7MzRtydy0s8QF1SL3g6/MlijDYFPiNk1GmDKv3PYU1UM8pRUZhKF/1Ov85cdTedx9w5necVBqE5IzEjmqgpRk7pLlQVjSQZFw1AYpMmDaqMMLQLSUKTA4iII8SVfPT/oVfbEQVqxcTy7MvWpOpXdYmjYpOSOTFSGG6nqL51X+d7/LCFP+IH0nyEFngA788x+KoKSzUF0ChqaePnnbSqEhzUTFQmiwYbgwV8wwU/qrC0vqPNKE7kYz/7vfNe5FJ4dprvkYvMTlwmD9bnAY6zSFGRMvQ1lsLGTr1/U1CHmp7cvKPZ7KY/7FExyY6/CpLwqlAMk3j85nNcIQ8m+/61yO3menP5To4/W8xz0b7N8NLo6gZCqmCK89eUVPeXQILmx+8crLShi+M3+sXJUaqviuiyxErhS+ZLmeh4jQRbVLOif6T0Oc07juZ5AcXnk3WDWJMKElyJvUJGbX1y8ede0VC3Gyd9zTeI53WkXHow0GhsjjwwxuyKJa9YEtommpD1wZi+t+XOLlBXs3eMnlURzuycNvGjrlcE0ZlDKTlXu83jpFJ8slXXL310vnCjgzUUDDnDJZNkVM0k6HItctV3OzBm3Jp9/VUErHST1Bfa9vAC/nHN+aW46ZZ0eIUpROGSbCT0HhxU/Be1/FvNMedDpXQN8Ax4/v/Krz++uaPlGEpYZ8wB9BVF7SR/32O9Wa6laBPyOq4eUAs4Dmb4/F3AvG4HCP6bWsVDHFkn5Qwpctw6wUkzV57RxP5RGPWtjwTzV2Ii/wAD3SUK5cU/cBff0mkn0/cK8DJO511WN07et+qMRRCgDsbs/iuddyaP/oVA5UD55SvUeVFyEY6jmbo+dMGIP5F5+JW6+p8BaAxcatFurmTBepGeiPEzu/Fm34xRfP+EhL9JrucISaa2kV53PXsQEcSZ5epYSleNx+RKEyYT9bydXTrBRZqblX9RA1DzNlctyncKVfiwbkyfPBORoLFfVKClGVaubVPzWlIiZTma5eGF5d3tIjNQ9JKXLVKGCweO13vSj7nzMhJRKHyLeuQHWCFSRBkxmDn0f6eVaZl6vKEryGeRMWBYAVyOSQa3SSJJEKglNfhyt4ST/kCfH4xXt4XbnqXBGvYZA9gjG5OTqPzgd/DhmlYSHhIaaH9kdpeKg47Bil00qjChlhNKqQEUajChlhNKqQEUajChlhNKqQEUajChlhNKqQEUajChlh9BehEM45Ojo60NvbW7zyKVAymUQymRxSGcWIZbPZEbO52NnZiddeew19fX0YO3YsrrnmGlRUVKC3txcTJ07Eli1bcP311w+Z/Llz5+KSSy7BQw89NGQyitEX8zzzF0AtLS1YtmwZAKCurg779u0DAHR1daGkxO5mJDLY39wdHE2aNAmJRKJ4xSGkERGy2trasGzZMqxZswbZbBZtbW3IZDJYs2YNPvvss+Hu3mmlEaGQBx98EFOnTsXSpUvFNcYYli5divPOO0/L09nZiUWLFiEWiyEWi2HVqlXeg/qww8/WrVvF92QyiVgshs7OTnFt69atgn/jxo1DMLLB07ArhBc49uzZg9tuuy00TzKZRG1tLZLJJHbt2oXW1lasXr0ai29dLOrs27dP613ZrP2O37a2NixcuBArVqzA888/jzVr1mDbtm2nPqBTpGHPIal0CgAwZcqU0DyPPfYYAGDbtm3iTtuGDRvQ1NSEZDKJcePU0/B+evjhh1FXV4dVq1YBAN5++22jN55OGnYPcamvT/cjJ3pqb29HY2Oj9IrySy+9FADw5z//OVQb27Ztwze+8Q3xnTGGurq60H0YKhp2hbio5s033wzN09fXh8rKMO8T/sujYVcIYwwrVqzAxo0b0dHRIZV1dnZqF2rTp0/3JeGXX34ZAFBdXQ3AhrAHDx4U5a+//rpUv6GhAb/61a/E997e3hGRQ4ZdIQDE+mPOnDlobm5Ga2srli9fjtraWm0IWrJkCQBgwYIFaGtrw8aNG7F06VKsWLFC5I/bb78dq1evRmtrK1paWtDY2Ci1ceedd2Lfvn1obm7G9u3bcdFFFw3tIEPSsCd1AKioqMCnn36K9evX48knn8SJEycwc+ZM7Nq1C7Nnz0Zvby+mTZsmwtt5552H/fv34/7778e8efMwbdo0tLS04I477hBtrrx/JVKpFJqamtDQ0ICOjg40NjYiFosBAObNm4eWlhY88MADAID169fjk08+EShsuGhEbZ2MFOLc/JsmQ00jImSNNBrOs2qjChlhNKqQEUajChlhNKqQEUajChlhNKqQEUZDvjDs6OjwbRzW1NSgoqJiSOWa1hKtra2orq5GfX39kMo/WRrShWEymURVVZXv+t69ezF79uyhEiuotbUVs2bNQm1trbgWi8XQ0NCAZ555ZsjlnwydlpC1a9cuZLNZZDIZZDKZ06IMAGhqasIbb7whXfv000/x9FNPnxb5J0OnRSH5vP20rfvLB4B9p3D58uXSLdXOzk4sX75cHPfp6OhAc3Mzkskkli9fjgULFki3ZV1qbW3FggULsHTpUuzduxcA0NzcDADYuXMnmpub0dbWBgDYtGkTXnzpRcHb29uLlpYWLFiwAIsWLfK139zcjI6ODmzduhXz58+X+jcUdFoUojstkkqnsG7dOhw6dEhcO3ToENatW4eBAfvFAgcPHsTKlStRVVWFRCKB6upqLFy4EDt27BA8ixYtQlNTE6666ipMnDgRV199taRkNX899thj2LVrFwDbKCZOnIhly5ahoaEB559/PhYuXCjuIgL2aZg5c+bg3nvvxQ033IB169YN6c7wadnt/clPfoLNmzejp8f+ue3NmzYPin/Hjh2YO3cuAOCNN97A448/jnnz5qGzsxNbtmyRzmstWbIE1edW44c//CFWrlyJxsZGLFy4ULSVSCTErvH6R9cDsI8audv2roK+//3vY9y4cUgkEqirqxM5Z9asWULpQ3HL97QopLq6Gl/5yldOmt9VBgBccskl4kbWBx98AAC47rprRbk6SUG3hnfv3o2GhgbpHvwVV1wBAHj33XdRX1+PVCqFhoYGUT558mQAGLJt+tOikMbGxlAw03QQjhe4eOMaPciWTqcBAIydXOTNZDLiDqNL7v2S4aLTmtR1lEqlxOfDhw8Pqt0vfelLAOC79av7nXIdVVdX+24Fv/feewCACy+8cFB9+aJo2FbqFRUVmDZtGu677z50dnZi69atUqw3EVXgZV+/DABw1113oaOjA2+99Raqq6vFbd+6ujo8/fTT6Ozs9CkNABYvts9xrVq1Cp2dnXjrrbfQ2NiIxsZGEcYGaySnSsOGsgBgy5YteO+991BbW4sf/ehH2LJlS1G+RCKB8nL7B+SZxbB//3589NFHmDNnDurr67FgwQIRhtauXYs9e/agtrZWrEfoDkF9fb04ZFdbW4v6+nrccccdEuiYOnXqKY19sDQibuGGPdxWrI2xY8dqt0t6e3uLbtUkk0mMrRzr/fLoMNGIUMgoeTS62zvCaFQhI4xGFTLCaFQhI4xGV7hibQAAABNJREFUFTLCaFQhI4xGFTLC6P8BBUbvVqH/Q1kAAAAASUVORK5CYII=;" vertex="1" parent="1">
          <mxGeometry x="241" y="412.96" width="58" height="80.04" as="geometry" />
        </mxCell>
        <mxCell id="ppNC7bBhxt5fAdMNGBPs-13" value="" style="edgeStyle=orthogonalEdgeStyle;rounded=0;orthogonalLoop=1;jettySize=auto;html=1;entryX=0.5;entryY=1;entryDx=0;entryDy=0;exitX=0.5;exitY=0;exitDx=0;exitDy=0;" edge="1" parent="1" source="ppNC7bBhxt5fAdMNGBPs-11" target="ppNC7bBhxt5fAdMNGBPs-12">
          <mxGeometry relative="1" as="geometry">
            <mxPoint x="281" y="152" as="sourcePoint" />
            <mxPoint x="280" y="250" as="targetPoint" />
          </mxGeometry>
        </mxCell>
        <mxCell id="ppNC7bBhxt5fAdMNGBPs-14" value="" style="sketch=0;outlineConnect=0;fontColor=#232F3E;gradientColor=none;fillColor=#7AA116;strokeColor=none;dashed=0;verticalLabelPosition=bottom;verticalAlign=top;align=center;html=1;fontSize=12;fontStyle=0;aspect=fixed;pointerEvents=1;shape=mxgraph.aws4.bucket;" vertex="1" parent="1">
          <mxGeometry x="650" y="414" width="75" height="78" as="geometry" />
        </mxCell>
        <mxCell id="ppNC7bBhxt5fAdMNGBPs-18" value="" style="edgeStyle=orthogonalEdgeStyle;rounded=0;orthogonalLoop=1;jettySize=auto;html=1;entryX=0;entryY=0.5;entryDx=0;entryDy=0;exitX=1;exitY=0.5;exitDx=0;exitDy=0;" edge="1" parent="1" source="8A6DmDLIx_JfnRXrwLuJ-3" target="ppNC7bBhxt5fAdMNGBPs-12">
          <mxGeometry relative="1" as="geometry">
            <mxPoint x="280" y="300" as="sourcePoint" />
            <mxPoint x="280" y="423" as="targetPoint" />
          </mxGeometry>
        </mxCell>
        <mxCell id="ppNC7bBhxt5fAdMNGBPs-19" value="" style="edgeStyle=orthogonalEdgeStyle;rounded=0;orthogonalLoop=1;jettySize=auto;html=1;" edge="1" parent="1" source="8A6DmDLIx_JfnRXrwLuJ-4">
          <mxGeometry relative="1" as="geometry">
            <mxPoint x="280" y="580" as="sourcePoint" />
            <mxPoint x="270" y="500" as="targetPoint" />
            <Array as="points">
              <mxPoint x="350" y="607" />
              <mxPoint x="350" y="540" />
              <mxPoint x="270" y="540" />
            </Array>
          </mxGeometry>
        </mxCell>
        <mxCell id="ppNC7bBhxt5fAdMNGBPs-20" value="" style="edgeStyle=orthogonalEdgeStyle;rounded=0;orthogonalLoop=1;jettySize=auto;html=1;exitX=1;exitY=0.5;exitDx=0;exitDy=0;" edge="1" parent="1" source="ppNC7bBhxt5fAdMNGBPs-12" target="ppNC7bBhxt5fAdMNGBPs-14">
          <mxGeometry relative="1" as="geometry">
            <mxPoint x="302" y="440" as="sourcePoint" />
            <mxPoint x="450" y="440" as="targetPoint" />
          </mxGeometry>
        </mxCell>
        <mxCell id="ppNC7bBhxt5fAdMNGBPs-21" value="Deploy the function" style="rounded=0;whiteSpace=wrap;html=1;" vertex="1" parent="1">
          <mxGeometry x="426" y="760" width="277" height="60" as="geometry" />
        </mxCell>
        <mxCell id="ppNC7bBhxt5fAdMNGBPs-22" value="Schedule the post to trigger the cloud function" style="rounded=0;whiteSpace=wrap;html=1;" vertex="1" parent="1">
          <mxGeometry x="946.5" y="758" width="277" height="60" as="geometry" />
        </mxCell>
        <mxCell id="ruvs0IxwidvrSS5LvYae-1" value="Master Config store" style="text;html=1;align=center;verticalAlign=middle;whiteSpace=wrap;rounded=0;" vertex="1" parent="1">
          <mxGeometry x="677" y="520" width="60" height="30" as="geometry" />
        </mxCell>
        <mxCell id="ruvs0IxwidvrSS5LvYae-2" value="Component config file store" style="text;html=1;align=center;verticalAlign=middle;whiteSpace=wrap;rounded=0;" vertex="1" parent="1">
          <mxGeometry x="444" y="670" width="60" height="30" as="geometry" />
        </mxCell>
        <mxCell id="ruvs0IxwidvrSS5LvYae-3" value="Component config store" style="text;html=1;align=center;verticalAlign=middle;whiteSpace=wrap;rounded=0;" vertex="1" parent="1">
          <mxGeometry x="40" y="500" width="60" height="30" as="geometry" />
        </mxCell>
        <mxCell id="ruvs0IxwidvrSS5LvYae-4" value="Cloud function scheduler" style="text;html=1;align=center;verticalAlign=middle;whiteSpace=wrap;rounded=0;" vertex="1" parent="1">
          <mxGeometry x="170" y="613" width="60" height="30" as="geometry" />
        </mxCell>
        <mxCell id="ruvs0IxwidvrSS5LvYae-5" value="data ingstion, transformation and export logic in python" style="text;html=1;align=center;verticalAlign=middle;whiteSpace=wrap;rounded=0;" vertex="1" parent="1">
          <mxGeometry x="320" y="400" width="60" height="30" as="geometry" />
        </mxCell>
        <mxCell id="bW5Pe7UPLq2BsnXKpp2e-1" value="" style="endArrow=classic;html=1;rounded=0;exitX=1;exitY=0.5;exitDx=0;exitDy=0;entryX=0;entryY=0.5;entryDx=0;entryDy=0;" edge="1" parent="1" source="ppNC7bBhxt5fAdMNGBPs-1" target="ppNC7bBhxt5fAdMNGBPs-21">
          <mxGeometry width="50" height="50" relative="1" as="geometry">
            <mxPoint x="520" y="820" as="sourcePoint" />
            <mxPoint x="570" y="770" as="targetPoint" />
          </mxGeometry>
        </mxCell>
        <mxCell id="bW5Pe7UPLq2BsnXKpp2e-2" value="" style="endArrow=classic;html=1;rounded=0;entryX=0;entryY=0.5;entryDx=0;entryDy=0;exitX=1;exitY=0.5;exitDx=0;exitDy=0;" edge="1" parent="1" source="ppNC7bBhxt5fAdMNGBPs-21" target="ppNC7bBhxt5fAdMNGBPs-22">
          <mxGeometry width="50" height="50" relative="1" as="geometry">
            <mxPoint x="520" y="820" as="sourcePoint" />
            <mxPoint x="570" y="770" as="targetPoint" />
          </mxGeometry>
        </mxCell>
      </root>
    </mxGraphModel>
  </diagram>
  <diagram id="ct_5CLNi4kgUlNwb07Bm" name="Datawarehousing">
    <mxGraphModel dx="2182" dy="700" grid="1" gridSize="10" guides="1" tooltips="1" connect="1" arrows="1" fold="1" page="1" pageScale="1" pageWidth="850" pageHeight="1100" math="0" shadow="0">
      <root>
        <mxCell id="0" />
        <mxCell id="1" parent="0" />
        <mxCell id="xdLIXH1dnlkOirOnDweu-2" value="" style="rounded=0;whiteSpace=wrap;html=1;" parent="1" vertex="1">
          <mxGeometry x="8.5" y="220" width="811" height="210" as="geometry" />
        </mxCell>
        <mxCell id="xdLIXH1dnlkOirOnDweu-3" value="" style="rounded=0;whiteSpace=wrap;html=1;" parent="1" vertex="1">
          <mxGeometry x="18" y="20" width="792" height="140" as="geometry" />
        </mxCell>
        <mxCell id="iGPjfY2zlFS3nD042FE0-4" value="" style="edgeStyle=orthogonalEdgeStyle;rounded=0;orthogonalLoop=1;jettySize=auto;html=1;" parent="1" source="xdLIXH1dnlkOirOnDweu-12" target="xdLIXH1dnlkOirOnDweu-31" edge="1">
          <mxGeometry relative="1" as="geometry" />
        </mxCell>
        <mxCell id="xdLIXH1dnlkOirOnDweu-12" value="" style="sketch=0;points=[[0,0,0],[0.25,0,0],[0.5,0,0],[0.75,0,0],[1,0,0],[0,1,0],[0.25,1,0],[0.5,1,0],[0.75,1,0],[1,1,0],[0,0.25,0],[0,0.5,0],[0,0.75,0],[1,0.25,0],[1,0.5,0],[1,0.75,0]];outlineConnect=0;dashed=0;verticalLabelPosition=bottom;verticalAlign=top;align=center;html=1;fontSize=12;fontStyle=0;aspect=fixed;shape=mxgraph.aws4.resourceIcon;resIcon=mxgraph.aws4.mobile_application;fillColor=#1ba1e2;fontColor=#ffffff;strokeColor=#006EAF;" parent="1" vertex="1">
          <mxGeometry x="70" y="80" width="70" height="70" as="geometry" />
        </mxCell>
        <mxCell id="xdLIXH1dnlkOirOnDweu-13" value="Customer Portal" style="text;html=1;align=center;verticalAlign=middle;whiteSpace=wrap;rounded=0;" parent="1" vertex="1">
          <mxGeometry x="51" y="50" width="60" height="30" as="geometry" />
        </mxCell>
        <mxCell id="xdLIXH1dnlkOirOnDweu-14" value="" style="verticalLabelPosition=bottom;html=1;verticalAlign=top;strokeWidth=1;align=center;outlineConnect=0;dashed=0;outlineConnect=0;shape=mxgraph.aws3d.application2;aspect=fixed;fillColor=#1ba1e2;fontColor=#ffffff;strokeColor=#006EAF;" parent="1" vertex="1">
          <mxGeometry x="219" y="90" width="62" height="53" as="geometry" />
        </mxCell>
        <mxCell id="xdLIXH1dnlkOirOnDweu-15" value="Sales Admin" style="text;html=1;align=center;verticalAlign=middle;whiteSpace=wrap;rounded=0;" parent="1" vertex="1">
          <mxGeometry x="229" y="40" width="60" height="30" as="geometry" />
        </mxCell>
        <mxCell id="xdLIXH1dnlkOirOnDweu-16" value="" style="verticalLabelPosition=bottom;html=1;verticalAlign=top;strokeWidth=1;align=center;outlineConnect=0;dashed=0;outlineConnect=0;shape=mxgraph.aws3d.application2;aspect=fixed;fillColor=#1ba1e2;fontColor=#ffffff;strokeColor=#006EAF;" parent="1" vertex="1">
          <mxGeometry x="390" y="88.5" width="62" height="53" as="geometry" />
        </mxCell>
        <mxCell id="xdLIXH1dnlkOirOnDweu-17" value="" style="verticalLabelPosition=bottom;html=1;verticalAlign=top;strokeWidth=1;align=center;outlineConnect=0;dashed=0;outlineConnect=0;shape=mxgraph.aws3d.application2;aspect=fixed;fillColor=#1ba1e2;fontColor=#ffffff;strokeColor=#006EAF;" parent="1" vertex="1">
          <mxGeometry x="620" y="88.5" width="62" height="53" as="geometry" />
        </mxCell>
        <mxCell id="xdLIXH1dnlkOirOnDweu-18" value="Integration and API" style="text;html=1;align=center;verticalAlign=middle;whiteSpace=wrap;rounded=0;" parent="1" vertex="1">
          <mxGeometry x="610" y="40" width="60" height="30" as="geometry" />
        </mxCell>
        <mxCell id="xdLIXH1dnlkOirOnDweu-19" value="Vehicle config tool" style="text;html=1;align=center;verticalAlign=middle;whiteSpace=wrap;rounded=0;" parent="1" vertex="1">
          <mxGeometry x="392" y="40" width="60" height="30" as="geometry" />
        </mxCell>
        <mxCell id="xdLIXH1dnlkOirOnDweu-20" value="Cloud&#xa;SQL" style="sketch=0;html=1;verticalAlign=top;labelPosition=center;verticalLabelPosition=bottom;align=center;spacingTop=-6;fontSize=11;fontStyle=1;fontColor=#999999;shape=image;aspect=fixed;imageAspect=0;image=data:image/svg+xml,PHN2ZyB4bWxucz0iaHR0cDovL3d3dy53My5vcmcvMjAwMC9zdmciIHhtbG5zOnY9Imh0dHBzOi8vdmVjdGEuaW8vbmFubyIgd2lkdGg9IjE0LjY1OTk5OTg0NzQxMjExIiBoZWlnaHQ9IjIwIiB2aWV3Qm94PSIwIDAgMTQuNjU5OTk5ODQ3NDEyMTEgMjAiPiYjeGE7CTxzdHlsZSB0eXBlPSJ0ZXh0L2NzcyI+JiN4YTsJLnN0MHtmaWxsOiM0Mjg1ZjQ7fSYjeGE7CS5zdDF7ZmlsbDojNjY5ZGY2O30mI3hhOwkuc3Qye2ZpbGw6I2FlY2JmYTt9JiN4YTsJPC9zdHlsZT4mI3hhOwk8c3R5bGU+JiN4YTsJCS5Ee2ZpbGwtcnVsZTpldmVub2RkfSYjeGE7CTwvc3R5bGU+JiN4YTsJPHBhdGggZD0iTTcuMzMgMTUuMzV2LTMuMDFMMCA4LjQ0djMuMDF6bTAgNC42NXYtMy4wMUwwIDEzLjA5djMuMDF6IiBjbGFzcz0ic3QyIEQiLz4mI3hhOwk8cGF0aCBkPSJNMTQuNjYgOC40NGwtNy4zMyAzLjl2My4wMWw3LjMzLTMuOXptMCA0LjY1bC03LjMzIDMuOVYyMGw3LjMzLTMuOXoiIGNsYXNzPSJzdDEgRCIvPiYjeGE7CTxwYXRoIGQ9Ik03LjMzIDB2My4wMWw3LjMzIDMuOVYzLjl6IiBjbGFzcz0ic3QwIEQiLz4mI3hhOwk8cGF0aCBkPSJNMCA2LjkxbDcuMzMtMy45VjBMMCAzLjl6IiBjbGFzcz0iRCBzdDEiLz4mI3hhOwk8cGF0aCBkPSJNNy4zMyAxMC43OVY3Ljc3TDAgMy44N3YzLjAyeiIgY2xhc3M9IkQgc3QyIi8+JiN4YTsJPHBhdGggZD0iTTE0LjY2IDMuODdsLTcuMzMgMy45djMuMDJsNy4zMy0zLjl6IiBjbGFzcz0iRCBzdDEiLz4mI3hhOzwvc3ZnPg==;" parent="1" vertex="1">
          <mxGeometry x="18.12" y="360" width="24.38" height="32" as="geometry" />
        </mxCell>
        <mxCell id="xdLIXH1dnlkOirOnDweu-21" value="" style="image;sketch=0;aspect=fixed;html=1;points=[];align=center;fontSize=12;image=img/lib/mscae/Azure_Database_for_PostgreSQL_servers.svg;" parent="1" vertex="1">
          <mxGeometry x="230.5" y="287.74" width="38" height="50" as="geometry" />
        </mxCell>
        <mxCell id="xdLIXH1dnlkOirOnDweu-24" value="" style="edgeStyle=orthogonalEdgeStyle;rounded=0;orthogonalLoop=1;jettySize=auto;html=1;entryX=0.526;entryY=0.065;entryDx=0;entryDy=0;entryPerimeter=0;" parent="1" source="xdLIXH1dnlkOirOnDweu-14" target="xdLIXH1dnlkOirOnDweu-21" edge="1">
          <mxGeometry relative="1" as="geometry">
            <mxPoint x="259.0999999999999" y="360" as="sourcePoint" />
          </mxGeometry>
        </mxCell>
        <mxCell id="xdLIXH1dnlkOirOnDweu-26" value="" style="edgeStyle=orthogonalEdgeStyle;rounded=0;orthogonalLoop=1;jettySize=auto;html=1;" parent="1" source="xdLIXH1dnlkOirOnDweu-16" target="xdLIXH1dnlkOirOnDweu-32" edge="1">
          <mxGeometry relative="1" as="geometry">
            <mxPoint x="418.99" y="498.00972" as="targetPoint" />
            <mxPoint x="418.0999999999999" y="360" as="sourcePoint" />
          </mxGeometry>
        </mxCell>
        <mxCell id="xdLIXH1dnlkOirOnDweu-31" value="" style="sketch=0;outlineConnect=0;fontColor=#ffffff;fillColor=#1ba1e2;strokeColor=#006EAF;dashed=0;verticalLabelPosition=bottom;verticalAlign=top;align=center;html=1;fontSize=12;fontStyle=0;aspect=fixed;pointerEvents=1;shape=mxgraph.aws4.rds_mysql_instance;" parent="1" vertex="1">
          <mxGeometry x="120.5" y="293.01" width="38" height="38" as="geometry" />
        </mxCell>
        <mxCell id="xdLIXH1dnlkOirOnDweu-32" value="" style="sketch=0;outlineConnect=0;fontColor=#ffffff;fillColor=#1ba1e2;strokeColor=#006EAF;dashed=0;verticalLabelPosition=bottom;verticalAlign=top;align=center;html=1;fontSize=12;fontStyle=0;aspect=fixed;pointerEvents=1;shape=mxgraph.aws4.rds_mysql_instance;" parent="1" vertex="1">
          <mxGeometry x="401.5" y="297.48" width="38" height="38" as="geometry" />
        </mxCell>
        <mxCell id="xdLIXH1dnlkOirOnDweu-33" value="" style="sketch=0;outlineConnect=0;fontColor=#ffffff;fillColor=#1ba1e2;strokeColor=#006EAF;dashed=0;verticalLabelPosition=bottom;verticalAlign=top;align=center;html=1;fontSize=12;fontStyle=0;aspect=fixed;pointerEvents=1;shape=mxgraph.aws4.rds_mysql_instance;" parent="1" vertex="1">
          <mxGeometry x="631.5" y="299.74" width="38" height="38" as="geometry" />
        </mxCell>
        <mxCell id="xdLIXH1dnlkOirOnDweu-35" value="" style="edgeStyle=orthogonalEdgeStyle;rounded=0;orthogonalLoop=1;jettySize=auto;html=1;" parent="1" target="xdLIXH1dnlkOirOnDweu-33" edge="1">
          <mxGeometry relative="1" as="geometry">
            <mxPoint x="650.5" y="359.5" as="targetPoint" />
            <mxPoint x="650.5" y="141.5" as="sourcePoint" />
          </mxGeometry>
        </mxCell>
        <mxCell id="xdLIXH1dnlkOirOnDweu-36" value="" style="rounded=0;whiteSpace=wrap;html=1;" parent="1" vertex="1">
          <mxGeometry x="-10" y="630" width="811" height="620" as="geometry" />
        </mxCell>
        <mxCell id="xdLIXH1dnlkOirOnDweu-37" value="BigQuery" style="sketch=0;html=1;verticalAlign=top;labelPosition=center;verticalLabelPosition=bottom;align=center;spacingTop=-6;fontSize=11;fontStyle=1;fontColor=#999999;shape=image;aspect=fixed;imageAspect=0;image=data:image/svg+xml,PHN2ZyB4bWxucz0iaHR0cDovL3d3dy53My5vcmcvMjAwMC9zdmciIHhtbG5zOnY9Imh0dHBzOi8vdmVjdGEuaW8vbmFubyIgd2lkdGg9IjIwLjAwMTA0NTIyNzA1MDc4IiBoZWlnaHQ9IjIwLjAwMTA0NTIyNzA1MDc4IiBmaWxsLXJ1bGU9ImV2ZW5vZGQiIHZpZXdCb3g9IjAgMCAyMC4wMDEwNDUyMjcwNTA3OCAyMC4wMDEwNDUyMjcwNTA3OCI+JiN4YTsJPHN0eWxlIHR5cGU9InRleHQvY3NzIj4mI3hhOwkuc3Qwe2ZpbGw6I2FlY2JmYTt9JiN4YTsJLnN0MXtmaWxsOiM2NjlkZjY7fSYjeGE7CS5zdDJ7ZmlsbDojNDI4NWY0O30mI3hhOwk8L3N0eWxlPiYjeGE7CTxwYXRoIGNsYXNzPSJzdDAiIGQ9Ik00LjczIDguODN2Mi42M2E0LjkxIDQuOTEgMCAwIDAgMS43MSAxLjc0VjguODN6Ii8+JiN4YTsJPHBhdGggY2xhc3M9InN0MSIgZD0iTTcuODkgNi40MXY3LjUzQTcuNjIgNy42MiAwIDAgMCA5IDE0YTggOCAwIDAgMCAxIDBWNi40MXoiLz4mI3hhOwk8cGF0aCBjbGFzcz0ic3QwIiBkPSJNMTEuNjQgOS44NnYzLjI5YTUgNSAwIDAgMCAxLjctMS44MlY5Ljg2eiIvPiYjeGE7CTxwYXRoIGNsYXNzPSJzdDIiIGQ9Ik0xNS43NCAxNC4zMmwtMS40MiAxLjQyYS40Mi40MiAwIDAgMCAwIC42bDMuNTQgMy41NGEuNDIuNDIgMCAwIDAgLjU5IDBsMS40My0xLjQzYS40Mi40MiAwIDAgMCAwLS41OWwtMy41NC0zLjU0YS40Mi40MiAwIDAgMC0uNiAwIi8+JiN4YTsJPHBhdGggY2xhc3M9InN0MSIgZD0iTTkgMGE5IDkgMCAxIDAgMCAxOEE5IDkgMCAxIDAgOSAwbTAgMTUuNjlhNi42OCA2LjY4IDAgMCAxIC4wMDctMTMuMzYgNi42OCA2LjY4IDAgMCAxIDQuNzI3IDExLjQwM0E2LjY4IDYuNjggMCAwIDEgOSAxNS42OSIvPiYjeGE7PC9zdmc+;" parent="1" vertex="1">
          <mxGeometry x="14.31" y="1150" width="32" height="32" as="geometry" />
        </mxCell>
        <mxCell id="xdLIXH1dnlkOirOnDweu-38" value="" style="sketch=0;outlineConnect=0;fontColor=#ffffff;fillColor=#1ba1e2;strokeColor=#006EAF;dashed=0;verticalLabelPosition=bottom;verticalAlign=top;align=center;html=1;fontSize=12;fontStyle=0;aspect=fixed;pointerEvents=1;shape=mxgraph.aws4.rds_mysql_instance;" parent="1" vertex="1">
          <mxGeometry x="140" y="684" width="38" height="38" as="geometry" />
        </mxCell>
        <mxCell id="xdLIXH1dnlkOirOnDweu-40" value="" style="sketch=0;outlineConnect=0;fontColor=#ffffff;fillColor=#1ba1e2;strokeColor=#006EAF;dashed=0;verticalLabelPosition=bottom;verticalAlign=top;align=center;html=1;fontSize=12;fontStyle=0;aspect=fixed;pointerEvents=1;shape=mxgraph.aws4.rds_mysql_instance;" parent="1" vertex="1">
          <mxGeometry x="401" y="686" width="38" height="38" as="geometry" />
        </mxCell>
        <mxCell id="xdLIXH1dnlkOirOnDweu-41" value="" style="sketch=0;outlineConnect=0;fontColor=#ffffff;fillColor=#1ba1e2;strokeColor=#006EAF;dashed=0;verticalLabelPosition=bottom;verticalAlign=top;align=center;html=1;fontSize=12;fontStyle=0;aspect=fixed;pointerEvents=1;shape=mxgraph.aws4.rds_mysql_instance;" parent="1" vertex="1">
          <mxGeometry x="632" y="685" width="38" height="38" as="geometry" />
        </mxCell>
        <mxCell id="xdLIXH1dnlkOirOnDweu-42" value="" style="image;sketch=0;aspect=fixed;html=1;points=[];align=center;fontSize=12;image=img/lib/mscae/Azure_Database_for_PostgreSQL_servers.svg;" parent="1" vertex="1">
          <mxGeometry x="231" y="675" width="38" height="50" as="geometry" />
        </mxCell>
        <mxCell id="xdLIXH1dnlkOirOnDweu-43" value="Silver Dataset" style="text;strokeColor=none;fillColor=none;align=left;verticalAlign=middle;spacingLeft=4;spacingRight=4;overflow=hidden;points=[[0,0.5],[1,0.5]];portConstraint=eastwest;rotatable=0;whiteSpace=wrap;html=1;fontStyle=1" parent="1" vertex="1">
          <mxGeometry x="29" y="701" width="80" height="30" as="geometry" />
        </mxCell>
        <mxCell id="gINlAlPNX2PEbpFyrnHL-2" value="" style="edgeStyle=orthogonalEdgeStyle;rounded=0;orthogonalLoop=1;jettySize=auto;html=1;entryX=0.5;entryY=0;entryDx=0;entryDy=0;exitX=0.934;exitY=0.565;exitDx=0;exitDy=0;exitPerimeter=0;" parent="1" source="xdLIXH1dnlkOirOnDweu-21" target="HEC2TvOauUFCYLaSWHSy-5" edge="1">
          <mxGeometry relative="1" as="geometry" />
        </mxCell>
        <mxCell id="gINlAlPNX2PEbpFyrnHL-8" value="" style="edgeStyle=orthogonalEdgeStyle;rounded=0;orthogonalLoop=1;jettySize=auto;html=1;entryX=0;entryY=0.5;entryDx=0;entryDy=0;" parent="1" source="xdLIXH1dnlkOirOnDweu-31" target="HEC2TvOauUFCYLaSWHSy-5" edge="1">
          <mxGeometry relative="1" as="geometry">
            <Array as="points">
              <mxPoint x="140" y="370" />
              <mxPoint x="280" y="370" />
              <mxPoint x="280" y="535" />
            </Array>
          </mxGeometry>
        </mxCell>
        <mxCell id="iGPjfY2zlFS3nD042FE0-1" value="" style="edgeStyle=orthogonalEdgeStyle;rounded=0;orthogonalLoop=1;jettySize=auto;html=1;entryX=0.5;entryY=0;entryDx=0;entryDy=0;" parent="1" source="xdLIXH1dnlkOirOnDweu-32" target="HEC2TvOauUFCYLaSWHSy-5" edge="1">
          <mxGeometry relative="1" as="geometry" />
        </mxCell>
        <mxCell id="iGPjfY2zlFS3nD042FE0-2" value="" style="edgeStyle=orthogonalEdgeStyle;rounded=0;orthogonalLoop=1;jettySize=auto;html=1;entryX=1;entryY=0.5;entryDx=0;entryDy=0;" parent="1" source="xdLIXH1dnlkOirOnDweu-33" target="HEC2TvOauUFCYLaSWHSy-5" edge="1">
          <mxGeometry relative="1" as="geometry">
            <Array as="points">
              <mxPoint x="420" y="319" />
              <mxPoint x="420" y="535" />
            </Array>
          </mxGeometry>
        </mxCell>
        <mxCell id="iGPjfY2zlFS3nD042FE0-5" value="Initial full load (one-time)" style="rounded=0;whiteSpace=wrap;html=1;" parent="1" vertex="1">
          <mxGeometry x="13" y="1470" width="120" height="60" as="geometry" />
        </mxCell>
        <UserObject label="gcloud sql export csv my-sql-instance \&#xa;  gs://your-bucket-name/customers.csv \&#xa;  --database=crm_db \&#xa;  --table=customers" link="gcloud sql export csv my-sql-instance \&#xa;  gs://your-bucket-name/customers.csv \&#xa;  --database=crm_db \&#xa;  --table=customers" id="iGPjfY2zlFS3nD042FE0-6">
          <mxCell style="text;whiteSpace=wrap;" parent="1" vertex="1">
            <mxGeometry x="211" y="1430" width="250" height="80" as="geometry" />
          </mxCell>
        </UserObject>
        <UserObject label="bq load \&#xa;  --autodetect \&#xa;  --source_format=CSV \&#xa;  your_dataset.customers \&#xa;  gs://your-bucket-name/customers.csv" link="bq load \&#xa;  --autodetect \&#xa;  --source_format=CSV \&#xa;  your_dataset.customers \&#xa;  gs://your-bucket-name/customers.csv" id="iGPjfY2zlFS3nD042FE0-7">
          <mxCell style="text;whiteSpace=wrap;" parent="1" vertex="1">
            <mxGeometry x="211" y="1510" width="240" height="100" as="geometry" />
          </mxCell>
        </UserObject>
        <mxCell id="iGPjfY2zlFS3nD042FE0-8" value="Incremental updates" style="rounded=0;whiteSpace=wrap;html=1;" parent="1" vertex="1">
          <mxGeometry x="12" y="1810" width="120" height="60" as="geometry" />
        </mxCell>
        <mxCell id="iGPjfY2zlFS3nD042FE0-9" value="SELECT * FROM customers&#xa;WHERE updated_at &gt; &#39;2025-06-05 00:00:00&#39;;" style="text;whiteSpace=wrap;" parent="1" vertex="1">
          <mxGeometry x="201" y="1680" width="270" height="50" as="geometry" />
        </mxCell>
        <mxCell id="iGPjfY2zlFS3nD042FE0-10" value="gcloud sql export csv my-sql-instance \&#xa;  gs://your-bucket-name/customers_changes_$(date +%F).csv \&#xa;  --database=crm_db \&#xa;  --query=&quot;SELECT * FROM customers WHERE updated_at &gt; DATE_SUB(CURRENT_DATE(), INTERVAL 1 DAY)&quot;" style="text;whiteSpace=wrap;" parent="1" vertex="1">
          <mxGeometry x="201" y="1720" width="560" height="100" as="geometry" />
        </mxCell>
        <mxCell id="iGPjfY2zlFS3nD042FE0-11" value="bq load \&#xa;  --autodetect \&#xa;  --source_format=CSV \&#xa;  your_dataset.customers_staging \&#xa;  gs://your-bucket-name/customers_changes_$(date +%F).csv" style="text;whiteSpace=wrap;" parent="1" vertex="1">
          <mxGeometry x="201" y="1820" width="360" height="100" as="geometry" />
        </mxCell>
        <mxCell id="iGPjfY2zlFS3nD042FE0-12" value="MERGE your_dataset.customers AS target&#xa;USING your_dataset.customers_staging AS source&#xa;ON target.customer_id = source.customer_id&#xa;WHEN MATCHED THEN&#xa;  UPDATE SET *&#xa;WHEN NOT MATCHED THEN&#xa;  INSERT ROW;" style="text;whiteSpace=wrap;" parent="1" vertex="1">
          <mxGeometry x="201" y="1920" width="310" height="120" as="geometry" />
        </mxCell>
        <mxCell id="V5cKPkw5HDCmWMilr99J-2" value="Manual Load" style="text;strokeColor=none;fillColor=none;align=left;verticalAlign=middle;spacingLeft=4;spacingRight=4;overflow=hidden;points=[[0,0.5],[1,0.5]];portConstraint=eastwest;rotatable=0;whiteSpace=wrap;html=1;fontStyle=1" parent="1" vertex="1">
          <mxGeometry y="1400" width="142" height="30" as="geometry" />
        </mxCell>
        <mxCell id="V5cKPkw5HDCmWMilr99J-4" value="Automated load" style="text;strokeColor=none;fillColor=none;align=left;verticalAlign=middle;spacingLeft=4;spacingRight=4;overflow=hidden;points=[[0,0.5],[1,0.5]];portConstraint=eastwest;rotatable=0;whiteSpace=wrap;html=1;fontStyle=1" parent="1" vertex="1">
          <mxGeometry x="13" y="2100" width="142" height="30" as="geometry" />
        </mxCell>
        <mxCell id="V5cKPkw5HDCmWMilr99J-5" value="Prepare Cloud SQL table&lt;div&gt;- Primary key exists&lt;/div&gt;&lt;div&gt;- updated_at timestamp&lt;/div&gt;" style="rounded=0;whiteSpace=wrap;html=1;" parent="1" vertex="1">
          <mxGeometry x="11" y="2160" width="211" height="60" as="geometry" />
        </mxCell>
        <mxCell id="V5cKPkw5HDCmWMilr99J-6" value="Create a GCS bucket" style="rounded=0;whiteSpace=wrap;html=1;" parent="1" vertex="1">
          <mxGeometry x="11" y="2270" width="211" height="60" as="geometry" />
        </mxCell>
        <mxCell id="V5cKPkw5HDCmWMilr99J-7" value="gsutil mb -l us-central1 gs://my-cloudsql-bq-export" style="text;whiteSpace=wrap;" parent="1" vertex="1">
          <mxGeometry x="284" y="2290" width="300" height="40" as="geometry" />
        </mxCell>
        <mxCell id="V5cKPkw5HDCmWMilr99J-8" value="Write Cloud Function Code (Python)" style="text;whiteSpace=wrap;html=1;" parent="1" vertex="1">
          <mxGeometry x="295" y="2550" width="230" height="40" as="geometry" />
        </mxCell>
        <mxCell id="V5cKPkw5HDCmWMilr99J-9" value="&lt;div&gt;Write Cloud Function Code (Python)&amp;nbsp;&lt;/div&gt;&lt;div&gt;- connect to cloud sql&lt;/div&gt;&lt;div&gt;- export csv to GCS&lt;/div&gt;&lt;div&gt;- load the bigquery&lt;/div&gt;&lt;div&gt;- merge to bigquery&lt;/div&gt;" style="rounded=0;whiteSpace=wrap;html=1;" parent="1" vertex="1">
          <mxGeometry x="13" y="2520" width="211" height="100" as="geometry" />
        </mxCell>
        <mxCell id="V5cKPkw5HDCmWMilr99J-11" value="Initial full load (one-time)" style="rounded=0;whiteSpace=wrap;html=1;" parent="1" vertex="1">
          <mxGeometry x="12" y="2370" width="209" height="60" as="geometry" />
        </mxCell>
        <mxCell id="V5cKPkw5HDCmWMilr99J-12" value="check the above steps" style="text;whiteSpace=wrap;" parent="1" vertex="1">
          <mxGeometry x="284" y="2380" width="300" height="40" as="geometry" />
        </mxCell>
        <mxCell id="V5cKPkw5HDCmWMilr99J-13" value="gcloud functions deploy daily_sql_to_bq_sync \&#xa;  --runtime=python310 \&#xa;  --trigger-http \&#xa;  --allow-unauthenticated \&#xa;  --entry-point=main \&#xa;  --set-env-vars=GCP_PROJECT=your-project-id" style="text;whiteSpace=wrap;" parent="1" vertex="1">
          <mxGeometry x="284" y="2730" width="290" height="110" as="geometry" />
        </mxCell>
        <UserObject label="gcloud scheduler jobs create http daily-sync-job \&#xa;  --schedule=&quot;0 2 * * *&quot; \&#xa;  --uri=https://REGION-PROJECT.cloudfunctions.net/daily_sql_to_bq_sync \&#xa;  --http-method=GET" link="gcloud scheduler jobs create http daily-sync-job \&#xa;  --schedule=&quot;0 2 * * *&quot; \&#xa;  --uri=https://REGION-PROJECT.cloudfunctions.net/daily_sql_to_bq_sync \&#xa;  --http-method=GET" id="V5cKPkw5HDCmWMilr99J-14">
          <mxCell style="text;whiteSpace=wrap;" parent="1" vertex="1">
            <mxGeometry x="284" y="2920" width="440" height="80" as="geometry" />
          </mxCell>
        </UserObject>
        <mxCell id="V5cKPkw5HDCmWMilr99J-15" value="Deploy the cloud function" style="rounded=0;whiteSpace=wrap;html=1;" parent="1" vertex="1">
          <mxGeometry x="12" y="2755" width="209" height="60" as="geometry" />
        </mxCell>
        <mxCell id="V5cKPkw5HDCmWMilr99J-16" value="Setup the scheduler" style="rounded=0;whiteSpace=wrap;html=1;" parent="1" vertex="1">
          <mxGeometry x="0.11999999999999744" y="2920" width="209" height="60" as="geometry" />
        </mxCell>
        <mxCell id="V5cKPkw5HDCmWMilr99J-19" value="" style="endArrow=classic;html=1;rounded=0;entryX=0.5;entryY=0;entryDx=0;entryDy=0;exitX=0.5;exitY=1;exitDx=0;exitDy=0;" parent="1" source="iGPjfY2zlFS3nD042FE0-5" target="iGPjfY2zlFS3nD042FE0-8" edge="1">
          <mxGeometry width="50" height="50" relative="1" as="geometry">
            <mxPoint x="482" y="1470" as="sourcePoint" />
            <mxPoint x="532" y="1420" as="targetPoint" />
          </mxGeometry>
        </mxCell>
        <mxCell id="V5cKPkw5HDCmWMilr99J-20" value="" style="endArrow=classic;html=1;rounded=0;exitX=0.455;exitY=1.05;exitDx=0;exitDy=0;exitPerimeter=0;entryX=0.455;entryY=-0.067;entryDx=0;entryDy=0;entryPerimeter=0;" parent="1" source="V5cKPkw5HDCmWMilr99J-5" target="V5cKPkw5HDCmWMilr99J-6" edge="1">
          <mxGeometry width="50" height="50" relative="1" as="geometry">
            <mxPoint x="482" y="2190" as="sourcePoint" />
            <mxPoint x="532" y="2140" as="targetPoint" />
          </mxGeometry>
        </mxCell>
        <mxCell id="V5cKPkw5HDCmWMilr99J-21" value="" style="endArrow=classic;html=1;rounded=0;exitX=0.5;exitY=1;exitDx=0;exitDy=0;entryX=0.5;entryY=0;entryDx=0;entryDy=0;" parent="1" source="V5cKPkw5HDCmWMilr99J-6" target="V5cKPkw5HDCmWMilr99J-11" edge="1">
          <mxGeometry width="50" height="50" relative="1" as="geometry">
            <mxPoint x="117" y="2233" as="sourcePoint" />
            <mxPoint x="117" y="2276" as="targetPoint" />
          </mxGeometry>
        </mxCell>
        <mxCell id="V5cKPkw5HDCmWMilr99J-22" value="" style="endArrow=classic;html=1;rounded=0;exitX=0.5;exitY=1;exitDx=0;exitDy=0;entryX=0.5;entryY=0;entryDx=0;entryDy=0;" parent="1" source="V5cKPkw5HDCmWMilr99J-11" target="V5cKPkw5HDCmWMilr99J-9" edge="1">
          <mxGeometry width="50" height="50" relative="1" as="geometry">
            <mxPoint x="127" y="2243" as="sourcePoint" />
            <mxPoint x="127" y="2286" as="targetPoint" />
          </mxGeometry>
        </mxCell>
        <mxCell id="V5cKPkw5HDCmWMilr99J-24" value="" style="endArrow=classic;html=1;rounded=0;entryX=0.5;entryY=0;entryDx=0;entryDy=0;exitX=0.5;exitY=1;exitDx=0;exitDy=0;" parent="1" source="V5cKPkw5HDCmWMilr99J-9" target="V5cKPkw5HDCmWMilr99J-15" edge="1">
          <mxGeometry width="50" height="50" relative="1" as="geometry">
            <mxPoint x="482" y="2490" as="sourcePoint" />
            <mxPoint x="532" y="2440" as="targetPoint" />
          </mxGeometry>
        </mxCell>
        <mxCell id="V5cKPkw5HDCmWMilr99J-25" value="" style="endArrow=classic;html=1;rounded=0;entryX=0.535;entryY=0.05;entryDx=0;entryDy=0;entryPerimeter=0;" parent="1" target="V5cKPkw5HDCmWMilr99J-16" edge="1">
          <mxGeometry width="50" height="50" relative="1" as="geometry">
            <mxPoint x="113" y="2820" as="sourcePoint" />
            <mxPoint x="111" y="2920" as="targetPoint" />
          </mxGeometry>
        </mxCell>
        <mxCell id="HEC2TvOauUFCYLaSWHSy-1" value="Gold Dataset" style="text;strokeColor=none;fillColor=none;align=left;verticalAlign=middle;spacingLeft=4;spacingRight=4;overflow=hidden;points=[[0,0.5],[1,0.5]];portConstraint=eastwest;rotatable=0;whiteSpace=wrap;html=1;fontStyle=1" parent="1" vertex="1">
          <mxGeometry x="21" y="956" width="80" height="30" as="geometry" />
        </mxCell>
        <mxCell id="HEC2TvOauUFCYLaSWHSy-5" value="" style="shape=image;aspect=fixed;image=data:image/png,iVBORw0KGgoAAAANSUhEUgAAAEUAAABGCAYAAACaGVmHAAAABHNCSVQICAgIfAhkiAAAABl0RVh0U29mdHdhcmUAZ25vbWUtc2NyZWVuc2hvdO8Dvz4AAAbHSURBVHic7ZvbbxxXHYC/MzOevRlvsotxGwJJi1M1Dmoa1ASCI1JCo6pKFYgsBMpDq7qVykMlXshL/4TygkBCaiQoUilULX1AKaQSapSoiWogUZKSuELdVEoVuji+1Lvp3ufCw2Td2Du7njNztrbQfNJKtjzn4m/O73fOnDMrarWaS8wytLXuwHokluJDLMWHWIoPsRQfYik+xFJ8iKX4EEvxIZbiQyzFB0NlZTMlm5lFXWWVHYxssBnJ9rcNJVIKRYsX37YpzAoalq2iyq4I12Z8m87TB/S+yRFRn5ILRYtjrzo0LEgoHXfdabf18x9rjN6tvtHIOeUXb7mfqxDw2mpY8OLb/RmVkaScvGjx4Zz7uQppkzDgalFw8qKlvO7QUmZLLY6fdhBuf3NIL4Rr8+qUQ6XuKK039D0+cUGjWG6QSxs01N+sYAid2U/hz/+wOPodU1m1oUZKoWhx4rJNLr0GcePD6xe85YAqQkl5bcqhWF6r4dFJw4LfnFpDKefeb3K2wLoZJW3OfWAzfUPNjZKSUqk7/HFKKGlYNa7Q+fXf1BxMSElpT8HrlfMftThzJXoYBZYyW2rxylTk9vpKLm3w23fsyFN0YCmvv+uuq+TajfYUHYVA2XL6hsWb/4J8SsAaLtaC8soU7NlmhX4uCjRSXjq9/kXcyXzN5bWp8CG0qpRz7ze5WhRrupyXJZ8SnC3Ae9fDle8pZT1PwUE4fqoVqlzPoPOmYEKNElfoLFTVJOZc2pDug3Btzn/kcvKi4LFdcrml69UzJTv0FOwKnX2jsP9+A8uOvjv25iWLq0VdWkwubXD8tMND97YYzg4ELtdVyhvv2hTLljfjSLJQtdi11WR8e7jsX6k7VBv20j/ynwWb6Y/lR6twbYpllxMXEkweCF7ON6dM37D4y+Um+aTjTcGyH8AKmfwrdYdjv5vjhy98vPTkW/60SqV0E9ymd5FEX/JJhzfONykUg4eyr5SXTtsg+rtj3o1MUuOBr5p8+/4MgwlvlBpai7otaFXLn4mRwBW61BTdMb7fuw7vXPMMR6HR9MrLLrkzSY0nv5vAEUNkkt49s5wBknoVEFjVRYz0BiD4TRNOk7MFk+kbFmObVw/pjivOX7Nvr1wDt9lBPulw4hKcunwzfCXcWvrp+s1bmIa3s+ai0aqWGUgPISNmoWpx6UODsc2rX9sh5b8lG1fIZ/qVzN2y+XdtEGpzkeoBSOoG5oqeyorJpQ0Wq8Ha65CyNQ9nC8EKd0Xo3DNsMLFFA75Ms35r1SK9+GehwrUZC9NYngJlxCxULb6UDTYbdly1Z5vG7/8eLZ/M11yee1Dw2K52ZzdI11GpO0s5xXirxbUZ/9kjqJh80uHBrcE2BTquGr3bYN8ouFq03fGwUzLA8y/PcfRXi8yWWrfr6r3wsqqLQPdwdzWTQzvNwE/NvuqePqAjnFqgCvrBxrTgi4ng7beTr3Abvn8fHoSJvcGTsq+6kazOxO5B/nTBDikn2mnssYn8st8NLdiDXbNWZWDFhvp8fYCfPKJJHcZ3PWCfLbX42R9c5spNeg1Nf3TuGoJ78/53TpYrRZhfqCIIFpPeOsbjriGdXz6VXspPQej51sGZKzYv/LUZahXZplJeDF22jWlogYW0aS/wnj9sMr5dLj/21Lf/6zpjmzRkFkkryQxtwDQ0EgahP7JCwLsZOzfVpYVAgOB/6mEd+fBZjplKRyoflslH5JcCEEDK2GaDQztTRBktrjAYSA2GLi9Lw4JD3xjs78b1xF4dQwufV8ATc2cC7BcuGpmExRMhRwkElDKS1fnRNweZ/6QUuqE2A6nBvh6TNC2HZw/mIr0PF3ie+v4egx1bckQJI7gdSulspDq61o3G10YMvrcrWv2BpWSSGpMPm0RNurAilMLs7PXY8Zs8OCy1JvFDqvT4dpPx+1IACNeK/FGZfBu2zkOjqVBT8Eqklf5gt4Zw1Z0pqwqlhG6HnoJXIi1lbLPB4w/ouCKhpAMQXUzD1jnyrZyyd2pDBd+R8S8wlFTzXNMmiphMwmJiPKOsL6GkjGR1ju7LMrdYUdYRCCemYes8ezAnddi1GqHT9IEdGjs2qT8GkRIjdMa+kuLw3o1K+xBaSiapMXlwGFeofyEwqBgXjecezylvP9KEPr7dZOem1pqIadg6+3ekA53jyBL5Cws/PbyRLdmG8vwC3cU0bC9snnm0P89Skb/aAt7O+8unypz5wKbaVP8+i1X7ZNnvR/YMcWS3Rj6f71IiGkqk3InK18H9GDI/e1pPpVJ9aUO5lP8H4i9W+hBL8SGW4kMsxYdYig+xFB/+BzWOuhmfpcnSAAAAAElFTkSuQmCC;" parent="1" vertex="1">
          <mxGeometry x="319.5" y="500" width="69" height="70" as="geometry" />
        </mxCell>
        <mxCell id="cPNEiWFNxqfhoOzkkB5h-1" value="" style="shape=image;aspect=fixed;image=data:image/png,iVBORw0KGgoAAAANSUhEUgAAAE8AAACNCAYAAAD2FCc5AAAABHNCSVQICAgIfAhkiAAAABl0RVh0U29mdHdhcmUAZ25vbWUtc2NyZWVuc2hvdO8Dvz4AAB9TSURBVHic7V1/cFXVnf+c+5KX9/LrJYBBAdkgDFoGzAKhjrKoKRo1waUw1Klk68JaLBusdUZa6thWMuPohjFTWyXYtSlu3QaHOmFTUVoUGI3EdRHSCBvAjU1FCWz48fKSvJ/Je2f/uPece865574EH4zbTr4z4d13zz3nfM/nfH+d7z3nQaLRKMU4fSEyvmwG/pJpHLwMaBy8DGgcvAxoHLwMaBy8DCgLACilACgAIhSp39PRpTz7/5XGMAbrEULM5wTJI2Yhe0j8rmuEil+Is4xaX6TndHWVdvmnpq6miut9sS7V3HM8qwFO5FWDrSE9yArFTx0YxO6cEAPmRFgPEdh/VOlNrEvFcqrplzgVQYucUtdloGJdm2fYPDsfs8fhMmOG9KDUgsAUb4RIn4QQvPRmCJ3dcUuUCaSOCEywqLMuxMdVEEV+qPJdvCfVVZ+lyneb587uGF56c0Dg2a0um2jiGBqgSh7/FBrl96h0TQjBjgNh7DoSx+OvDqD7TEoPICWytDHGxDZ5V2JdJuXSA7I0sMlhzxNpECIanOfO7hgef3UAu47EseNA2OJZrCvWsT6JyqdJTskj4uDEMsKvCTGw40AYrxwMI+AjCPiBR5ouoPtM0mSGEk1dqlFH8Zr1S/RlgNyualuoKEVErk9NnhlwjOdXDoYtAA2hrtK8yNPokkfsGdVMJJO4Vw6GEfDbdQI+YgNoKM5GNMhE4UAEg1C5X7FMtZfq7BJrxjVOgRgE3WeSHDjOswSgxi4wydeoLKDGeVR5UDVhInA+VcIoB7CzO2YDKBlv4YuioWxAXGJUZolSV9UhVdqsRggBus8k8UjTBRs4oU7AR2QAVU1Rbb9AgtpSRyGfbaIBjg9IpkIvwb+0DoCmqLNNKgDKxy88Ixprh7dUbSn7yganSIsl7ZQCP26+gEKvo0FODgBFBlxUFlDjPOkpe0Ra4FjDnGkCmgIKcrPw4ncmgBhiG0KTDjUwnyGE/REQQ/wul9ltKerBJka19QQmPx4KmlLrgpsKGUDDFTBpONFolJorDAid21w4gCPUBk1QW5oCiIfixe9MQCDfA9akNtSwBiUWxBIpXBxM4lwwiSFNfjbfT3BVsQcTCjzweeUZMPknLhJretnQUBLrf3ERNElA1EWpMKZQFPjW4jzcX5EHSlNCP3b7bBJl8Dhu5lMO56DYONYhTRIU5Gbh+YcC8HmJPRiVR+FW74URnPh8GMdOGTj6aRShSApDiaQJlNfjqD+UGOFlVxcSzJ6ahfml2Zg7IxuBfI/NvugwuGYQEAIZQA91jsciB4BKnEcMFTxlvGklDjaQTFWfXVMgSJwwUwBX4d4Lw3jvWAJvHU3gdP8w8r0eGEjJkiBKtNu11e9AwuygbEo2Fs/zY8lXshDIzwJgqSi3oSbfrhJInEDqJdDGRgZP5J8Q7HwnjJfbRgdOUlVuU1g75pfuM0m8/NYgjpxKIN/rgcdIwUE6oFz6VYmmgBQMDCWSqCrzYeUtfkyZmG2DqPAUGkpi/YtBzj9vW+k3FKMCgELo4wBP0Getc1AGwkRfAk4DWtOeAXT2DqPQS9wZdWFe12/acstpDSQobpttYH1VEQL5WcLAXVTYgOxEFADXLMnDfbflcpOgkTxTrLvPpPDgCxcxpVgjEdZ3Btz2705y2DhCgFiC4pd/GMKbnTETNDe11E2Mm/RdYl2aJBhI2AMHLHvIhUQDoEsfvUGg6eEJmHWNAUpV8FJ2rEUIwf7OCJ59fUgbzzHnINs4u25ndwzPtAwiBcNUT3VGdQO/FGAusW4oRjG1KBt19+djysRsRf3SSKDVXihG8cTyAiye5+d109g8CkIMJ4CwbJwBvLi+2AaOgs/ajgMRp7qPFYzR6IvUEfgeSDhBADQ2UNCSgYiBx5b78bWyXKgCBrg4DAeAfo3EWYaYGKY6bPntBbzzcUqWVh1Qqu2yrll7zPCr5PDMOieirngUsB0OII0K6yQufZynBLRMhRtaoyjMSzoCYELMWf3evwZxdoDC40nqvaPOewrGHQBmTcrC7KlZKL3ai2IfRb6fIC8vG+HwMIaiFKcvptDzv1F093lwun8YAGR76mLwJbJCkLvLCvHIvT4BQCGMeTEoS5xDsEZRW3vQNoALZ3odqioBx8IPnaQpIIZiFPleDxaWUty9IB/XT/fC5zVkHpws86vQ0AiO9QxjT0fcGf6MwdGEYqY33nTfJK0EHv4kYQGXkrBwlzyRX3HCBJsmBp6EGPjRr/vx8dmk7BjSBLjJlAEDKfxDRQHuKGOAWaGPJrhW+RAzKywcCg2N4M1DcbxyMOyMIXXOSpjAFQtysK4q4ACQ82N3J/CQDjyOsDAQSfpN4F54fQDvHh9OP+OshqWea5bk4Ru35vLMhRJ+OQCSuVbRhACiHB5p7a4IoEWhGEXtXYVYtsjnWEUoTCl9pnMYbBCSnbKB03liN3UNxShmTcrCD79RYIcK7nyBmw1tua5MlEYzMP9x8wV9AkDkDeD8/fzBiWYMp+QB3DAcxdsKFSFWMhf0394WdM6uwhQAQTUKzdsic/x5BT0BFDEF5RyYboTgQfpTrw7gyKmEM6Gh8mxR82OTTAfoDDxcwXNmksULot4Hnm8dMhOLOlVQjHLtXYWWTbGYIkJjROhAM3fxYWB/ZxSd3XH0XhhBfIRauT7C7Z1d176mKcDnJXjqgQCqynwIRTFqCJNMGdi6exCOieRNK9GIRVmOB9WZFaRuf2cUnb3D7plkSrgq2LZEsLysbZVH0UQQE5x4IoW6nWHk+c0+8r0ezJxkOLMnkOsCtpQ+fG8hcjwUu47EEfAp/QggeowU3uyM4e7yPGsJJpsqNSXF2XZLSakUH6Z44LngqBkReyGdp7dvem2TvrOQ4f7nLjpWOLrsiYN/JtxWKqx+53kc/jPR827xT5MEJYUe/Hz9BDm20+DiVFuNiooP/+79qA2U7hOm+N8227CBE9tVGaFy3dEmD4SCGIDHk0TAR/De8Ti+vS2Ine+EzRS9JjtsmguKTfdNRCDXxXtYE08MoPv8iPnyKg0WIsmvHjWSYBrgFFo+iLiHJUz8PUl87+sTzIpiGAIo6kplmwelTB2cMlAGZMBH8HJbGI//qh+hoaSUqVZnou7+fIRimrYFNQ74CJrejth1CXXnC25vz6g4QKD9eIwvo9I5iB8uL7RTVKxI6lxAUjer2nua2FG4DvgIes6PYP0vLloAEocEU0oxZWI2au8qlAEU7Z9F3edHrJf3jHl3njVvz1QGCXa0xe2MssI8iJmtXTDdi7JZOaaxlgYqtk/0Eg5lQG6kxpEWP8Qwy9a/GERoaAREHLPVGaUUyxblYGpRtl1f026hl+DND4cFXt14dtvcaI3TjOuG+UJcmikByIEERW11nlRX4NuW5LR2jeo9sdqveE+zkvnxvw/YfLAL1j8I1tzmM6WP1VXaIAbw3vEwYgkrg0Pg7NsiFytqQ/3esYT1Nks/ECZ1ptdjdSHPPFMB15jJCYSTJSJJm3TNWvFQnB2gwg4ou3kmfYvn+WzpkypT/jeUSOLkqYTMnyZUcQbJkppRdHySgIGUzLSwohhIUHzjFh8kJ8EZttvh7bNbGmZc3RsbmGr31JUNzJht15E4ei8MK+pr87P8Jj+SKfcdxYVegrbjCXEQyphMMhyFYsw2lERn7zC3KdJgLOYDPoKyWTnyfUdnRPjQlWvqiuTiLLQvhQhFoZeg8Y2w2QFhk2p/LvlKlpxwFfu2wpbOT5NwhgyQPLozVLGiaUKAP58dcTIqDICmgMXX58BUCbuuPHAHEsKHGNJo6rqRCpoCPDGAI6cSlvQZktmgKSCQn4VZk7LstjSTdrp/WAh/GLCQ1r6a/Xn2+D4LQrZ3irMYSFDML822QVDVRHIQos5CGpDDsbiRS2qJlwnSl+/14J2PElBsEe/+5utzTNVNk7KShEeoy8iptlJly96JpHi5GVPYDEoPga8gJBuqENUVXWKoInpN4dpjpLD/v5ndIjZPVsdzrvWYqusiefneLHwW1PAqkNNqcmkhOBvUpNYF9S30ElxTnKVJahJZsnR9MHDZDZ3ksv6+4JszU/VGZNWz6KpiS6N06SoABpI4cy7uqCeSZnMjN34YiKRkZ6F0VFLosTa9iDGcm9o5ja9tSzRxHK9GRo/z0rxBs1VP9vgTCjy2SdJFEgCiyRxIap82VGFSY9G58IjdqGZweXzDoOjVBGbEWE9c3qiTyZmm+jIIfKlxng50636+1yOonq0FlAI52cR828fa1sSPfcGYo65Izj3JVnbXscxSiKYAT5YUa9jgO5ZnRDIH7HHJHrqppkuWmvfjJpUWRSJJu0/BgREC5Odk69vVjziNw2AF6WItN9USidln3bXoTSWbp/ZLcKxnWPhKndfpeNGWUb1Hd7F5ZhFbiSiaY5GcSRZDCwJ5VqRsrxSDpCdRVbnkUXPqxdiOgL9DeOnNkJX9VWyimgpjg1XvaQVA6NeKS4fiVgLAJWtD6LAwTlbXJgE8GRBCgKvysnBuSLELggQORDSZWS5RRGlSQVHBn71cenLHEEKRlPPNnNSHBji1zKJJRaJ9MPslhvmSKJlU3vOqDrHY56gr8iynpASQAaAw19BvgraWMOfCI+YGGFVL+OCEvqkAmmJ7CAF2HzIzw4ORETnpKkp/Gq+qU7+hRBIT84TN2UK/FweT+jhP6NOAsL7VKJustrwB85+SYh+6zwrpKNY4W/tGgYFI0tqGwaRAHJDQIRHKmdkiymtC9cWSbj2tA8tl3Q1QlF6tX4ZFEoazjvBMCgZKr/Zq4WGUNiV1dWESKRh6tbDu2XEUA84hhnY5hEcJQWd3HA8814/us5o3cm7qmCYlpX6fNSnL2hkq9G89cuJzc0+01mNbUnttsVBBig5Mcnlva3Z0/VSPnX3QeLl8rwddn1mhgFJX4MRsWJA2dlry8VcH4DGSzm2tKqlASdKlqUsokikPKhfmOlmxtOo/j8fkVJvYtkV8FeIyNOd5W2YbAFvkdfaGmkGmuX501pU7M2eWGAS9F0aw7oUg3jo24kztjxbrqdfiPcXbDiVGsOQrWdZOJ3uM7IXWkVMJ99UTNc+lXTNB2N2vmVu95FkhQyDfM2rO/3T/sJ14tOqqbZrSZmD3oZjtFNToXgfcWNazmrrJlIEVC3KsF+OyuQCAwyfjcl2lT5oC/vZaw0xnMZVPq7bi4HkgSfDV6wxn6kaQlnyvBy3tUdjxkjI2gyCWoPjRr/vR+Afz1KEjuWq1lTYJkCZ1pKt736159miVx3cfitln0dR2iZkdX3R9rllfrOuqto5CE8Wvzs6xXTrrQGDeY6Tw7vERK3shxDqWxHWfSTqdgo5UOybedwNV9ZLU3Oqx/i6/9giXyU9Kzo67ePGFM71SXR0p3pZK4QWlQNksn3w8VGtgKXa+y9Le4A1QCkybSBDI1Qxa/NRJmtuaM01AHIpR3F1WiK+V+Z27nczK2P52LO0JSPZCi3tpQR5UUmwe4WCID//9wlxbdUUVYY5D99LF6tTnJXh2TQFnzNGfo29o7VBab0zNXadlU7LxyL059q5ONmpiSl1ndwwdn4blrRlK2wMJinvm59h1pU+ZFLWlmhmmqFokqK5LRF7oJXi+dQjc9ll9Msfzi9piEA+V31qpaSWN/XGVTqEsFKOYfbUHT68tssfK7C8lPBj/l9YB28O79BvwEdwyl+3uErxEWocheRUeEFmDz0JVmQ80KQArpoQA841T77C18UYASABw+3cnYfbVHnPPnEgqUDpSJ06wcSsW5OCpBwLy5kS2mrHMyM/+4yKSSeX9s+JoQjGKmtsKFNttNSKqsAM8EUSHSaD4VkUuBmMuqmsR23hj7jQSmYe06XDjvflIpjzmYFTVVSVfJ40wpS3fl4VnvqlsoORgWx+EYPehGN75OGWGR7oJsvoM+AiqF+ZY+5Mh8Ea1kpdmT7L8SQzrp0AOxeTzFro1L9/n65FOzrDGCTHDl9+9H8WuQxF+tMD1OIJFyZS5N2/WpCx8/WYfvlZm/kKEvX9SnnnpKBjbXuuSzgpFYR1a8Y260Vx7cE9auGvSSvFhirXPn0/vHQHLgHvw9LcC/LCbPW3i4EyJ/OhPcfzXx3EcPZXE2QH7YDIjtit0/kwv/m6u1z4O6hAieYDSxnOdrWa1kgQzJmXhmX8qkg872w9LzbscGXUCJrZBDKCzOy7/xIYYa1nAMXIeQdK3b5tIcz/JQDiJcNxsLy+HWCe5bb1xSIbAJ9sNKp0XVkkBMhSj+OU/F2PKxCzl/IXQgXCplzw2eBU43o95lMCR6R2FMXtHPHFugXWgADVhKx+719pku54jxTXK2jkUo9h4b759VEo1WRoWx/QbA87v5ichwOO/6kfP+RH5ADIfhcxwMulBINfAw3f7+b4WNzvF+wSkSdMOng/G/Dx4NIaf7YnCQNL5GwKML9HpRIGqMh8evrfQeVRKGjukMveDeyQN9EJYEktQrHnugp1OEgfnMtuhGMWC6V6subMAs67xcJTkwzdjAVOUTvOMb9PbEXSfH3E/H6Lwl0yadtS2c4oN0EyS3bfW5omMuugHN5rmO4dHmwbcd5mrgwD4USrmMc0DgSyhLRhx6lRfcSShoRG0HR9B6wdRnO53Od6giQTY9VX5HvzsO8XcaWntPR+v4EzhBp7MnzweSRiZ+pq/WPHYy0F9GMAG4LIeZfuDy6Zk48YZXkyfZGDyJC+uKqDIEU5BXhxMIpIwcKovjk9OD+PoqSS6z5se2eFJ3byqUB6KwnIQ8slvGyzN2IWysZ89U8FUOiCE4NEXPsLZ8FUgniyt19WuVRViMdxo5PqbBWPslybj6Dn1Ee4sm4qnHioTfjcljScCJJPGwMvSPMF6drprh1c07c3OQ5/i2vzPMWP6jSCeHDgoXS7OGiQ7X6GldOtbFy+qs7uxcD96+/4HALD7aBxrziSFONQxPOEesyFyoX55Jl5LTDltwgu/j+Ja6xd1ek59hOHweecA0g1ed18s47y4AKcjNTdICYbD5zlwRXl5uOHaGfh5a4gPiwuLCCQvg4yLRZqUFOvc+nSNqcw14+n+YVw3YxG//1lfDy72dYEmRyTmHethXRJyLCkptW6alUMoRpGIxfGnnkP4rK8HgAnchJI5/MTP/s6ovHfZYdvZzXTgcTsnPm9JGnflDDjzJQpLq4NQCcD+cBg9pzpw/VVx0BTsNJQiDWNOSbkB7bLIZycdn/lmIVbdlMJnQ7YtnVAyh9cN+AheeiuMWILadlSyUkq4onSnqC2xQRMriRdW+StvD5rvPQWJuG7GIhTlmecxivLysPkfp+HlRydi1U0+ALZ3daibLnenemgdiEJbNGVnWjbem48dj5WgbJYP9985HfMmm+d9r5uxyGEqkikDuw4KOTIVpDT2UB/nuTkdChBDObCssVvHP+3Bv33vRpTNsvd6xBIUh0/GsftQDJ29Lr9O4UjEAg71FJ4Tfx3jttkG7l6Qz/sUf7qI/1aomlkR8njS2lZcg3N+ZEcJiN5WBG6UUOW9YwmQlAc0leI/h8aepylg2aLZKJvlk9aKOdkEi+f5sXieH6GhERz+JMF//o2dMDJ3alLHPugUVxDzfWy+14NALkHZ33gwvzQbC6/P4T/2oIZdlFKUzfKhbErUXk4qQTsAHPlTElMmZvF+ZNJLk8uPDwpfVECF4LjxjbC8AFdnkUXuShwlrhwoBQbCSfz57AguhFM430+RTAEXhpJIwQsDCUzM98BjAFMn2EG0+Jt5rB03tdEe74e9XKytzhP4VWur5gNfICWleB+2SbqzO4YXfm/+eCAArFjkc/xijoOU+/plGOtU4xQA5R0DUfgEVDNECPDC64N49/gwhhJJTC3KthIVsprr+IOY64QOPF1KytGQ8IXZFIOApih+2xbBax/E8etHi8xjo8rv1unqqhIt9amWS7bKgaVMOuNOTLu7cst56wi/kN0Zpe4YwBMrp/MaSifW84QYoCnKf1tKy4gq0Wkck2u+z03CxlCXJQGIIeYVXSRX7Uy4dP91C9f8mmAXxU4s9WXvKhwvYZQYUSpzdmJ+qmVUGZyjXLjQ1WWXDCeVSTZkR5hCZKeptK3ZJUWkcUidqMzqgFLLiFiollPhO+uXyO0AQjiE9GVudR31qFwmtk2UulDKhVtZgCmGlDcoVob7PfV6tDIegIvlZPQ+dHVHbXe0uiRNmUtd1YFCiPOIu8sbJ5EEmMb/D6AMaBy8DGgcvAxoHLwMaBy8DGgcvAxoHLwMaBy8DGgcvAxoHLwMaBy8DGgcvAzoSwOvq6sLg4ODV7SPYDCIYDA4+oNfkEg0qvmvni4T9fT04P3330c8HkdRURHuuOMOFBSYB1r8fj+am5uxYsWKK9U9qqqqUFxcjN/85jdXpH39Se/LQNu3b0dtbS0AoLy8HB9++CEAU+JmzJgBAPD5fFeqewBAbm4uAoHAFWv/iqhtR0cHamtrUVdXh2g0ira2NkSjUTQ0NFyJ7r40uiLgPfHEE5g8eTJ+8IMfSPdra2u51KnU3t6OJUuWwO/3o7S0FNu3b+dlwWAQfr8fXV1d/F5bWxvmz58v2c1du3ahtLQUfr8fjY2NyMnRbHe7jHTZwaMpigMHDnCVHQu1t7dj6dKluOmmm9De3o7a2lrU1taisbFRei4ej/ProaEhnDhxQmpj9erVWLNmDVpbW/HSSy+hpaUFubnKUfnLSJfd5vWH+gEA06ZNG3Odp556ChUVFXj22WcBAPPnz0dfXx8ee+yxMU/C1q1bMXPmTGzevBkAUFlZiblz5yISiVzaAC6BrlioIkrJaHTgwAEsW7ZMurd06VIApiSPhU6dOoVVq1ZJ92644YYx8/BF6LKDV1xs/odpb7/9dkbtxGKx0R8ahf7ibB4A1NXVoaWlBR0dHdL9np4ebdBaXl6O3bt3S/feeustTJ482d6FBeDcuXP8+ujRo9Lz06dPR0tLC/9OUxQHDx7MaByjUjQapZf7r6+vj78i3rRpE21qaqIbNmygAOi+ffuoFZjTlpYWGo1GaXNzMwVAN2zYQPfu3Us3bdpEAdDm5mbe5g033EAnT55MW1paeFsAaF9fH41Go7S1tZX319raSidPnkwB0LVr11728bG/KyJ5BQUFiIQjqKurQ2trK55++mmcOXMGe/fuxS233AIAmDlzJg9gV6xYgZaWFnzwwQeorKzEvn370NraKq0+9u/fj/LycqxcuRIAcPjwYZSXl/PyyspKNDU14bXXXsNDDz2En/70p2hqakJJScmVGCKAK7w8+2un8axKBjQOXgY0Dl4GNA5eBjQOXgY0Dl4GdMXAc/1f/P6KaEzgdXR0YNeuXY7lVjrKzc3Frl27vjBjOvL7/VKebzRasmTJJaXGLpXSpqQopbj11lt5Ch0wVwbHjh27YgxdTiooKPjy8nnbtm3Dhx9+iN7eXhQXF2NwcBCvv/76FWPmL43Sqm1fXx8AO81UUFCA1atXS8/s3bsXtbW1qKmpcahpXl4empubUVVVhc2bNzteNfb09GDjxo2u5W1tbaipqUFNTQ16enqksmAwiI0bN0pZmvb2dp4MdaPm5masWrUKNTU12LNnD79PKcXGjRs5TzU1NaO+Gk0LHktI1tTUaFNJ27dvx/Lly1FSUoLFixdj9erVEkPLly/Htm3bsGzZMtTX16OqqoqXdXV1Yc6cOQCAdevWYd++fSgpKeHJz7a2NlRWViIQCKCsrIw/y6i/vx9bt25Ff38/v3fy5EnU19e7Oqva2lo8+OCDWLlyJRYvXoyVK1faNpSa2eg5c+bwdyUjIyPadjiNlnZpbGyU0kuRcISXAaB1dXVSKqq3t5eXrVy5kpe1tLRQALy8urpaKo+EIxQAbW1t5SmoiooKXn748GEKgDY2NtJoNEq7urooANrV1eXgNRIxeayoqKAbNmyQ6h8+fJg/39DQQAFI/VdXV485JTXqO4y1a9di1apVaGhoQH19Perr6xGNRrka3XnnnfxZ9kKbkZgWZynx/v5+FBcX44033kB1dTW2bNmCSCTCDfsf//hHVFZW4sSJE/j+97/P66uSd6l08uRJAMDu3buxc+dO5ObmorOzE4BpAooC5g8XPvHEE2Nuc0wvgAoKCrB582YsXboUlZWV2LNnDwcjk1R3SUkJpk2bxt93NDY24vbbb+eq6/f7L6m9sfAi9nfHHXdg1apVKC4u5n1Go+ovI7pT+lAlRaU0+Ny5cwGY7xeKisyZOnnypCQVlNIxH4jJzc11OCCROjs7eULU7UWQONjPP//cta086/j+Pffcwx1gppTWYcy7cR62bNmCrq4udHV1Yd26dQCA22+/HcXFxSgvL8fq1avR0dGBnp4e1NTUYMeOHWPquKGhAVu3bsWePXsQDAbR09ODxsZGbg42bdqE+vp6tLe3o6urCwsWLpDql5aWAgB+8pOf8LpPPvmka38333wzAHDPHQwG0d7e7ng3fEmUziC2tLTwdwEAaHl5uWRwe3t7aUVFBS+vrq6WHIb4DkJn4Ovq6sTjcLS8vJzXj4QjtLq6mpc1NjbStWvXcocRjUbpvn37eHlFRQV/F8IcRnV1NXcYjIfy8nKpz4aGBslhtLe3j9lhjCkNz+Id1SGMtXw0YgZbNBFi2/l5+doywDQTzAmNlTLll9H4O4wMaDwllQGNg5cBjYOXAY2DlwGNg5cBjYOXAf0fNOdSQTlgo6cAAAAASUVORK5CYII=;" parent="1" vertex="1">
          <mxGeometry x="-150" y="501.96" width="44.82" height="80" as="geometry" />
        </mxCell>
        <mxCell id="cPNEiWFNxqfhoOzkkB5h-2" value="" style="shape=image;aspect=fixed;image=data:image/png,iVBORw0KGgoAAAANSUhEUgAAAGQAAACKCAYAAABcrO+mAAAABHNCSVQICAgIfAhkiAAAABl0RVh0U29mdHdhcmUAZ25vbWUtc2NyZWVuc2hvdO8Dvz4AACAASURBVHic7V17cBzFmf/1rCztalfIj2DHwoCIRTAq48dZhEPBx7MMWOQgKofibIMhuoOcE0hxduIr6oJN3YNYhVPBh2VyxOWAfeKKhw1JjMHxA6JgoLCPUyACglOKwUgYPxahfUnWbt8fM9PzdU/37MhGllKlr0ql3en++uvu7/Xrnp5Zls1mOeccjAEAAy9wMAvgBQhill1mExdlzGKQeJ3PMi/zvhBeOE0ymxm8wG0R3F+m5SVt+/pchNetS/vvjYmOVc/rlnPO3SpFeZnlzS0dqNsP0X4mk+FQSUwK9wkAmDRpPkbOBs/rVvWV0YIgubo+F+Ml/Ru0XGecTKnu6xAzlPvLXAOyxEX3zxXsWL24BuU7cztG+IQylLqcjIYRXtKsXKYr0JUrVRmpW5SXzqbaJ3XccBTtVOHM+c7J3HL/PLr1JV5XGJXrkQVw/xhoy9Ry3Y6p1qydUFKPXGMMzp9m0GHoZHgCeYmlE0Uwi3lhj8EzNve7O1g6oUwthz1f3JkIaX5Uy7IFl0iMbofcyaICxHddDygv9G2AgzGGXD/HzvZ+/KEzhQOfRpDKDWgmafgoES3BpDMYZpw7BpdNL0XVhBJwNQpK5IYvqjxSz1UkZwG8EAwsk0lzOdT4eWRBkjSE5WUMePXtHB7ensXhnjwSZRa4lccZpWUaxuGlXmIki+dGccsV5V7il+bBJTL4QKVBMVrSAhMKyXBfI1LcY5KV+5Sh8zxGtWgr46lXMli3I4PJlaUoIG+aC11jIa59EaSMzfl8uCePuReMwb/eWmmqEvBdN4d60S7SsrQNuY1A6YARlSi8VBAD2g/0Yd2ODCZVRhRlqBlQbUxJvD6hQbzF6qikm2mOSZURtL1/Aj/f/rkDWZ066tiZTg4jACCgP6Qty98wZM1qmHxJTuXldkeYBeT6OR7c0ovJlaWaTulgk6skXa5SB2SyCF9nNbwqmeTaStn8aj8OdBfEmkviMxqrMo9c5fV3yZKgmvhjimI0Y1LLqGcJXoZfvpZFdw8Uz1ChG5SyIP8uxht0vVi7unL7WqLMwobtnzvXFKNwJ1/qFlGuO1dM4dVEX0sLW039ljxPCWlKomKMoevYCTz+Sg6TKiOaRoIm1ihUw1ssPKn1isnUl8ejDHv/NIBX386BebFLJmnuKOqiSd8QdRy5nocI7XFa7pW5Vq/GSpG8/HF1064eaCorI/B3SiZTfZ3V65SsQho1L+nq6yke4/jP7Snk+t3QpZkrXZNaorxe/yy5D6p7KHERgFjkSO3IfIwxHOgu4IV2jnjUrW9CTDTeMeWaWm4YlPZ6mFyjlgXPaKI0gu4e4JevZeGNWYOkdOjLl960F52QpTVMDWSiEpX+0HFwzrH2+R4kyiyvvnbguhjJDH8qL2CeaFPcLQYmgnKNXT6pMoLHX8mh69gJsRbUzoXLo3U4rtMFAB/s1ShBCHMkMrcxDh8vAxgD9vw+i/aP8sQ71PZp2Ajl34ROJjHreINCVbHQ6YZjJkcMOhfqsKmBu1CY8PKCm0PUil4Lhk65rsmUMTAwBvSk8nj0pSyBubo2i1mqzjtNZTpenRHowqNJhi7PeLzxKMML7RwHuvP22oQrhufbCeaQoK8EhGxeb2FIOyYaYU77aiPcHNadqi+82Yd0ToW56gSEsXJdaArio7ym5B/kQSaQoOdNlFlY+3yPt88lzaOaV5iCLbiiRJpDdJNMZUtJiZFyh8EFWAzoOjaAzW05J1RRGmxSpp00oaZBQRpF5snyejzxKND+UR57fp919qFImKK7u5zwSTrg0G2peChLazzcbzjSKp4kdzC0bEtrO2+eXLVuUOxWPUby+yLtqu2F9Tid4jzeeIzjsd+kHRiseoFrvFxuRpSpynBziG4LRJQz5bt+EPZ+VQ5t758g3mGaXFOsVt3S5BlquS7fBSExUz0dqYqT6ydKS9CVBLa+mtV3k/Iat9/leh7spa6l9oHGPrWvAHgB2LAzg3gsKHHSazplqNZoAhVUeSZlmJTggz6Gcp2idMkemFxZis1tOXQdGwDzdYl7SV3XBXdI5KIlFzgfVOWIj8rEcYAxhm37+9D+UR6J0hKY458pqftioobX1E5Q+cnkh8HLdcGL2JVQDVyb1GmbcoIn6xA3N0D+7yZwUcdr0d7NLeCJPRkH5qqToFqkWlbMIoN4yYC0vKbcE+SBQby6cpviUTgw2NlSofeDgqKna+Qk55DtdxVBAV5+0SRBp2zTzl4c7sk7lhLWK9ScYQpPppEEtRtGro5MvGFCqb3PtfrZz20YLCbZYOS65h2ST52IvjF5vkS5l4SYZcPc5/YNKLu5YehUwkoQX5hwNljeMGiOIVFagj92D8gwmBq5IK6ySiSfOhGVNCiHwYcUzDBXpfATn85xpHMmCCx1hrQ9WNgLpPoHcLgnDwtBxqTn1ZfZCf7Rl7IeDAZk2EtCk0mWJeKcmmzcRENBkOOGjDG0H+hTYC7gnyh1IEEDtJWx7MYYZldHkM7pO+znHTwISOc4KmPA2jsqUEAeqX7TyZdiHiWXFZDH4Z4CNu3slfuntR8lnIkcEhRWBYaGlKh4geORF7MOzJVahaI9pSeqhXnWfbgnj2U3xnDVzHL8yy1nYMYUy/EUHS9tw/RdH7hT/QOIR4E1t4/DzJooftpUIa4HG5O/zzqPmVQZwXP7BrzdYJ0dCU/xK1uz/e4mCbWqXdGFuX/sHnBgrq5yEKx1Zdg9s1CCwz15rLw5jqtmxsB5AdFShpWLK4lSTKEijGd4dVL9dp9/2nQGqiaMAeccVRPG4Of/OM4pz/t4/G2aPFK+JsI5Te50DAaMoNl+p1CNS/IZY+hJDaDlpc9JIi8GX5WOkF5YiKC7p58ow6nFOaKlFlYurkTVeEsJKTrlmC3WG6jd3582VQhluLKqJpRgbdMEAKqnnBzFowxt759A+4E+54Qmg3wGwflO0gLZfqdj0CQiiRie+m0arBCBPAlBYQrksydMVka5UAa1gPc/7MfRY8eIJ4oRkbr0vznEFZAHK0Twu3f6oQ6Oc46ayRGilDxph8osBlq88njMDuuccw8Q0SG6/x2gRLbf4a+oHG8EAMaAA915PLdvQLObK9fVhymZp7unHz+4qcLxDDnBMcbw6ttZ3POzgwCAE9nj8BuAjnRyPYpHGdbtyODJPRnvbh8AcDsv1ky2FE8ZLHDw6rgweNu+PmexCJKLOUx7iPrtd4k8b/nFb3o1nQhDXsMWIkjnOFbeHMcNF5d5nuEYtY3gcrjviQ8xPuFB0hPZJMyeF54mVUbw6E5FKc6E2Z7iKcUPiYNhr1o2ubIUT+zJoCeVJ0pxPhhsx9IWikRkzxKzTDA3XMcooujNDeCmuhISpjwQ4Srjnp8dlJThkqcUs+eZ++CRq5SnXsmI0/iiNgdqJkfw4C1nkDO+ujEW9xgbBufx1G/TXjNGNjeHqOFYGKHnprn+Ah55MescWjCtB3QQVD9xiVgJYbGvF1OGS7Kn6OQWIw+ertthK8Ur8voYj49Bqveo0vfBJ/vJlaUODB5QniZz2vOtQ1TY6yZ0BxUwxrCzvR9/7FZzhy5hF0t+GuJw7sUPYNV/HwpQhtemrJRiHqKD2/bnSZURtLzYRzYF/dz5/oyWN6h/lNzdYBsGa+oYYS/313AnSoa5QYmTKX/mjgZT8RDh95Qw5O8zt/JIp08YRRfyOUcpg1G8TDIMVnnkvOi/HyIMwZ7UTXsyDszV9NZ4jZYFKMYIXsIBBrNSgq75PSseHxMo2lOKWkkXpvXy4jGOHz9v7wYziV02cP8hVSeh26cP89j+Fk3kfo36Z1W3TlB5T5b8KEuPvnTAIxgSi+sUaBAq5LOOUrifJ3C89v9EaQm6jjNs29fn1RNTQlGoVtl2zQ3bPwe31EVSsYEFlSnXA/Wjy0WqbLtcj75McoMWd9y3/qJt2ErJKtfDyLX/T6qMODB4QIbc0oJZ7SB3F4EF7P3TgLJKNg1E14mgOq4gQ5FohyGdK+B4Ki/+q3Xc64ePHCWbkR652/mHe/KnsC/m1ZHDVyCO1dLhnjxeeLNPU2L3pURu1wtwL+5Lk7O5tMODXQeovPQaD2RP5wqoGmfh3sYpOHNcBJ1dA3hoy8dSef20ctx5wyQAwO/e6cfjr3jnwtI5jiWXR3HZ9FJk+i0825bEb9+DEoJdclbP2v7IYy7ks0A/ECktDzF2mSZXluKX+zO45YpypWm7/RL5YURPaPvBPCqiJQ5so1BMFzdNlsc0vCTeh0Cu/9F0LqomjAFg78wmYlNwz88OoqyEYca5Uay87SxxM+jmy0vwydEevPQH+0HSm+pKcPPlcSFzxc0T8PGjSRw4OoBEacQvWHzVQXq5YiGfU5Ri8jZ53AXkkcpxdB8fsJ/wVVr2cgiZK86BVG6AHAfVJXWmXFdHppZp6jjVOFe7ZVv/jHOjzmPJ7isqOC44pxRlJQx9Axxfu3ACGLP3obhzpnN+/SSxoPvaV8vEeNx73ZdeUOagRoMVSMhH12+P5PClwn2V3ytjhQgy/fqHfiydYuWTE2HIj36C68kkv5fErhePWjj6eT9y/Zws2hj6+u2Xh5SVMHxy1D56Qx9o+rDL3m87kT2GY2nl5SgADnYlcSJ7zNzFwaUEDSQOR+Wl5BlrDtP2u/dx1tmW4d52QD7wlYVJ+IDfQex6nUfyzsMxEJ6w/vlPAADxqIVf70uh/UAOABOP0LX8uhtlJQzxqIUnXupy7twxsTWz+50M4lFL2UE+NQpWiizDQgTxKDC+ImJ7tbL9XiIxEku97q8SeKG9F/GoaSvD5JphML/cYb+H2DQ+EcG6Xx/Cjv2lmHFuGf73Txl0JQuIR22XiEct/GDDh7j4/Bgqyhh2v5MBEBHlXckCvvvIQVxSE0VvH8fv3s2QrRnuwOVKqS/h1kv+sOLPKXK523ZvbgCzqyOIllraUF0i0IUb051cO2NqGWaenXESYAnkiQ4iE+zVLNbceB2AbMYnIvjwyAl8eMTe3nAn26V41MKbH2SVMi59txUFRxkykrDzzfgQYwgai01mpRB5fQV8q94BGpqmvO13FXAwoOmacqSzxay92NZJEC8CcpXHE49azp++Hbdc5lX5/ckVgPLYnYmCVudyPXP4stdD9VNLMLOmjDxXIsuwTPPJOTCzpgzzZzJlwRW0TVEMLioDcxK1xnMNFHbSBlNG6mjv4pk8QhfavPDlVwpDqq+Au29MKDJlXvP2u3Px1qtpjDVR2BlVBubuVoRCNqoMHeAIqq8ajqZc24+gzinrKkKqUtI5jm/9dZlzwMIsU95+V2K6e0zmproS4iVBISwcfpeqkGrpnAtTdZMftNah8nSea+ZN9SkyA21LV2ieD1cpFiLgVh63XlkO2Sv8bcvb75K3eBduvaYCFdGC4dhlUGjShTpNCxw4ozyCq6aXO/tVJgQXhoLCpEzpXAEXTRmDMytInUBRYfvhtVfIZ9F95BMsvfYMVCZK5NwhdU2ELKXDzKlJVu3RUgt3XhtHd0+/RqhuAnRW42k7oi5Sub24++dFZ+HK6XHNJuJgKFz4TOcKOCOax8NLq1GZiHgvugydz4IqemNN5zjOOzOChroyP8wV1bzr3lO4kjHLsY1zjitnRDHz7Ag5tGayluCYy608fvN2v3cg2dGf29eVtw5GKUEhxNwfVxkblp1vW20BAu0xyx7vM7vtBaZeXpglgF3eN8Bxb+MU8kpDXWj02tJuv6uJ3U68lgKD1U76pGiv2zdqCrj7v3rs+wKWZxCc269RXXlbFS67sFxRStDkh1/I+ZXB4b65yH1r3ANPfIzt/5dWoDRNtuFCVzpXwGUXlmNmTdTmY6TPbiQSTdEcwmkFRaCwYI6ZNWWYe8GYgEPQJggsDyAeZeg6XsDyX/R6N2tcCFwAGGP4t9un4LILy0miN62gw1orF8pY+70aJ557k8QcL1395MfY806aLCLdPzUM0zI99Q1wfPfGLwPgmlW5O7G0j+q5LDB4Lw0gwklbSxviGtFBqEif4GWl5KUHJjkHmMXw79+egnPOHKNpk5IEEYv2Z+33ahzoWRBRwPWM1a22Z/hPvgTlST0dT+Wx+MovE5irCaWaZvT31BmgW0G7MHjx3Khy9y0obpthoU8pFkAnc/f+HrFlop8UCiz0AEL9/szLR2ArwTZExuy3W69+kirD1K5KunKbd3wigpv/xr0Xo0Jd7qUGhSyDAcsylYHNv7gM8Sg9ahkamvgajUeheIq9M7t7/2d44H8O+/au5DaKTZb8PR618PgrPVj7bLd9xVVGa5fiGaZ2TchSlnM8lUfT/CkezJWiEEeRl88QGZI8IpSUcQ5UJiL4zrUxAoPDrEN05TYvVUqunwtlBJ1g1LcVVG7/P2fCGDz7ei/WPtsNXtApI9zayVSWzhVw/uRSD+b6oidRDnO+AwLckHe/kxBEk7wBWTAG/MMjn+Hjz06EOAgRjtI5jqrxFg5+fMS3c+uNgFJQGS3XQ9+qcZa0na/nN7Wrn5fjqTzW3nUuZtZEhdX73nUMQH08gbz73dGi6V2Arsv5jJ7he9fFNDDYNDDdZ5niUYbejIWx4yaQq+Y4TRJekXJ6nTuyTMoIYwD6vJjOFXDl9LitDBdVCS/Q9EliF7CXFR+TDxYDnBc0MFiloLWDvtx93n1MbJyGT50QU2gMsmqav4IOj6u8apkf8vYNcOcEjFOmvotS0jVRGPkgmwfXCKLeSVt2PEoPg2UhxS1NJVuoXimm9ovFe5OsIF51DWKqY4eq78yfYsPcgtuu8+dGIF8znMy5Td7C0G0DlFmXU7xyzqHA4JOhIC9iGBMbH1BvsO3SsjDtBRsM9bjxCQvf/HoMkkcENuPwKgBK81g0I5OvuhuNfVz8ffPrMQUGmygMbPRTWawyBE/QLOjKgsqD2vVfO57K4+6bzrLvkxdgtjEOjS3Ilf2vGidJW1IAjXUi0TOxGyzDYBrb6WedsCDIbH8uIELC18l64tCQC3OvnEG8gxqx6C4p0xm5Q5Y0ATQ0+cZNLohE7/FeOSOGmWdHNCt4XR4J8hQdr/3dVsrgvOtk1hLFy73rfQMc//x354i9MIlMP2nhtqFu4kLaficMIodwwSu/UN4VZl9zNwSbriknd+BMpMHkvnITqYk+zIQGeaAxPAh5QeXHU3lcPyuOmskR+eFVMclMY4ckD2uMVd5+F+UaD1F56btQALEbLB+KKAZ7KYXNL26iVxUbJEunBC0WDeiXn7eshOG26wjMdYukRK3Or5KHhUi7Htl+N1iO9FUduGMBxDXlQxHF4CKFnLqQZiYZfanhTSUG37gkOSZPNXvT8VQef3/dWQTmGoi+C9knhpFrdj2y/c58dSXYKy4SDYs+O6HLtxssMdNeBo0goB6FKTSnmDwkLKAYLIKzYe7fXhqDz6DUYYvQz2T7MzRtydy0s8QF1SL3g6/MlijDYFPiNk1GmDKv3PYU1UM8pRUZhKF/1Ov85cdTedx9w5necVBqE5IzEjmqgpRk7pLlQVjSQZFw1AYpMmDaqMMLQLSUKTA4iII8SVfPT/oVfbEQVqxcTy7MvWpOpXdYmjYpOSOTFSGG6nqL51X+d7/LCFP+IH0nyEFngA788x+KoKSzUF0ChqaePnnbSqEhzUTFQmiwYbgwV8wwU/qrC0vqPNKE7kYz/7vfNe5FJ4dprvkYvMTlwmD9bnAY6zSFGRMvQ1lsLGTr1/U1CHmp7cvKPZ7KY/7FExyY6/CpLwqlAMk3j85nNcIQ8m+/61yO3menP5To4/W8xz0b7N8NLo6gZCqmCK89eUVPeXQILmx+8crLShi+M3+sXJUaqviuiyxErhS+ZLmeh4jQRbVLOif6T0Oc07juZ5AcXnk3WDWJMKElyJvUJGbX1y8ede0VC3Gyd9zTeI53WkXHow0GhsjjwwxuyKJa9YEtommpD1wZi+t+XOLlBXs3eMnlURzuycNvGjrlcE0ZlDKTlXu83jpFJ8slXXL310vnCjgzUUDDnDJZNkVM0k6HItctV3OzBm3Jp9/VUErHST1Bfa9vAC/nHN+aW46ZZ0eIUpROGSbCT0HhxU/Be1/FvNMedDpXQN8Ax4/v/Krz++uaPlGEpYZ8wB9BVF7SR/32O9Wa6laBPyOq4eUAs4Dmb4/F3AvG4HCP6bWsVDHFkn5Qwpctw6wUkzV57RxP5RGPWtjwTzV2Ii/wAD3SUK5cU/cBff0mkn0/cK8DJO511WN07et+qMRRCgDsbs/iuddyaP/oVA5UD55SvUeVFyEY6jmbo+dMGIP5F5+JW6+p8BaAxcatFurmTBepGeiPEzu/Fm34xRfP+EhL9JrucISaa2kV53PXsQEcSZ5epYSleNx+RKEyYT9bydXTrBRZqblX9RA1DzNlctyncKVfiwbkyfPBORoLFfVKClGVaubVPzWlIiZTma5eGF5d3tIjNQ9JKXLVKGCweO13vSj7nzMhJRKHyLeuQHWCFSRBkxmDn0f6eVaZl6vKEryGeRMWBYAVyOSQa3SSJJEKglNfhyt4ST/kCfH4xXt4XbnqXBGvYZA9gjG5OTqPzgd/DhmlYSHhIaaH9kdpeKg47Bil00qjChlhNKqQEUajChlhNKqQEUajChlhNKqQEUajChlhNKqQEUajChlh9BehEM45Ojo60NvbW7zyKVAymUQymRxSGcWIZbPZEbO52NnZiddeew19fX0YO3YsrrnmGlRUVKC3txcTJ07Eli1bcP311w+Z/Llz5+KSSy7BQw89NGQyitEX8zzzF0AtLS1YtmwZAKCurg779u0DAHR1daGkxO5mJDLY39wdHE2aNAmJRKJ4xSGkERGy2trasGzZMqxZswbZbBZtbW3IZDJYs2YNPvvss+Hu3mmlEaGQBx98EFOnTsXSpUvFNcYYli5divPOO0/L09nZiUWLFiEWiyEWi2HVqlXeg/qww8/WrVvF92QyiVgshs7OTnFt69atgn/jxo1DMLLB07ArhBc49uzZg9tuuy00TzKZRG1tLZLJJHbt2oXW1lasXr0ai29dLOrs27dP613ZrP2O37a2NixcuBArVqzA888/jzVr1mDbtm2nPqBTpGHPIal0CgAwZcqU0DyPPfYYAGDbtm3iTtuGDRvQ1NSEZDKJcePU0/B+evjhh1FXV4dVq1YBAN5++22jN55OGnYPcamvT/cjJ3pqb29HY2Oj9IrySy+9FADw5z//OVQb27Ztwze+8Q3xnTGGurq60H0YKhp2hbio5s033wzN09fXh8rKMO8T/sujYVcIYwwrVqzAxo0b0dHRIZV1dnZqF2rTp0/3JeGXX34ZAFBdXQ3AhrAHDx4U5a+//rpUv6GhAb/61a/E997e3hGRQ4ZdIQDE+mPOnDlobm5Ga2srli9fjtraWm0IWrJkCQBgwYIFaGtrw8aNG7F06VKsWLFC5I/bb78dq1evRmtrK1paWtDY2Ci1ceedd2Lfvn1obm7G9u3bcdFFFw3tIEPSsCd1AKioqMCnn36K9evX48knn8SJEycwc+ZM7Nq1C7Nnz0Zvby+mTZsmwtt5552H/fv34/7778e8efMwbdo0tLS04I477hBtrrx/JVKpFJqamtDQ0ICOjg40NjYiFosBAObNm4eWlhY88MADAID169fjk08+EShsuGhEbZ2MFOLc/JsmQ00jImSNNBrOs2qjChlhNKqQEUajChlhNKqQEUajChlhNKqQEUZDvjDs6OjwbRzW1NSgoqJiSOWa1hKtra2orq5GfX39kMo/WRrShWEymURVVZXv+t69ezF79uyhEiuotbUVs2bNQm1trbgWi8XQ0NCAZ555ZsjlnwydlpC1a9cuZLNZZDIZZDKZ06IMAGhqasIbb7whXfv000/x9FNPnxb5J0OnRSH5vP20rfvLB4B9p3D58uXSLdXOzk4sX75cHPfp6OhAc3Mzkskkli9fjgULFki3ZV1qbW3FggULsHTpUuzduxcA0NzcDADYuXMnmpub0dbWBgDYtGkTXnzpRcHb29uLlpYWLFiwAIsWLfK139zcjI6ODmzduhXz58+X+jcUdFoUojstkkqnsG7dOhw6dEhcO3ToENatW4eBAfvFAgcPHsTKlStRVVWFRCKB6upqLFy4EDt27BA8ixYtQlNTE6666ipMnDgRV199taRkNX899thj2LVrFwDbKCZOnIhly5ahoaEB559/PhYuXCjuIgL2aZg5c+bg3nvvxQ033IB169YN6c7wadnt/clPfoLNmzejp8f+ue3NmzYPin/Hjh2YO3cuAOCNN97A448/jnnz5qGzsxNbtmyRzmstWbIE1edW44c//CFWrlyJxsZGLFy4ULSVSCTErvH6R9cDsI8audv2roK+//3vY9y4cUgkEqirqxM5Z9asWULpQ3HL97QopLq6Gl/5yldOmt9VBgBccskl4kbWBx98AAC47rprRbk6SUG3hnfv3o2GhgbpHvwVV1wBAHj33XdRX1+PVCqFhoYGUT558mQAGLJt+tOikMbGxlAw03QQjhe4eOMaPciWTqcBAIydXOTNZDLiDqNL7v2S4aLTmtR1lEqlxOfDhw8Pqt0vfelLAOC79av7nXIdVVdX+24Fv/feewCACy+8cFB9+aJo2FbqFRUVmDZtGu677z50dnZi69atUqw3EVXgZV+/DABw1113oaOjA2+99Raqq6vFbd+6ujo8/fTT6Ozs9CkNABYvts9xrVq1Cp2dnXjrrbfQ2NiIxsZGEcYGaySnSsOGsgBgy5YteO+991BbW4sf/ehH2LJlS1G+RCKB8nL7B+SZxbB//3589NFHmDNnDurr67FgwQIRhtauXYs9e/agtrZWrEfoDkF9fb04ZFdbW4v6+nrccccdEuiYOnXqKY19sDQibuGGPdxWrI2xY8dqt0t6e3uLbtUkk0mMrRzr/fLoMNGIUMgoeTS62zvCaFQhI4xGFTLCaFQhI4xGV7hibQAAABNJREFUFTLCaFQhI4xGFTLC6P8BBUbvVqH/Q1kAAAAASUVORK5CYII=;" parent="1" vertex="1">
          <mxGeometry x="42.5" y="500.96" width="58" height="80.04" as="geometry" />
        </mxCell>
        <mxCell id="cPNEiWFNxqfhoOzkkB5h-3" value="" style="endArrow=classic;html=1;rounded=0;exitX=1;exitY=0.5;exitDx=0;exitDy=0;entryX=0;entryY=0.5;entryDx=0;entryDy=0;" parent="1" source="cPNEiWFNxqfhoOzkkB5h-1" target="cPNEiWFNxqfhoOzkkB5h-2" edge="1">
          <mxGeometry width="50" height="50" relative="1" as="geometry">
            <mxPoint x="500" y="650" as="sourcePoint" />
            <mxPoint x="550" y="600" as="targetPoint" />
          </mxGeometry>
        </mxCell>
        <mxCell id="cPNEiWFNxqfhoOzkkB5h-4" value="" style="endArrow=classic;html=1;rounded=0;exitX=1;exitY=0.5;exitDx=0;exitDy=0;entryX=0.007;entryY=0.571;entryDx=0;entryDy=0;entryPerimeter=0;" parent="1" source="cPNEiWFNxqfhoOzkkB5h-2" target="HEC2TvOauUFCYLaSWHSy-5" edge="1">
          <mxGeometry width="50" height="50" relative="1" as="geometry">
            <mxPoint x="-95" y="540" as="sourcePoint" />
            <mxPoint x="310" y="540" as="targetPoint" />
          </mxGeometry>
        </mxCell>
        <mxCell id="cPNEiWFNxqfhoOzkkB5h-5" value="" style="endArrow=classic;html=1;rounded=0;exitX=0;exitY=0.75;exitDx=0;exitDy=0;" parent="1" source="HEC2TvOauUFCYLaSWHSy-5" target="xdLIXH1dnlkOirOnDweu-38" edge="1">
          <mxGeometry width="50" height="50" relative="1" as="geometry">
            <mxPoint x="500" y="650" as="sourcePoint" />
            <mxPoint x="550" y="600" as="targetPoint" />
            <Array as="points">
              <mxPoint x="160" y="553" />
            </Array>
          </mxGeometry>
        </mxCell>
        <mxCell id="cPNEiWFNxqfhoOzkkB5h-6" value="" style="endArrow=classic;html=1;rounded=0;exitX=1;exitY=0.75;exitDx=0;exitDy=0;" parent="1" source="HEC2TvOauUFCYLaSWHSy-5" target="xdLIXH1dnlkOirOnDweu-41" edge="1">
          <mxGeometry width="50" height="50" relative="1" as="geometry">
            <mxPoint x="500" y="650" as="sourcePoint" />
            <mxPoint x="550" y="600" as="targetPoint" />
            <Array as="points">
              <mxPoint x="650" y="550" />
            </Array>
          </mxGeometry>
        </mxCell>
        <mxCell id="cPNEiWFNxqfhoOzkkB5h-7" value="" style="endArrow=classic;html=1;rounded=0;exitX=0.5;exitY=1;exitDx=0;exitDy=0;" parent="1" source="HEC2TvOauUFCYLaSWHSy-5" target="xdLIXH1dnlkOirOnDweu-40" edge="1">
          <mxGeometry width="50" height="50" relative="1" as="geometry">
            <mxPoint x="500" y="650" as="sourcePoint" />
            <mxPoint x="550" y="600" as="targetPoint" />
            <Array as="points">
              <mxPoint x="354" y="705" />
            </Array>
          </mxGeometry>
        </mxCell>
        <mxCell id="cPNEiWFNxqfhoOzkkB5h-8" value="" style="endArrow=classic;html=1;rounded=0;entryX=0.947;entryY=0.64;entryDx=0;entryDy=0;entryPerimeter=0;" parent="1" target="xdLIXH1dnlkOirOnDweu-42" edge="1">
          <mxGeometry width="50" height="50" relative="1" as="geometry">
            <mxPoint x="340" y="570" as="sourcePoint" />
            <mxPoint x="550" y="600" as="targetPoint" />
            <Array as="points">
              <mxPoint x="340" y="707" />
            </Array>
          </mxGeometry>
        </mxCell>
        <mxCell id="cPNEiWFNxqfhoOzkkB5h-9" value="" style="sketch=0;outlineConnect=0;fontColor=#ffffff;fillColor=#1ba1e2;strokeColor=#006EAF;dashed=0;verticalLabelPosition=bottom;verticalAlign=top;align=center;html=1;fontSize=12;fontStyle=0;aspect=fixed;pointerEvents=1;shape=mxgraph.aws4.rds_mysql_instance;" parent="1" vertex="1">
          <mxGeometry x="261" y="956" width="38" height="38" as="geometry" />
        </mxCell>
        <mxCell id="cPNEiWFNxqfhoOzkkB5h-10" value="" style="image;sketch=0;aspect=fixed;html=1;points=[];align=center;fontSize=12;image=img/lib/mscae/Azure_Database_for_PostgreSQL_servers.svg;" parent="1" vertex="1">
          <mxGeometry x="387" y="946" width="38" height="50" as="geometry" />
        </mxCell>
        <mxCell id="cPNEiWFNxqfhoOzkkB5h-11" value="" style="shape=image;aspect=fixed;image=data:image/png,iVBORw0KGgoAAAANSUhEUgAAAHYAAABhCAYAAAADdFUyAAAABHNCSVQICAgIfAhkiAAAABl0RVh0U29mdHdhcmUAZ25vbWUtc2NyZWVuc2hvdO8Dvz4AACAASURBVHic7Z15nF1Vle+/e5/hjjVXUpknhgQCCUIYw+QEMjnhCEprt62t3frsludHfUPbdrdN+3nq09e22q8VUWlAMERbcEBBhgiSUSCBACYklamSGu98z7D3+2Ofc+smJFW3kqpUwcv6fE5upercffY5a6/pt9ZeR2itNXWkNfih+VkKkNJ8nqDxJ6VBKfMJ4FggxulZi5ixgTIXce3xGfgEHR15gREmWx7bOEJrrT0fXGd8JnaCxoeOlSfCD7S2rfGb0AkaPwpCQByd9IpDbewJmlqkNITK2N+x0JRhrNYagQChmawZCSHMPMbLgxknUtocY5HcSXeV4nUVP1SlzM9CAMeRwVqDRiOjecQ0FZgshXFsx0KTKrGxdNQ/1Ogv+IFGTnicpdEI0BrbEoA4ZKGNX/gxHjQWh2rSGDvMVI3GrMr9gz73PaN4areiGgiE1MBEPlmN1gJbaLqycMlJcPGSJFJKlDILa6qp5kA1ppInXWKVAsuCx14I+NqvK/QUNc5xlJb4OqGGSqi5bqnNJ16XoCltoZRCSjmlmOsFjWENk8LY+JJKaSxLsu4ln/+6qorQmrQjmGg5fdl86n7uLSquOt3hs1cnsSRYcmrY2XpqZNEfI74xdqpXwQhBsar4v2s8yp6iOSkIIydBafPAJ/qI4Tyz1jQdacEvng148FkP2zKhhtaaKRI8AMOQ70h03Bk7HFKAJQW/2hyweVfItIzAC8zvj6fTUn89pQS2FLiWZvWmgMHiwXZ2KjF3NJoUiTUPSLBvKOTWxz1cW6C1OYQ4/p5oPXN9pWlPCdbvUtz3VBkpFLG3PFVUciPBwnFlrGGojuJUwfceq9JfVGRcQag1UuraOcf7ECI6gCAUtCThrvWKPQN1IdkUkVjZANeOK2PjB4QQ/GFnwANbQ5oTxq6aGFZEUjE5h9EYAgWkHcFgCX7wuBcx3SAmU4G5U0ZiY/Ubq2AdBnzzkQpBGNvU+r9P3iGEjlSuJlSapoTmwecDntkZRPfBK8bWHhfGxqo3iIL++zaWeG5PQMY1xq2mBsXkMraeuRoNAiq+5uuPeIhDbO1UZ+6EM1Yb44RSGlsKdveH3LlJYlkCSxrUqRH1q3X9J4f53ZHOFdE8hIEPD3P+oYcQAhGdl3bgub2K+//gIyWEyjB9qjhSR6IJZ6yxWWZ1ay24d5PP9j5NJiEJFdEDHG2UYZVtS2OPpQBb6oNCozgWjc+1pMaKzrdl7YRIM4w2bzOWbWmkgFUbqwzmA6wIbpxqse2hNKGMrd28FkgJL+7z+OVmn6xrUCeiNJ3ASPURj0gFWlKT8zRlDwpVzUBFk7Di6xCpUXOuYwkKnqC/BIWKOdeS8bli5Ovp2NZCqARNCc22XsEvNgcIlEkvTqHw53A0wWk7gdYKISRBqPnWw1WKnibtEqXnouzKaM9Hm8xPvgKLuyTvv8Cl6AvueNLjmT0hHRlwJCgtkEITasH+gmJhi88NFzbRlBL8eL3Puu6QtlS0qGKmjHDtWCC1VghLcO9Gn0tOtZnd7pgxpjBzJwwrjp2MGEh/YLPP3/6sQkdKEygiRIfGmCqhVA656nTBR9/QTDYpAU1/QXH/0wF3bQgYKoWkHSgH0JIQXLfc4c1nSrraTJ6r4sH3n/C4a22VZJT6ilN2IyEiApOocC3oLQnedpbN37wxWVP3sWM41WhCGFvPVISk6ik++P0yA3nP5D0bYWhtMKLwA9oSAW9f7vCGs7K0ZmzzR6C7X3HX7z1+vdVjxXyHP7vIYeF0C4SxNPmK4rdbqvx0XZ5dBRvLkoafaHQjTNHmSlJocp7Ft25Mc/ose0pmf2KaUIkNtckdfvfRKrc9UaXJCdGMsTpCDKtEhSCXK3FaR5X3XNLB5ac3YdtmMBUqXjpQZW5HAseR5otK8dhzBe5cF7JhW56U8HEdGyuZRkuHSGbRQiBGegx1gu0FkjPnONxyfQJLyggCnVpMhQlgbC0lpzWWlDy/x+PmVVUq1YCErQm1HBsWrAERibhWSMvGKxboH8pz2myHz71tNotnuWhNDbDXwI79Vb64ei/rt3s0JV1SDgzHoeAkMyjbNXYyusyIKjmagtKKnGfzP660uXJ5mlCpWuXHVGLwuHrF9cG7EIJyVfGdx0NyJUXKgTAG+Rn9IFKVRrpFpJIhDEOqdhPT2jIsnOaSTsThkq6FIWhIupIFnS4zmoz0qmg8ovDKr5SQQRXqsk0AQuvDzkdHNlUKQdrW3LkR+nLqoPudSuHPhEis0iZB/chzAV+4r0TSDiECCAQ0bF/jmVnSOFxeKAixuGC+5KbzLU6bmzzouoerMtzeU+W2h3p55AWPMNAkHYElBUFo7KOdTKEst46BRw5lYruM0JQ8yU0XJvnAxQmCcOol5MeVsbW4VUhyZcWn7i6x/UBA1tGRtOph5o40jhmsJt1FD4SULOy0uemCBJecYkX1UMYx27C9xBnzUmSTknw55MV9FZbMSpJORg6WhieeL/Bvvxli2wEfpTQZV6K0RmuF5aaQqSwok8EWIySFjcrXVAJoSTl86e1JFnVZUSKD4e9PMo0bY4eZalChu9Z6/POvKsxvDqmGEhmBBw3ds459K0XJk8zpsLnmTIf3nOtSL/Jbdhb53m/7+P22Eqs+dRItaZuBvM8Hv7WT02Yl+cDlbSydl2HYDdfcs6afe9cX6e71SbnGElkSsBPgppDx2UeSWKFRWuBIRX9Z8pYzHT55ZQoppfEBGsmpHQcaF4BiWP2ZB7hnQHHnkx6zshovjCQ1VmMNLCMdSWqgJNeeleR959l0tVqoKL03mPe4+4kcP1mfZ89AlSWzXFoyDraE1qzFnPYUD26psLl7L287r4l3r+ykOW0RKs07VnawckmGOx8b4L6nq1haEyqBrpRxpEQ7SbSK0LBDSDDM3EAJ2lOa1U+HXL7EZ8UiF6UPLl+dTBoXiY1Vp1FT8Hc/rfDQ8z4ZO0AjjRSM4T61NjFj3rf4xrtczpiXxPMVriN55JkhvvHAfl46oGhKJUhYgFAsnuUghQHp/7gvJAgF1VBR8TWLZji878Imrjy7jYofknQsnt9V5hM/OEDoB7W4VgqwUmm0FUFjR5A+gamVsoQi71mcO8/ii9ensS2JniJSe8wzMFszNCpCiB55zuPRF33SdhjnUgBtvM1Gjwg7dqWJTwFcR/Lln+7jU7fvZt+QpC3jYktFoDSlqmbH/gpzW2329Hv0FwMUGtcSZFOCnQc8Pn3XXr7wo90ko00wSgv8oIISCpOvUYRKEZYGkX4ZpEAoddj5GYjTSHqzG7K2W/ObLcFwTDsFEgTHrIpjhEkgKZRC7lxbRYcBjgyjEKNxkCkmJUAqjS0kPXnoPlBGCkl3v49tS9JJTRgGaEw98NwOi//1vvlMb3O5Ke/zmTt2s3WvX6u/TScECos/HvDY3VtFadjeUwKtQIKKsz0CAgS6ksdFo2y3Fv68DMTQsWrWJITmrvWScxbadGZNaDXxuxhGpmNibA2MQGDLkNV/8Ni8V9OWCE0ZqRDDwf8YSGjjPdsi5OsP+fTt2wNCk0nbNKds/FAjtQCh0MpmcZfL9DaXiqdoa3JY3OWydXcImOR4oDQpV7JnMOAdX3kRKSxSroVjSUIBIjbq0f0EAJUCTqoFLBsdecuHwo8akFqTsBS7+nxWrRd85PI0SqtatcVk0TExNpZWS0oGS/Dk9gBbe0YVIZHaYLFjvT3zAI2aXTzT4uOXz2GwFPD9h/vIVUJSUagihEBKxTO7A7oPVJk7LcGeviprt5dARnh1JHF+aBy3j76pixmtCX69aYiNO6ogVVQ8oYfBCikJtUJX8iSSabR0QauDJFfXFq0wPoQOWL/Dpj+vaMua61qvVMbGuU2pNdv3+2zb55FJSkKlGo5ZXzZm9K9CknRdPvnGJAs6zTT9asB3HxkyRd5CmWtLTU/B5+O3dTOv3WX3gMeBfEjCMcyPxxTa4r0XZLnp0k4AzlmQ4P3f2EHZB9vWB+dYo1g8VIpqtUTCFWjbQauDmYsQKGFSkykbdg8oNnWHvO50Bz3G3XHjTceuioVAC0E1lJQCSdYKo5RWgzHrCCSloC1diyzpbHZwpCQgRAp5UGjRn9PkSmWCQJNwpanMqDMCVd9nZqtdm3dHs4uQRBId+ZCx4xMxTkaSW6kWSZIxzI0cqBpChWG0BHLVkMFyXF1xbPd+rHRMXrFZ3cYmpmxNkxMXfAFCj9m2AjX1ZglFoexz9++GGMh57DxQ5acbcpR8H+sQfDZjSz5+ZRv3fmoRn3trF0nL1CmLiEFCCBI2/OiJQV7qqZArBPzHIwcoVhSOdQjGG5uOaFVKIdFoqtUihAFayFp4F0NjQmsUgmzSoi0Ftf29k0jHHMcqpRBSUqyE/M/VJTa8VKU1pQjUGNGmiGrKU4NG0ldQdCXy7BooYwuL1iabQOlatiUM4JJTEvzdDfNMyCUEX7xnN798Ok/CtSKpNXMYLAboUNGSkbzUGzCvM4ljCZOhOUzseeimbCkECddIbiytSggsNCUP5k9P8s/XZ2iPbewkxrPHrIqFEIRKk00KLj3V5anuoBbb1nKvY6BYYsEkE/7kohRNCRtBMw8+neeF/T4pRxDGy1FoBkqq9uABSn48EjUJDELNqTOSvGVFC6UAcgWPe9cORQuwLul7yFzq71NpTcUrkiSNtt2DbK5l27zhNJuOJkmg1KQ6TjAOXjGA1IpQCa5Z7rJhp+LxF4qkHRXtmBs7c021gikku2iRYNnCNgD+uLfKxu0l3BYXy4rjRdi6t8rXf7aPy85sZs2zeZ58sYDjShACS2j8EHpzPmfOTvDOC9sBeH5XhXvXDhl+ysMBiC+fUxwFVLwSCQFYxluu+HDyDJs3L3eN1mDyy2WOGaDQsZOhjL169wqHjbuSBF7ZIHJ67N5xPSZr2UYjKK35s9dNo+xr1mzNEyjIpByjSn348cYcP9yQo8kC17KwIiHMFUNSjuAtZ7fw56/vxA9UrY45xrcbqEaNb9b0qFAKv1zESQpsN0FZ29ywQpNOWlG4VI+fTw6NC/JkFr1AKc3SORbXLZXctc4iLYyzIY+QAjsSxRKrteDZXT5L56axEMxsd/jiDXN4+Jkh/uOxfjbuKGNbglmtDt+5aQ6tGYtcKeBzd+3nuT1FpIBl89PcdEknK0/LUr/EXthbRiuNHaFcjU8uCnNUCH6BfcWAa89q4aIl2YPSlpPtPI1P+Wnd6tRa8K5zbZ7Y5tKT00itomC+ccmNoTpHKr67JmRLdzc3XNzJybNSKKW47IwWzlmU4eebhvjOQ70UKiGtTQ5NKQulBQcKVbJJyQcu6+SdF7aRdE1mx5KCbXsr3P3EAI9syeNEvk1DBW2H3K8lBWVfIf0c15/TFi1sNWIu93jSBOVjBQ88VeK/rxpgdnsCL6zvCNP4eGDgyny+xPSUxxXLmrjh0k6yqeFuVjv2V/j5hkHeeVEHbU02PQMe960f5LVnNHPSzFTtvIoXctdjfdzxxCD9+YCWVKSuaRz6qw+xHEuwb8jno2+czp++floUD+spkdmBiaigMD8RhPD3qwd5eGuVziYHr2bbRk8KmIc9XIpiWTaFUolCIceM5hR//vpWLl/aTDppDV83At5DZbZkxNcqV0MeejrHtx/spWfIJ2lLUo6xsTEs2TCaEDHVloJ8VbFgmsOX3z+Xzhan1mXGnPYqqqCopzDCj5/fF/CZu/NU/TDagNW4EzVc84BxWqTE98p45RL5SsB5C9O8c2U7y+enaU5btZNjPuXLIc/uKnPHY/387sUSGVeQsGXNJBzVTddJrB9qPvOWGVzxmlaCQGFZk+8J19O4VynG8aRSmlOnC64906FUDUAphFImU6LUqIc5V9VyoioIsOwE2WwT05psfvNskb+/Zw89gz5grhcqTRiaJdGb8/nSvXu5/6kc0zKSlK3RSkVVjApxFIcBJRSFqmLZ/BSXLW0ynW+kePVXKcYURo5EvgIfv3Uf+4ZULSvDUSQHYrXpBYpcqcx1y1Ncf0E7i2YkcKyD16fWhsk793vcu3aAVU8OYAtNxhVHfX0YTgLlA8mtf7GAxbOTNe002eHNoTRxWzyAMPIeH9tS4vOr+0lFme84RGpYLWtjN4vVkNcszHLDBQmWzUtg1TH0V5uGuHNNP29e0cJbzm1DRPZOK83TO0t876E+1m0vkrENrjsWHsSlMLaA3rLipos7+MurZxi7OkYH7HjRhDbwqndqPvfDbtZ2S9IJC6XGsrp1VIIactWyLH9zVWu8JQe05pmdJW77bR9/eKmIFygsy+KMOUn+5LWdLF+QPoj53/5FD3eu6SXpjsEC6ZhxmiDUuAmHH3x8EW0ZqwbOTEWa8N12cZX9tn1V/vK2PrNpua5spBEGa63QSFKiwuvPSPKOC9rxQ1j15AA/WzdAxdMk7GEPd7AKaVdyxbJmbrikA9cS/OqpHL/aOEDPoI+UjUlspLXRSpOwJfsLITdfN4N3XNR+kCM91aQVjovEmuGllPxgTYF//VU/s9oSVIPhnOrIDyYuXYUgVPTmSiydJVEKnu4u05mR2NHe2NgjtiQEStNfVJwyI0kmIdm0o0RzUuDYsuY9jzx3c47S2myhLCjOPTnLLTfOjSR+6korTDBjYVgdCwFDxYCbb9/P9j5oTkoCRZ1Uj/yktVIIKXAsSe9gAR2UaU1b+OEwE2J8WWvjHDkW5Ksahdkz66t4Lo0CEgba9MIQbSX5pxvnct4ilyA0vgNMTWmF49SDwqx8aM3Y3HBhBhGU8cMYD26AqbFaV5qqH9LekqGtKUPVVzVVP/wZqVkBXghpV5B1BV4IMfDfyFI255jS2YoPl5+W4dyFCYIIRZuqG55jOj5dY4i6ZAOXn9HEhYubKVTDmjo0seWRD1PRQO1h+oFCWSnsRAq04lB7bsY00hsq0+gyZn6Mao08Z/MpEHgBtGZdbrq0FdCRjzB8X1OVjpPEiroHL/nwG6fRnBRU/NjhMUD8iAfmk1hStMZy0lhuumbL6yVIRKsh+srwXBqaMxgmaspK8LZzW5k/PRUVxQ93cJvKdFw7s8moCmFuu+D6FWkCzzOoDmNEgTAIkFYhlpPEdlPGc46k6FilydhWQd7TzGu3ed9lnbX5m7GntrTCce7MNmxvNe9d2cLJs5tN8bc0D6u+Q9uohzSqFhR2IomdSNeYe7Tw3vBXom0rCP7iypkkovxePPZUl1aYhO6nUc8zXEdy44Uuvh9QD/GJ2qaQ0Y9aRzelsJ0EjpvGhEdjZ24MQigNriXoLSped3ozKxeno320UwsyHI2Oe/fT2CtVSnHxkizXrGijrxCaPk2hMg8xSgCMfpiyFoPra6STwHZSphxnjIww45gaqbKvmd7kcOOlHdEOuleOpMY0aa3jwTgpbz8nwZw2i4KnsK1DYtrY8xnh0ELXHCqtVGRzhx2qOI4e9RBmz50lBcWq5k3ntLJ4dirK70697M1oNCmt4+MjVJp501zedl4ruYr5vxVVssUebAMKuabGpRSgFbabwE2khscZfX2AFjgSBkohs6elePdF7YR13ddeaap4Ut6UVVNtWhGEgresyNC9v8DqDSWySSeKOdVRP0gdhgjhom3wvRJCjLx+dZSP6/dhdovD375jBp3NjmnQdagWeYXQJL9Qabj8BeDBLR4/WZtn75BPqRqMuU7q5eNLwtAnCP0jMKa274CMAxefmuW9l01nZqsd5VnrOt28wmhyX6hEnOuMeisJ06Znb59H2RunQr9REgxgdst1tTi0ZI0Cq69feiVKK0w2Y/Xw3pja/xtEhyaC6hfYVGkScrQ0JV4zeujmpxr+fhypHnZ8pUppPU0Jxp6g8aepmyk+QcdEJxj7KqWG49iR8NfxcjYOtbWHjn/o2MNzgsMZ5WO1l0eaz3heY6KoIRtbP/H6UAAO9iQnj15ezHqoh1s/v/pFGhesyREW51Rk3GjUsPNUX0oKUKyEpF2JkI2t5kPPOdLf4mvsG/TIl0IWzUhiSRGVrB7p+6bQLVSmYiLpyghc0FHh2uH7TMS1Uoe71/r5iKi05/GtRXb3erx+eTN9JcXCDhvXkUecW/zzoWMe6TmMJ42qiuuT11JKNu8ssfrJQYpFH2FJ3n5BG+ecPLw3NN7BrjVR55VI0usKzgAkw9v/44cXhqbdfELAv/2mlw0vFLjn5pPRUQ5XIoi69kQbm+MHovnhw308+WKetqRESMmly9u48oym6J0/+uDrK/OqFqVgx4Eqji2Y1e7WejHW5qyGF87tj/bxpft6uHZ5M80ZyX9btY+ffGIBc6cna1s047nJuHdr3TxVVBgXY+SiTktMhDYY1XmqX1E9Ax4f++5OCtWQa1a00pK1uOnbO3jyhQJCmHphS5ptlJYUw63ctT7o9/V7XWrnClMamnQkQghaUhZdzRax7bQtiawb49A6p6e6S+wtKq5e0cZJs5Lc8uNd/PtDvbUdeAdd3zIgpmUJvvafe7ljTX/UnFqb64johU2WrM137YsFPvzaTm65cS6ZpKQ9ZeHapmjcseO5cVD1Yv086+85nsuxFAWMRg1JrGmUJbjjsT5mNNn8041zAVi5tIVE0uHAkA9AqaK49aFeHtpaoDVt8ddXTmPp/AwAv940yG1r+hEI3n5OM9ed144UsG/A48s/28fuwYBLTslgS3jfZZ0IIfDD4Tzo/esG+MHjAyRtwYcu7WDl0ua6t2gYC7tgepKLl7Zw8VLobHG55T/38dYVzXS2uNz+cC+rNw6RdiXvuaCNq85u4XsP7mf3YMALvQVOmz3AdSvauOd3fdy7IYdA897zW7n6nDbu/X0/u/t8+nIhXU0WczpcYFii/7CtyDcf7KUn53PNsmY+9PppPPVSkUeeLfBXV3UxWAi4/dF+3rWyjWlNNt978ADzpqd47dJM9GKp8ZfaUSVWa13rh//HHo9lc5NorQlC0y/wv7ypkyvOagHgS/f3cN/GIW6+uouTuxLcfPsu+oZ81r9Y4NM/2sPbVrTx7vNb+cf79vPA0zmEgM/fvYcd/T43X9vFnj6Pf3+kHy8gaiVkJOCBZ/J89ec9fOS1nVxzdgufXbWX7gNencSaFV/xzW67INScfVIWVwh29VZZsyXHrb/t5a+vncUVZzTxpdV7eX5vlSWzTev56VmLxTNTPLo5x/cf7eNDl3fwjvPa+Mp9PTyzu8rsdheBpi1rccqMBI5tTIjjSLoPVPj0nbtZOivBp66azh2/H+Bbv+klm5CsenKQgXzIlu4S//sXPWzdVWV/zueeNX2mdkvU7dEdAzXSWaGhcCf2LkuBJpmQKA2bthf56e8HEFJy8WlZzj8lw9rn8nzkii4uODXLGXOSPL4lx2NbC2zpLnHpyWnefr7p/vL4tjK//cMQS2Ym2NlT4bPXz+LshUZaf/tiCYkwb72Kevc/+tQgJ3Ulmd3uMK3FwSv5PLplkBsum04QKuxof46AqJuMqcJIWTBUUlyytJmvfnA+/TkfR4AXaPbnAi5e3MyCzn5mdiQ5dXaSedNcvnzTPPYOeASeeZVMz0CVNyxrZm67yxkLM5x9chMPb84RhJpsUvKz9TnaEoKPvakLSwpuutjjl+sHeOf5rSzpcnh6R5EdfR6ndbk8+lyOZLKFZFKybH6qVjQ3ZsYqkNbI54zKWCEEKnoBfWtSMpQPsaTAtSUz211WrRsk5QqWLUiTFDCzxaYaGJdlZqvLYFlR8uHUrgR+aHDgGVmL7qJHrqxoTtt0ZC28wDSrHK4CNAkzP4BiVbF3wOcrP9tHxdOcvShLZ7P7MhulMUxzbUG+HNJbCZk/LcHzu8t87vbdTGt3mZaWSFvWOrKVPSh7iiDUbNlZ4pbVe0mnbWY1W3hh/D4847wFYV1VBmBLQW9B0Zm1CENFoAQzsmbTWcIWnD4vzaq1A8xqtvnE1V3cuqaf5qTkpFkpOpqdmhrWemzhYiMS25DzFNuA809O8fPnChwY9Fi2IMNHr5rB4hkJipWQ1oxNEcHm3VUStsQP4dk9FRZNd5ndavPgswUcS+Bagg27KmSzCRZ0ugwVff6438O1zZYPN+r2bUXOSMKRtGRtZrQ5fPPDC7n1rxbxuTd3cdGSLMCwU4ImaYNrCwplxdfv72H+NJcFM5Lc/fgAnRnJdz8yny+8exZZ26h6AD9QtGQsbEuw6ol+pCX53scW8vl3zaY1bdXiXDtyouJn4kiBF2hOmu6wZZ+H1pCwJU/tqeJpQSphsfK0ZlZvGGKoYrTGnCaH1esGOH9ROvKUJ66WqiHnKfburl3RzhPby7z769s4a0GGPYWQ3T0en7yyk4Qj+fDrOrnlvgOs21ZkZ7/HaxamOP/kNKfMSPDjdUO851+2k7IFL/ZU+Mw102nO2Fy9oo1/+EkPDzydZzAfkrLNjQ6WQvYM+khL8N6V7Xzy+zu54V+205KU7M/5fPV9c8im7Jq0Jm3Jjzfl2D6wHVUJObnd5is3zkVpzbmLUjywOc+ffms7FoIXe316onfmnDI7zf/59QFmtTu8cXkLj67ax4e+/RJhqHhhv0ehYnbU78n5dJZUlDPWHCiF9Oc9rjirlZ+sG+KtX9vO/HaXtduL/OP1M7CkYHabQ0dSMmdakoQjWbYwzW1rB3jN/NRw6c9RMNUZRQ3DGACK2AMNgpCHtxTYurtMOmlx4eImTp2ZqAEL67cV2LStSFeryxuXt5CIGnn0DPrcv34QpRVXntXKnM4EodJ4geaJrXkqVUW+qvjX3/RyzycW4iPpz/ucNjuJlII9/VUeeiZPsRJy4ZImlsxKYVsQo067+zy6BwKKVUVnVrJ0TgrHHu6Q+rvn8mzaXuS8U5pIJiQdTTaz2lxypZAf/a6PU2cmuHRpC0++UGDjtiKvWZQhk5K0Z2xmtDhs3lUmm7RZMN1lsBiwfX+VxbOSpBOmt9QDT+XoGfC57Iwmls5NRw6mprvPoyNr0j4oIwAAAXRJREFU05y2GCyF7Djgcea8VE3FM0bmegG1zunHzNiDY8bDT+JISfIjwXRxQ8u7Hj7AjsGA5SdluePB/cxsd/nijXMjT3dkDHq04D5GhI5V1b0csBx5DjF2PfJ1Rxr1yBQo877A0WjM+djRoLFGfl8P5b2wp8J3H+njhT6flQvTfOi1HTSlrNptjw7Aw5Gz8jEKNrY5j3TekRIUo419+P+PrfzH88F1Gjt3TFjxaDdxOEyWw/y+Hj8dSRJHyq7Uo071kn3wNYY9zqN5+IejRr4z+u/q3kXUIGeDkMj0NEaTUkFRzzCl9HCLWoyamaqpsMkipaPmJmPInk96MVujudf/X0lps7+3EU+4noQfaD0WET9Bx4+CkCiGHvt3pW0Zo3yCphZ5vrGpR8NUqFPFQdTtrpEY6QRNHHmB6Zp+tAyN6WU2VmvwzYuhkMJcZJLf5vWqJaWj1pERBxxrnHY/cKKu+FVLJ8pPX6V0grGvUjrB2Fcp/T+VeOGwpxGfzQAAAABJRU5ErkJggg==;" parent="1" vertex="1">
          <mxGeometry x="-341" y="1022" width="85.16" height="70" as="geometry" />
        </mxCell>
        <mxCell id="cPNEiWFNxqfhoOzkkB5h-12" value="" style="shape=image;aspect=fixed;image=data:image/png,iVBORw0KGgoAAAANSUhEUgAAAH8AAAB3CAYAAAAq7p9+AAAABHNCSVQICAgIfAhkiAAAABl0RVh0U29mdHdhcmUAZ25vbWUtc2NyZWVuc2hvdO8Dvz4AAAuBSURBVHic7Z19bFVnHce/5+2eckppKe+IYMYgY0JZZicvocBAShBHBDFTJpswiYDiliWazBjN/vEvl5CQQHCyTUaXaYoYWOJ4GSAljLo6Rx1Di0RKCFdg9E3ube95zot/XC7rau+959zzvJz2nE9y/+p56/k+L7+35zlSb2+vi5hIIot+gBhxxOJHmFj8CBOLH2Fi8SOMKvoB8tHabuPv12y033ZEP0pgpo2TMWeqgpppiuhH+QxS2Fy95ssWfnPaRNut7GMpw2Bssu+135njJXxvaQLzZoSjz4VK/F1/yqDxAwuKDOjh6iRUyNjZhrD+URU7VumiHyc84v/yD304ctFGlfh3wpyuDPDEFxX8dF2Z0OcIxaC676QZGeEBoEoHjly0se+kKfQ5hIvflnTQ0EwiI3yOKh1oaCZoS4ozaIWLv/dERvQjCEXk/y9U/OOtBC3XnGFp3HlBV4CWaw6OtxIh9xcmfh9x8eoZMixcuSAoMvDqGYI+wt/uFvbqD54nuNHtRrbX59AV4Ea3i4Pn+fd+IeJ3px0ceI/A0ETcPXwYGnDgPYLuNF/jT4j4e08QpMVMc6ElTbLvhSfcxW9tt/HORSvu9QMwNOCdixZa221u9+Qu/q5j0XbtisHz/XAV/3grQdut2MjLh64Abbdcbq4fN/H7iIvd78ZGXjEMDdhzko/rx038hiaCjnQockih507KRUMT+97PRfzrHQ4aW+Je7xVDAxpbCK53sHX9uIi//7QZu3Y+SRPgzbNsXxpz8ZsvWzh6yY57vU94uH7Mxd951Ix8/D4ILF0/prIcbiG42hm7dqWiK8BH/2Hn+jETvzvt4PWz0SvSoE2VnnX9WMT9mYn/1jkLd1Kxa0eDOykXject6tdlUkPclnTwu/fZu3YZfmHworCc2nKu39JZwPRJCWrXZSI+j9KkKkPCyBBNKXczQBfDIFaaAPvPOnjpm/SuSV385ssWzl11mM71GRvYvjyBulnhWPwAAH/+KI2XjrAbAQwNOPYPG1+9bFFb9EF9zt951MQIxprYIV3B1ZvqhGOxK8ceoQJ7T9G7PlXxG5rMyJdm2STFrAHoCnDppovDLXRcP2riJzstNLbERRqABJukmTWAKh14rYkg2Rnc+qcm/htNdpy16wfLEaAj7aLxfHBXh4r4bUknLs36P9iNAIYGHPrQwpVksGtTET/qq24KwXIE2H0iWO8PLP7xVoJzV6O76qY4EpMGoCvAuasOmi+XPvcHEr877eDVM4S5azf0YTMF5Fy/Uku+Asn29l8t3Oh2uc/1ipy1Mwyl19d5VRWKp/BostPCjdve3SlNT+BKkiChSAWPs0kKACCrdEK0ugJcue3i2AULa2r9i1Dy5gzJTgubXxE312dsoKen0/PxKcvFjqUV2L66quixB8/9Fz871IVytbCY/dEUoFzzdryiGdQaQI63fjgClYa/gbzknv/aKQtpAmEWvq4A40aPhmOZsEm66PGaz7hIlS55FtMvueel1QAydna1z0/W+IuplzTnt7bbOHIxHKVZuRdIQhryzQdNI1BXgEMXLN8bPZTU83cdywg18jI28OLqbGInQ1wAIwY9TtckPP/KLVy6WZpFTBxg1gQVO7eMv3efwdE1CU2XLPz89zd9jBYSVRtghJp1uV/eOPi7GAzfEuZW3Yjs9bYDlGnS/R9rvNwnIZcSb6fXAHIbPTRdsjxnO30N+91pB3tOxhsq0IWeG6jIwO53vbt+vmTMlWbFAR360LAB/G704Fn86x18SrOiC50RILfRg5esn2fx9582Q1tEMZyg0QDSJJtlLYYn8cPk2kWBoFOAoXlz/TyJ/9sz7EuzYvoTfApIyEDD2cLnFxU/2Wnh42SctRNBkAZgaMBf/m0XXOxRtD/f7pGEhnFpkVAkdNy1cb3DQSaT3xjSdRXdqfAYN0HiAGkC3OwGKo3B/15U/F7ThekAec4fMmgycPzjPvzxwxvFj72XpAlHyFgqORdgOkCfmd/nj9RMrslAVRn7iCALaKeDgYiIb9ouAB/p2VBGMEsfAfJRVPyxI50hben/4ttjfJ9z4FQP3r7gr1CEF35GgIQMlCXyN/qisn5urIYJFRbTdWgsmTTaf8st12WYtlu0MkcM3keAakPChMr8fy86wJVpEr7ysBrvqRMyirmBGRtYMF0pWN3jaXZbP19FtRHGXhBtikUCNywq7J97Er/SkLGpTkNXXJ4fMgaPBKYJ8NQ8DVOqC8vr2a6tn6viC6OlUG2IEJNlYAOoNiSsn1/c1vEsfpkm4fmVCfTS3x0khgK5KaArA2yq0zxV8vryaOfNUFH/kBL3/lAioS+TxuyJkucaft/hjC3L6dabx9DDtF3sqPdevu3bCZ5SLWPtIyoaPxC3KleRcb9Oze9SJR4FnyJIERer54zw9bHmkmJ3Ty/RcOqfNnoLJA1YoivZven2HP3E13lfe8TA5hUFoh5DmIQi4dl6f/9bSeJXGjK+u0jDy0dNYb0/2/BGIZ3qKnicJmfr703bLZjhGsqkiIstSyp8RzNLTmGsqdUwfZw41y9jZz9IbKpVSJlu3h9xwpqooQNxgEmVCjYsHeX73EApm+8/nsCLjfwjPxkbeHaRhjlTc/PbpLzH/urwbbR/MnzdE9N28dyqypJsmUDiz5uhou5BC6fb+BZ32g4wdazsybgxQpmcoQNxgLmTNSyZXVqpTeABMXb9xJEyXbywdlzJ5wcWf0q1jA3ztDjrx5kUcfHkYwZmTipdQiqm0LcWqhhTPnyH1zBSrkn4zuP+jbz+UBE/5/rFvZ8PKeJiY93IkgpV+kPNCaqfqwp1/aICcYCp1Sq+Pr8i8LWoiZ/N+ulx1o8xKdPF9vpRvvffGQyq4Y+aaQrqH1Li4Z8RxAEWz9BLdu0GQj329fQimfnmDVHdHMK0XWxd5b8aOR8lb8VWiL0nTLzZzHYtf5UhQXN7ih53o8NCrmZ/lCFjpIdFG3f7XPTcX+PmYnJ1ccPqs+fQJ0VcrHvUwI/XVVO7JhPxu9MONv26j3nWz7FM9GUKb8M2MK7vZQkWjXPo4+KNH00MbOH3h8kjVxoyti1j7/rJagJlugFNdqHJGPQ3kHzH0T6HJiniYtuKSqrCAww/rbaiRsPM8exdP1lNQNHK2d5EIDnXbvVjI6lfm2mb3VHPx/XLNoChvo54cFKmixeeGMukAomp+Dxdv08bwPAp2EgRF4tn6NS+pjUQ5mbKluUJbuneT6eA4dEAEoqEH6xiV3bGXPwp1TLW1/KL+w8XGyBFXDz55XKqX9AcCJdwyfr5KiZX8sv6DQcboFwD1i6kb+T1h4v4lYaMzYv5rvUbyjZAVx8b124g3AKlK2o0zJ7IN+s3FKcA4gAPT1bxjYXBs3bF4Bol97OahBZDbQowbRfPreSztoCr+DXTFNQ9yD/rN1SmgBRxseABHV+a6X3P/CBwz4/xdP36MxSmgHKNrWs3EO7i83b9+hPmKSBFXKyrZevaDURIZvypOk1YwWcYp4DcqpvNPtfaBUWI+GWaxCXrl4+wTQGm7WLbSjbx+0IIq4lZUaOhdqosrOAzLFMAcYAZE1SsqOFvCAktiHpmcULoBxzC0AB4unYDESp+zTQFq+eI3eNPpA2Q21CBl2s3EOGlkBvrFOHbuYuyAco1/xsq0ES4+JNGq9i2LCF8jz/eU0A2fj+Kefy+EMLFB7IbPWyoVUPUANhOAV19LjYvGsklfl8IJtW7pdLQZGLf2awBIPKzLl4/zuyX3PYwW5dV4Jll4vcGCpX4ANCWdLD3RAZ/u+7c9wRELdLoTXn/RLsXFjygY+uqMYGWVdMkdOLnaEs6eP9fFtpvi/3WiXNvf/sgfH6cigWzKkIjeo7Qih/DnnA1xRiuxOJHmFj8CBOLH2Fi8SNMLH6EicWPMLH4ESYWP8LE4keYWPwI8z9ykYiMrS98XQAAAABJRU5ErkJggg==;" parent="1" vertex="1">
          <mxGeometry x="-335" y="878" width="74.71" height="70" as="geometry" />
        </mxCell>
        <mxCell id="cPNEiWFNxqfhoOzkkB5h-13" value="" style="shape=image;aspect=fixed;image=data:image/png,iVBORw0KGgoAAAANSUhEUgAAAEUAAABGCAYAAACaGVmHAAAABHNCSVQICAgIfAhkiAAAABl0RVh0U29mdHdhcmUAZ25vbWUtc2NyZWVuc2hvdO8Dvz4AAAbHSURBVHic7ZvbbxxXHYC/MzOevRlvsotxGwJJi1M1Dmoa1ASCI1JCo6pKFYgsBMpDq7qVykMlXshL/4TygkBCaiQoUilULX1AKaQSapSoiWogUZKSuELdVEoVuji+1Lvp3ufCw2Td2Du7njNztrbQfNJKtjzn4m/O73fOnDMrarWaS8wytLXuwHokluJDLMWHWIoPsRQfYik+xFJ8iKX4EEvxIZbiQyzFB0NlZTMlm5lFXWWVHYxssBnJ9rcNJVIKRYsX37YpzAoalq2iyq4I12Z8m87TB/S+yRFRn5ILRYtjrzo0LEgoHXfdabf18x9rjN6tvtHIOeUXb7mfqxDw2mpY8OLb/RmVkaScvGjx4Zz7uQppkzDgalFw8qKlvO7QUmZLLY6fdhBuf3NIL4Rr8+qUQ6XuKK039D0+cUGjWG6QSxs01N+sYAid2U/hz/+wOPodU1m1oUZKoWhx4rJNLr0GcePD6xe85YAqQkl5bcqhWF6r4dFJw4LfnFpDKefeb3K2wLoZJW3OfWAzfUPNjZKSUqk7/HFKKGlYNa7Q+fXf1BxMSElpT8HrlfMftThzJXoYBZYyW2rxylTk9vpKLm3w23fsyFN0YCmvv+uuq+TajfYUHYVA2XL6hsWb/4J8SsAaLtaC8soU7NlmhX4uCjRSXjq9/kXcyXzN5bWp8CG0qpRz7ze5WhRrupyXJZ8SnC3Ae9fDle8pZT1PwUE4fqoVqlzPoPOmYEKNElfoLFTVJOZc2pDug3Btzn/kcvKi4LFdcrml69UzJTv0FOwKnX2jsP9+A8uOvjv25iWLq0VdWkwubXD8tMND97YYzg4ELtdVyhvv2hTLljfjSLJQtdi11WR8e7jsX6k7VBv20j/ynwWb6Y/lR6twbYpllxMXEkweCF7ON6dM37D4y+Um+aTjTcGyH8AKmfwrdYdjv5vjhy98vPTkW/60SqV0E9ymd5FEX/JJhzfONykUg4eyr5SXTtsg+rtj3o1MUuOBr5p8+/4MgwlvlBpai7otaFXLn4mRwBW61BTdMb7fuw7vXPMMR6HR9MrLLrkzSY0nv5vAEUNkkt49s5wBknoVEFjVRYz0BiD4TRNOk7MFk+kbFmObVw/pjivOX7Nvr1wDt9lBPulw4hKcunwzfCXcWvrp+s1bmIa3s+ai0aqWGUgPISNmoWpx6UODsc2rX9sh5b8lG1fIZ/qVzN2y+XdtEGpzkeoBSOoG5oqeyorJpQ0Wq8Ha65CyNQ9nC8EKd0Xo3DNsMLFFA75Ms35r1SK9+GehwrUZC9NYngJlxCxULb6UDTYbdly1Z5vG7/8eLZ/M11yee1Dw2K52ZzdI11GpO0s5xXirxbUZ/9kjqJh80uHBrcE2BTquGr3bYN8ouFq03fGwUzLA8y/PcfRXi8yWWrfr6r3wsqqLQPdwdzWTQzvNwE/NvuqePqAjnFqgCvrBxrTgi4ng7beTr3Abvn8fHoSJvcGTsq+6kazOxO5B/nTBDikn2mnssYn8st8NLdiDXbNWZWDFhvp8fYCfPKJJHcZ3PWCfLbX42R9c5spNeg1Nf3TuGoJ78/53TpYrRZhfqCIIFpPeOsbjriGdXz6VXspPQej51sGZKzYv/LUZahXZplJeDF22jWlogYW0aS/wnj9sMr5dLj/21Lf/6zpjmzRkFkkryQxtwDQ0EgahP7JCwLsZOzfVpYVAgOB/6mEd+fBZjplKRyoflslH5JcCEEDK2GaDQztTRBktrjAYSA2GLi9Lw4JD3xjs78b1xF4dQwufV8ATc2cC7BcuGpmExRMhRwkElDKS1fnRNweZ/6QUuqE2A6nBvh6TNC2HZw/mIr0PF3ie+v4egx1bckQJI7gdSulspDq61o3G10YMvrcrWv2BpWSSGpMPm0RNurAilMLs7PXY8Zs8OCy1JvFDqvT4dpPx+1IACNeK/FGZfBu2zkOjqVBT8Eqklf5gt4Zw1Z0pqwqlhG6HnoJXIi1lbLPB4w/ouCKhpAMQXUzD1jnyrZyyd2pDBd+R8S8wlFTzXNMmiphMwmJiPKOsL6GkjGR1ju7LMrdYUdYRCCemYes8ezAnddi1GqHT9IEdGjs2qT8GkRIjdMa+kuLw3o1K+xBaSiapMXlwGFeofyEwqBgXjecezylvP9KEPr7dZOem1pqIadg6+3ekA53jyBL5Cws/PbyRLdmG8vwC3cU0bC9snnm0P89Skb/aAt7O+8unypz5wKbaVP8+i1X7ZNnvR/YMcWS3Rj6f71IiGkqk3InK18H9GDI/e1pPpVJ9aUO5lP8H4i9W+hBL8SGW4kMsxYdYig+xFB/+BzWOuhmfpcnSAAAAAElFTkSuQmCC;" parent="1" vertex="1">
          <mxGeometry x="-327.15" y="1140" width="69" height="70" as="geometry" />
        </mxCell>
        <mxCell id="cPNEiWFNxqfhoOzkkB5h-15" value="" style="endArrow=classic;html=1;rounded=0;exitX=0.393;exitY=0.014;exitDx=0;exitDy=0;exitPerimeter=0;entryX=0.5;entryY=1;entryDx=0;entryDy=0;" parent="1" source="cPNEiWFNxqfhoOzkkB5h-13" target="cPNEiWFNxqfhoOzkkB5h-11" edge="1">
          <mxGeometry width="50" height="50" relative="1" as="geometry">
            <mxPoint x="210" y="940" as="sourcePoint" />
            <mxPoint x="260" y="890" as="targetPoint" />
          </mxGeometry>
        </mxCell>
        <mxCell id="cPNEiWFNxqfhoOzkkB5h-16" value="" style="endArrow=classic;html=1;rounded=0;exitX=0.5;exitY=0;exitDx=0;exitDy=0;entryX=0.5;entryY=1;entryDx=0;entryDy=0;" parent="1" source="cPNEiWFNxqfhoOzkkB5h-11" target="cPNEiWFNxqfhoOzkkB5h-12" edge="1">
          <mxGeometry width="50" height="50" relative="1" as="geometry">
            <mxPoint x="-290" y="1151" as="sourcePoint" />
            <mxPoint x="-288" y="1102" as="targetPoint" />
          </mxGeometry>
        </mxCell>
        <mxCell id="cPNEiWFNxqfhoOzkkB5h-17" value="" style="endArrow=classic;html=1;rounded=0;exitX=1;exitY=0.5;exitDx=0;exitDy=0;" parent="1" source="cPNEiWFNxqfhoOzkkB5h-12" target="cPNEiWFNxqfhoOzkkB5h-9" edge="1">
          <mxGeometry width="50" height="50" relative="1" as="geometry">
            <mxPoint x="210" y="940" as="sourcePoint" />
            <mxPoint x="260" y="890" as="targetPoint" />
            <Array as="points">
              <mxPoint x="280" y="910" />
            </Array>
          </mxGeometry>
        </mxCell>
        <mxCell id="cPNEiWFNxqfhoOzkkB5h-18" value="" style="endArrow=classic;html=1;rounded=0;exitX=1;exitY=0.5;exitDx=0;exitDy=0;entryX=0.368;entryY=0.02;entryDx=0;entryDy=0;entryPerimeter=0;" parent="1" source="cPNEiWFNxqfhoOzkkB5h-12" target="cPNEiWFNxqfhoOzkkB5h-10" edge="1">
          <mxGeometry width="50" height="50" relative="1" as="geometry">
            <mxPoint x="210" y="1180" as="sourcePoint" />
            <mxPoint x="260" y="1130" as="targetPoint" />
            <Array as="points">
              <mxPoint x="401" y="910" />
            </Array>
          </mxGeometry>
        </mxCell>
      </root>
    </mxGraphModel>
  </diagram>
</mxfile>
